<svg xmlns="http://www.w3.org/2000/svg" xmlns:xlink="http://www.w3.org/1999/xlink" version="1.1" x="0px" y="0px" viewBox="0 0 100 125" enable-background="new 0 0 100 100" xml:space="preserve"><path  fill="#005587" d="M2.8,70.9V29.1c0-5.6,4.6-10.2,10.2-10.2h61.2c5.6,0,10.2,4.6,10.2,10.2v15.5c-0.5-0.1-1.1-0.1-1.6-0.1h-0.7h-0.7  c-0.7,0-1.4,0.1-2,0.2V29.1c0-2.8-2.3-5.2-5.2-5.2H13c-2.8,0-5.2,2.3-5.2,5.2v41.8c0,2.8,2.3,5.2,5.2,5.2h50c0,0.2,0,0.5,0,0.7v4.3  H13C7.4,81.1,2.8,76.5,2.8,70.9z M13,71.4c0.5,0.5,1.2,0.8,1.8,0.8c0.6,0,1.2-0.2,1.7-0.7l19.9-18.7l5.6,4.7c0.5,0.4,1,0.6,1.6,0.6  s1.2-0.2,1.6-0.6l5.6-4.7l17.5,16.5c1.6-1.1,3.1-2.1,4.4-2.8l-18.1-17L74,33.1c1.1-0.9,1.2-2.5,0.3-3.5c-0.9-1.1-2.5-1.2-3.5-0.3  l-27.2,23l-27.2-23c-1.1-0.9-2.6-0.8-3.5,0.3c-0.9,1.1-0.8,2.6,0.3,3.5l19.4,16.4L13.1,67.8C12.1,68.8,12,70.4,13,71.4z M97.2,76.8  c0-0.9-0.4-1.8-1.1-2.3c-3.9-3.2-8-5.3-8.9-5.7c-0.1,0-0.2-0.1-0.2-0.2v-6c0.8-0.5,1.3-1.4,1.3-2.3V54c0-3.1-2.5-5.6-5.6-5.6h-0.7  h-0.7c-3.1,0-5.6,2.5-5.6,5.6v6.2c0,1,0.5,1.8,1.3,2.3v6c0,0.1-0.1,0.2-0.2,0.2c-0.8,0.4-5,2.5-8.9,5.7c-0.7,0.6-1.1,1.4-1.1,2.3  v4.3h15.1h15.1V76.8z"/><!-- <text x="0" y="115" fill="#000000" font-size="5px" font-weight="bold" font-family="'Helvetica Neue', Helvetica, Arial-Unicode, Arial, Sans-serif">Created by Gregor Cresnar</text><text x="0" y="120" fill="#000000" font-size="5px" font-weight="bold" font-family="'Helvetica Neue', Helvetica, Arial-Unicode, Arial, Sans-serif">from the Noun Project</text> --></svg>