<svg xmlns="http://www.w3.org/2000/svg" data-name="Layer 1" viewBox="0 0 100 125" x="0px" y="0px"><!-- <title>Artboard 4</title> --><path fill="#005587" d="M23.71,99,3.59,79.39,18,65.07a22,22,0,0,1,22.76-5.15L43.92,61H63.39a6.14,6.14,0,0,1,6.13,6.32,6.31,6.31,0,0,1-6.39,5.95H51.44a2.38,2.38,0,0,0,0,4.77H63.14A11.12,11.12,0,0,0,74.29,67.5s0-.1,0-.15L85.11,55.19a6.55,6.55,0,0,1,9-.88,6.37,6.37,0,0,1,.74,9.1L73.25,88.17a15.15,15.15,0,0,1-11.42,5.19H29.35ZM31.62,8.62h4.3l6.87,23.87a7.72,7.72,0,0,0,7.42,5.57H70.67a7.72,7.72,0,0,0,7.42-5.58L82.54,17a4.82,4.82,0,0,0-4.63-6.15H45.12L43.07,4.57A5.18,5.18,0,0,0,38.14,1H31.72a3.87,3.87,0,0,0-3.83,3A3.81,3.81,0,0,0,31.62,8.62ZM46.92,49.07A5.09,5.09,0,1,0,52,44,5.1,5.1,0,0,0,46.92,49.07Zm16.9,0A5.09,5.09,0,1,0,68.91,44,5.1,5.1,0,0,0,63.81,49.07Z"/><!-- <text x="0" y="115" fill="#000000" font-size="5px" font-weight="bold" font-family="'Helvetica Neue', Helvetica, Arial-Unicode, Arial, Sans-serif">Created by Gregor Cresnar</text><text x="0" y="120" fill="#000000" font-size="5px" font-weight="bold" font-family="'Helvetica Neue', Helvetica, Arial-Unicode, Arial, Sans-serif">from the Noun Project</text> --></svg>