<svg xmlns="http://www.w3.org/2000/svg" data-name="Layer 1" viewBox="0 0 100 125" x="0px" y="0px"><!-- <title>Artboard 24</title> --><path fill="#005587" d="M88.63,58.42a8.09,8.09,0,0,1-2.35,6.38L64.51,86.56a16.8,16.8,0,0,1-12,5H25.68l-6.75,6.75a2.5,2.5,0,0,1-3.54-3.54l7.49-7.49a2.5,2.5,0,0,1,1.77-.73h27.9A11.84,11.84,0,0,0,61,83L82.74,61.26a3.1,3.1,0,0,0-4.39-4.39L62.76,72.46a2.5,2.5,0,0,1-.42.33A8.13,8.13,0,0,1,55.5,76.6H38.86a2.5,2.5,0,0,1,0-5H55.5a3.09,3.09,0,0,0,3-2.41,3.07,3.07,0,0,0-3-3.73H26.79a9.82,9.82,0,0,0-7,2.9l-4.19,4.18A2.5,2.5,0,0,1,12.08,69l4.19-4.18a14.79,14.79,0,0,1,10.52-4.36H55.5a8,8,0,0,1,7.38,4.81L74.82,53.33a8.1,8.1,0,0,1,13.81,5.08ZM49.31,1A27.48,27.48,0,1,1,21.83,28.48,27.51,27.51,0,0,1,49.31,1ZM27.6,22.65a22.42,22.42,0,0,0,0,11.66h9.81a37.3,37.3,0,0,1,0-11.66H27.6Zm16.23-5h11a34.43,34.43,0,0,0-5.48-9.92A34.41,34.41,0,0,0,43.83,17.65Zm-1.33,5a32.49,32.49,0,0,0,0,11.66H56.12a32.49,32.49,0,0,0,0-11.66Zm28.52,0H61.2a37.3,37.3,0,0,1,0,11.66H71a22.42,22.42,0,0,0,0-11.66ZM54.78,39.31h-11a34.42,34.42,0,0,0,5.48,9.92A34.42,34.42,0,0,0,54.78,39.31Zm-10.9,11a39,39,0,0,1-5.33-11H29.62A22.57,22.57,0,0,0,43.89,50.3ZM69,39.31H60.06a39,39,0,0,1-5.33,11A22.57,22.57,0,0,0,69,39.31ZM54.73,6.67a39.06,39.06,0,0,1,5.33,11H69A22.57,22.57,0,0,0,54.73,6.67Zm-25.12,11h8.94a39,39,0,0,1,5.33-11A22.57,22.57,0,0,0,29.62,17.65Z"/><!-- <text x="0" y="115" fill="#000000" font-size="5px" font-weight="bold" font-family="'Helvetica Neue', Helvetica, Arial-Unicode, Arial, Sans-serif">Created by Gregor Cresnar</text><text x="0" y="120" fill="#000000" font-size="5px" font-weight="bold" font-family="'Helvetica Neue', Helvetica, Arial-Unicode, Arial, Sans-serif">from the Noun Project</text -->></svg>