<?xml version="1.0" standalone="no"?>
<!DOCTYPE svg PUBLIC "-//W3C//DTD SVG 1.1//EN" "http://www.w3.org/Graphics/SVG/1.1/DTD/svg11.dtd" >
<svg>
<metadata>
Created by FontForge 20110222 at Fri Mar 20 15:23:10 2015
 By deploy user
Version 3.0 (c) (c) Copyright 1994-1997 Summer Institute of Linguistics, 7500 W. Camp Wisdom Rd., Dallas, TX 75236 USA (972) 708-7495 RWE
</metadata>
<defs>
<font id="Salish2Salish2SILDoulosRegular" horiz-adv-x="520" >
  <font-face 
    font-family="Salish2 Salish2 SILDoulos"
    font-weight="400"
    font-stretch="normal"
    units-per-em="1000"
    panose-1="0 0 4 0 0 0 0 0 0 0"
    ascent="800"
    descent="-200"
    x-height="465"
    cap-height="688"
    bbox="-35 -229 1218 943"
    underline-thickness="20"
    underline-position="-123"
    unicode-range="U+0020-2219"
  />
<missing-glyph horiz-adv-x="500" 
d="M63 0v760h375v-760h-375zM125 63h250v635h-250v-635z" />
    <glyph glyph-name=".notdef" horiz-adv-x="500" 
d="M63 0v760h375v-760h-375zM125 63h250v635h-250v-635z" />
    <glyph glyph-name="glyph1" horiz-adv-x="0" 
 />
    <glyph glyph-name="space" unicode=" " horiz-adv-x="300" 
 />
    <glyph glyph-name="exclam" unicode="!" horiz-adv-x="346" 
d="M231 628q0 -16 -2 -34l-46 -412h-20l-44 412q-4 37 -4 39q0 33 16.5 52t42.5 19q22 0 38 -17q19 -21 19 -59zM229 43q0 -24 -16.5 -41t-39.5 -17q-21 0 -37 14q-20 16 -20 44q0 25 19 41q16 14 38 14q21 0 38.5 -15.5t17.5 -39.5z" />
    <glyph glyph-name="quotedbl" unicode="&#x22;" horiz-adv-x="424" 
d="M356 650q0 -36 -11 -94l-28 -148h-25l-27 148q-12 66 -12 87q0 61 52 61q23 0 37 -15.5t14 -38.5zM170 649q0 -17 -14 -92l-28 -149h-21l-28 150q-11 59 -11 85q0 61 50 61q23 0 37.5 -15t14.5 -40z" />
    <glyph glyph-name="numbersign" unicode="#" 
d="M502 217h-139l-47 -232h-41l46 232h-172l-48 -232h-43l47 232h-87v42h95l36 174h-131v40h141l46 231h41l-45 -231h171l49 231h42l-48 -231h87v-40h-94l-36 -174h130v-42zM365 433h-173l-36 -174h173z" />
    <glyph glyph-name="dollar" unicode="$" 
d="M468 171q0 -79 -61 -132q-58 -49 -140 -54v-64h-32v64q-98 5 -180 41v144h22q10 -138 158 -151v296q-100 65 -133 100q-47 51 -47 120q0 78 64 125q51 36 116 40v47h32v-47q33 -1 70 -9q29 -10 98 -36v-152h-20q-13 150 -148 163v-258q124 -89 157 -124q44 -48 44 -113z
M235 430v236q-101 -15 -101 -99q0 -74 101 -137zM387 146q0 41 -31 76q-22 24 -89 71v-274q40 3 74 30q46 36 46 97z" />
    <glyph glyph-name="percent" unicode="%" horiz-adv-x="899" 
d="M821 258q0 -116 -69 -198q-63 -75 -136 -75q-132 0 -132 143q0 87 70 166t156 79q50 0 82 -37q29 -33 29 -78zM677 706l-402 -721h-50l364 653q-65 -27 -129 -27q-32 0 -52 8q0 -8 4 -27.5t4 -28.5q0 -101 -72 -184q-68 -78 -141 -78q-124 0 -124 143q0 86 69.5 166.5
t155.5 80.5q41 0 80 -29t87 -28q103 1 156 72h50zM794 252q0 34 -18 59q-21 28 -54 28q-62 0 -112 -90q-47 -82 -47 -160q0 -72 65 -72q68 0 120 86q46 76 46 149zM389 578l-9 48q-21 6 -44 22q-20 13 -28 13q-37 0 -89 -70q-61 -81 -61 -177q0 -77 65 -77q66 0 118 82
q48 77 48 159z" />
    <glyph glyph-name="ampersand" unicode="&#x26;" horiz-adv-x="809" 
d="M777 124q-11 -52 -43 -89q-44 -51 -114 -51q-86 0 -178 99q-52 -45 -85 -63q-64 -36 -137 -36q-85 0 -136 48q-46 43 -46 104q0 137 211 249q-42 92 -42 151q0 82 57 128q50 40 120 40q64 0 102 -38q35 -35 35 -86q0 -64 -60 -116q-31 -27 -107 -67q63 -114 135 -210
q89 107 89 180q0 22 -13.5 39.5t-34.5 17.5v19h214v-19q-47 -6 -64 -20q-24 -19 -65 -94.5t-102 -152.5q84 -95 152 -95q75 0 93 75zM462 582q0 38 -23 62t-55 24q-48 0 -73 -38q-17 -27 -17 -54q0 -52 43 -145q125 57 125 151zM415 112q-75 103 -93 134q-14 24 -57 104
q-121 -67 -121 -168q0 -54 33 -93q35 -43 95 -43q63 0 143 66z" />
    <glyph glyph-name="quotesingle" unicode="'" horiz-adv-x="188" 
d="M145 650q0 -16 -14 -93l-27 -149h-23l-27 150q-11 61 -11 85q0 61 48 61q26 0 40 -16.5t14 -37.5z" />
    <glyph glyph-name="parenleft" unicode="(" horiz-adv-x="346" 
d="M322 -223q-126 59 -202.5 189t-76.5 284q0 155 77 284t202 188v-21q-86 -46 -133 -157q-49 -114 -49 -281q0 -355 182 -467v-19z" />
    <glyph glyph-name="parenright" unicode=")" horiz-adv-x="346" 
d="M304 248q0 -155 -78.5 -286t-202.5 -185v19q184 98 184 439q0 148 -26 240q-42 151 -158 227v20q133 -66 207 -192.5t74 -281.5z" />
    <glyph glyph-name="asterisk" unicode="*" 
d="M447 596q0 -36 -66 -58q-49 -14 -98 -27q49 -15 98 -29q65 -22 65 -56q0 -37 -38 -37q-27 0 -72 42q-32 31 -65 62q0 -25 15.5 -70t15.5 -68q0 -54 -44 -54q-18 0 -28.5 16.5t-10.5 35.5q0 26 13 71q19 64 20 70q-2 -1 -67 -63q-46 -43 -70 -43q-16 0 -28.5 10.5
t-12.5 25.5q0 35 67 59q49 14 99 28q-13 7 -62.5 19t-69.5 23q-34 17 -34 44q0 37 38 37q27 0 73 -42q33 -31 66 -63q-2 19 -18 73q-14 49 -14 66q0 54 44 54q18 0 28.5 -16.5t10.5 -35.5q0 -26 -13 -70q-16 -57 -18 -71q7 5 68 62q43 42 68 42q16 0 28 -10.5t12 -26.5z" />
    <glyph glyph-name="plus" unicode="+" horiz-adv-x="1000" 
d="M800 269h-269v-269h-62v269h-269v62h269v269h62v-269h269v-62z" />
    <glyph glyph-name="comma" unicode="," horiz-adv-x="260" 
d="M207 -5q0 -116 -151 -169v23q43 13 74 46q35 38 35 85q0 20 -11 20q-8 0 -22 -7.5t-22 -7.5q-54 0 -54 57q0 26 19.5 42.5t46.5 16.5q32 0 57 -27q28 -30 28 -79z" />
    <glyph glyph-name="hyphen" unicode="-" horiz-adv-x="346" 
d="M304 194h-262v77h262v-77zM0 760z" />
    <glyph glyph-name="period" unicode="." horiz-adv-x="260" 
d="M186 43q0 -24 -16 -41t-40 -17q-25 0 -40.5 17t-15.5 41t16 40t40 16q23 0 39.5 -16t16.5 -40z" />
    <glyph glyph-name="1039" unicode="/" horiz-adv-x="462" 
d="M420 544q0 -79 -79 -168q-63 -71 -80 -102q-27 -47 -30 -112h-22q6 118 69 223q48 80 48 151q0 70 -39 108q-33 32 -79 32q-45 0 -70.5 -21t-25.5 -46q0 -15 16 -45.5t16 -41.5q0 -20 -13 -32t-28 -12q-17 0 -33 15q-23 22 -23 65q0 60 47 102q51 44 136 44q84 0 137 -43
t53 -117z" />
    <glyph glyph-name="zero" unicode="0" 
d="M483 350q0 -148 -58 -250q-63 -112 -168 -112q-97 0 -161 109q-59 102 -59 243q0 159 68 264q65 99 157 99q91 0 154 -95q67 -100 67 -258zM384 373q0 139 -32 218t-91 79q-52 0 -83 -67q-41 -87 -41 -275q0 -150 33 -231q32 -77 89 -77q125 0 125 353z" />
    <glyph glyph-name="one" unicode="1" 
d="M393 0h-259v19q62 0 77 19q12 16 12 84v371q0 73 -3 90q-8 37 -38 37q-20 0 -53 -15l-7 16l167 82h18v-581q0 -70 11 -84q13 -19 75 -19v-19z" />
    <glyph glyph-name="two" unicode="2" 
d="M477 132l-49 -132h-405v19q93 86 133 127q73 74 119 140q73 105 73 189q0 78 -52 119q-39 31 -84 31q-111 0 -151 -116h-18q9 71 44 120q52 74 151 74q78 0 135 -48q62 -52 62 -133q0 -119 -147 -279q-133 -144 -157 -166h180q65 0 84 5q35 10 63 50h19z" />
    <glyph glyph-name="three" unicode="3" 
d="M434 228q0 -107 -73.5 -173.5t-198.5 -66.5q-119 0 -119 55q0 15 12 25.5t28 10.5q23 0 66.5 -23.5t80.5 -23.5q48 0 88.5 38t40.5 96q0 114 -100 156q-42 18 -101 19v16q45 5 88 34q69 45 69 126q0 60 -40 91q-31 25 -73 25q-79 0 -132 -84l-17 8q29 62 54 89
q51 57 132 57q87 0 130 -56q30 -40 30 -84q0 -74 -93 -155q128 -47 128 -180z" />
    <glyph glyph-name="four" unicode="4" 
d="M483 182h-91v-182h-84v182h-292v64l320 457h56v-449h91v-72zM308 254v342l-242 -342h242z" />
    <glyph glyph-name="five" unicode="5" 
d="M451 688l-39 -86h-207l-46 -92q84 -8 165 -60q116 -76 116 -202q0 -119 -93 -194q-81 -66 -179 -66q-57 0 -87.5 19t-30.5 48q0 37 40 37q22 0 60.5 -26t74.5 -26q60 0 104.5 44.5t44.5 109.5q0 92 -76 155q-81 67 -225 72l132 267h246z" />
    <glyph glyph-name="six" unicode="6" 
d="M480 232q0 -96 -59 -167q-64 -77 -160 -77q-94 0 -156 84q-60 81 -60 198q0 190 142 324q116 109 250 109h29v-19q-112 -6 -194 -88t-113 -212q74 51 147 51q60 0 110 -44q64 -57 64 -159zM389 177q0 88 -31 147q-36 67 -101 67q-35 0 -106 -44q-10 -75 -10 -110
q0 -80 35 -147q40 -76 100 -74q48 2 79 42q34 44 34 119z" />
    <glyph glyph-name="seven" unicode="7" 
d="M472 670l-229 -685h-56l206 620h-189q-73 0 -110 -28q-16 -13 -41 -56l-15 5l67 162h367v-18z" />
    <glyph glyph-name="eight" unicode="8" 
d="M460 163q0 -63 -40 -111q-54 -64 -160 -64q-91 0 -147 55q-51 49 -51 114q0 94 138 189q-65 56 -85 79q-44 54 -44 114q0 74 57 120q54 44 132 44q98 0 149 -59q36 -43 36 -90q0 -54 -49 -103q-30 -30 -93 -69q71 -55 101 -88q56 -64 56 -131zM372 560q0 113 -111 113
q-49 0 -82.5 -27t-33.5 -73t35 -86q21 -24 100 -86q51 48 65 68q27 39 27 91zM388 122q0 56 -59 116q-52 45 -105 90q-84 -72 -84 -169q0 -67 36 -105t91 -38q52 0 86.5 28.5t34.5 77.5z" />
    <glyph glyph-name="nine" unicode="9" 
d="M475 419q0 -170 -116 -298q-123 -136 -275 -136h-29v19q116 3 188 81q88 95 118 218q-77 -52 -144 -52q-81 0 -130 64q-45 58 -45 141q0 106 65 178q62 69 149 69q99 0 162 -92q57 -84 57 -192zM379 445q0 104 -45 169q-40 58 -90 56q-49 -2 -79 -42q-33 -44 -33 -119
q0 -95 34.5 -153.5t91.5 -58.5q29 0 65 14.5t46 28.5q10 73 10 105z" />
    <glyph glyph-name="colon" unicode=":" horiz-adv-x="290" 
d="M202 423q0 -24 -17 -40t-39 -16q-23 0 -40 16.5t-17 39.5q0 24 16.5 40t40.5 16q23 0 39.5 -16t16.5 -40zM202 43q0 -25 -17.5 -41.5t-39.5 -16.5q-23 0 -40 16.5t-17 41.5q0 26 18 41t39 15t39 -15.5t18 -40.5z" />
    <glyph glyph-name="semicolon" unicode=";" horiz-adv-x="290" 
d="M215 424q0 -24 -17 -40t-39 -16q-23 0 -40 16.5t-17 39.5q0 24 16.5 40t40.5 16q23 0 39.5 -16t16.5 -40zM238 -5q0 -116 -151 -169v23q43 13 74 46q35 38 35 85q0 20 -11 20q-8 0 -22 -7.5t-22 -7.5q-54 0 -54 57q0 26 19.5 42.5t46.5 16.5q32 0 57 -27q28 -30 28 -79z
" />
    <glyph glyph-name="less" unicode="&#x3c;" horiz-adv-x="1000" 
d="M800 39l-600 230v62l600 230v-62l-536 -199l536 -199v-62z" />
    <glyph glyph-name="equal" unicode="=" horiz-adv-x="1000" 
d="M800 360h-600v62h600v-62zM800 178h-600v62h600v-62z" />
    <glyph glyph-name="ch62:9910+9910" unicode="&#x3e;" horiz-adv-x="178" 
d="M128 248q0 -17 -11 -28.5t-28 -11.5q-39 0 -39 40q0 38 39 38q16 0 27.5 -11t11.5 -27zM128 248q0 -17 -11 -28.5t-28 -11.5q-39 0 -39 40q0 38 39 38q16 0 27.5 -11t11.5 -27z" />
    <glyph glyph-name="question" unicode="?" horiz-adv-x="462" 
d="M420 544q0 -79 -79 -168q-63 -71 -80 -102q-27 -47 -30 -112h-22q6 118 69 223q48 80 48 151q0 70 -39 108q-33 32 -79 32q-45 0 -70.5 -21t-25.5 -46q0 -15 16 -45.5t16 -41.5q0 -20 -13 -32t-28 -12q-17 0 -33 15q-23 22 -23 65q0 60 47 102q51 44 136 44q84 0 137 -43
t53 -117zM280 43q0 -26 -17.5 -41.5t-38.5 -15.5q-23 0 -40.5 15.5t-17.5 41.5q0 24 17.5 40.5t40.5 16.5q22 0 39 -16t17 -41z" />
    <glyph glyph-name="at" unicode="@" horiz-adv-x="958" 
d="M932 87q-28 -103 -124 -192q-131 -120 -316 -120q-207 0 -332 146q-111 129 -111 305q0 229 157 371q139 125 323 125q156 0 256 -89q107 -95 107 -259q0 -150 -81 -254t-199 -104q-77 0 -77 74q0 24 8 70q-120 -144 -200 -144q-37 0 -64 32t-27 85q0 122 96 241
q94 116 183 116q73 0 88 -71l16 56l79 12l-58 -203q-48 -168 -48 -194q0 -16 11.5 -27t27.5 -11q70 0 137 88q77 100 77 244q0 142 -97 229q-92 83 -232 83q-179 0 -305 -135q-130 -139 -130 -349q0 -166 98 -279q109 -126 300 -126q168 0 285 106q77 69 123 174h29z
M600 383q0 83 -63 83q-69 0 -140 -126q-65 -115 -65 -191q0 -34 20 -54q17 -18 38 -18q48 0 103 59q51 54 79 125t28 122z" />
    <glyph glyph-name="ch65:1021+1830+9038" unicode="A" horiz-adv-x="1370" 
d="M522 -223h-237v19q47 0 61.5 14.5t14.5 69.5v201q-80 -96 -153 -96q-68 0 -119 60q-55 64 -55 167q0 116 68.5 191t171.5 75q64 0 96 -32q21 10 58 32h18v-598q0 -53 14 -68.5t62 -15.5v-19zM361 112v219q0 112 -103 112q-60 0 -97 -48q-41 -52 -41 -146q0 -92 42 -144
q39 -48 99 -48q51 0 100 55zM1218 717q-32 -5 -47 -36l-112 -241h-15l-84 179l-97 -179h-13l-108 235q-16 34 -54 42v11h141v-11q-19 -1 -25 -6q-12 -9 0 -36l72 -161l72 131l-19 42q-7 16 -23 25q-9 4 -30 5v11h159v-11q-28 -2 -37 -8q-5 -4 -7 -12q-2 -9 3 -16l76 -160
l70 154q8 18 8 26q0 16 -36 16v11h106v-11zM664 643q0 -118 -132 -162v22q85 50 85 105q0 31 -19 31q-4 0 -17.5 -4t-20.5 -4q-19 0 -35 15t-16 39q0 28 23 45q20 14 44 14q33 0 59 -27q29 -30 29 -74z" />
    <glyph glyph-name="B" unicode="B" horiz-adv-x="676" 
d="M636 188q0 -84 -69 -138q-64 -50 -225 -50h-324v19h25q43 0 62 28q11 17 11 75v445q0 65 -14 81q-19 22 -59 22h-25v18h297q290 0 290 -184q0 -52 -31 -91q-33 -42 -94 -61q156 -30 156 -164zM498 509q0 62 -47 102q-52 43 -145 43q-53 0 -92 -10v-265q30 -7 97 -7
q187 0 187 137zM519 180q0 71 -56 114t-159 43q-66 0 -90 -5v-282q62 -14 117 -14q89 0 140 41q48 38 48 103z" />
    <glyph glyph-name="ch67:1004+9038" unicode="C" horiz-adv-x="592" 
d="M427 177q-13 -84 -69 -138t-125 -54q-84 0 -141 68t-57 179q0 108 66 178q63 68 156 68q53 0 102 -28q56 -33 56 -83q0 -43 -48 -43q-51 0 -56 60.5t-71 60.5q-56 0 -89 -47.5t-33 -121.5q0 -87 39 -146q42 -64 112 -64q95 0 144 118zM585 643q0 -118 -132 -162v22
q85 50 85 105q0 31 -19 31q-4 0 -17.5 -4t-20.5 -4q-19 0 -35 15t-16 39q0 28 23 45q20 14 44 14q33 0 59 -27q29 -30 29 -74z" />
    <glyph glyph-name="ch68:7004+9038" unicode="D" horiz-adv-x="652" 
d="M399 703l-130 -174h-65l-131 174h36l127 -107l127 107h36zM427 177q-13 -84 -69 -138t-125 -54q-84 0 -139 67q-58 69 -59 180q-1 108 64 177t158 69q69 0 113.5 -36.5t44.5 -74.5q0 -43 -48 -43q-51 0 -56 60.5t-71 60.5q-56 0 -89 -47.5t-33 -121.5q0 -87 39 -146
q42 -64 112 -64q95 0 144 118zM615 643q0 -118 -132 -162v22q85 50 85 105q0 31 -19 31q-4 0 -17.5 -4t-20.5 -4q-19 0 -35 15t-16 39q0 28 23 45q20 14 44 14q33 0 59 -27q29 -30 29 -74z" />
    <glyph glyph-name="ch69:1021+1830" unicode="E" horiz-adv-x="1020" 
d="M522 -223h-237v19q47 0 61.5 14.5t14.5 69.5v201q-80 -96 -153 -96q-68 0 -119 60q-55 64 -55 167q0 116 68.5 191t171.5 75q64 0 96 -32q21 10 58 32h18v-598q0 -53 14 -68.5t62 -15.5v-19zM361 112v219q0 112 -103 112q-60 0 -97 -48q-41 -52 -41 -146q0 -92 42 -144
q39 -48 99 -48q51 0 100 55zM1043 677q-32 -5 -47 -36l-112 -241h-15l-84 179l-97 -179h-13l-108 235q-16 34 -54 42v11h141v-11q-19 -1 -25 -6q-12 -9 0 -36l72 -161l72 131l-19 42q-7 16 -23 25q-9 4 -30 5v11h159v-11q-28 -2 -37 -8q-5 -4 -7 -12q-2 -9 3 -16l76 -160
l70 154q8 18 8 26q0 16 -36 16v11h106v-11z" />
    <glyph glyph-name="ch70:1241+9038" unicode="F" horiz-adv-x="710" 
d="M403 578q0 -43 -23 -65q-16 -15 -33 -15q-15 0 -28 12t-13 32q0 11 16 41.5t16 45.5q0 25 -24 45q-28 22 -73 22q-54 0 -89 -42q-38 -44 -38 -118q0 -109 64 -164q44 -38 92 -38v-229q0 -52 13.5 -69t54.5 -17v-19h-228v19q49 0 62 17.5t13 68.5v220q-33 0 -88 56
q-67 66 -67 143q0 91 56 147q55 53 139 53t133 -44q45 -41 45 -102zM664 673q0 -118 -132 -162v22q85 50 85 105q0 31 -19 31q-4 0 -17.5 -4t-20.5 -4q-19 0 -35 15t-16 39q0 28 23 45q20 14 44 14q33 0 59 -27q29 -30 29 -74z" />
    <glyph glyph-name="G" unicode="G" horiz-adv-x="751" 
d="M736 357h-12q-40 0 -54 -27q-11 -16 -11 -74v-210q-107 -62 -242 -62q-175 0 -280 102q-101 97 -101 248q0 140 93 248q104 122 272 122q69 0 131 -22t63 -22q20 0 25 44h19l17 -217h-17q-61 182 -228 182q-121 0 -191 -90q-66 -85 -67 -223q-1 -147 74.5 -242t190.5 -95
q79 0 142 38v199q0 63 -16.5 81t-73.5 20v18h266v-18z" />
    <glyph glyph-name="H" unicode="H" horiz-adv-x="751" 
d="M730 0h-295v19h25q42 0 61 25q13 17 13 78v210h-321v-210q0 -64 13 -79q20 -24 62 -24h25v-19h-295v19h25q41 0 61 25q12 15 12 78v445q0 62 -14 80q-18 23 -59 23h-25v18h295v-18h-25q-39 0 -59 -22q-16 -18 -16 -81v-198h321v198q0 66 -15 81q-22 22 -59 22h-25v18h295
v-18h-25q-38 0 -59 -22q-11 -11 -13 -26q-2 -11 -2 -55v-445q0 -61 12 -78q18 -25 62 -25h25v-19z" />
    <glyph glyph-name="I" unicode="I" horiz-adv-x="346" 
d="M321 0h-295v19h25q41 0 61 25q12 15 12 78v445q0 64 -11 77q-21 26 -62 26h-25v18h295v-18h-25q-42 0 -61 -25q-13 -17 -13 -78v-445q0 -61 12 -79q6 -8 25 -16t37 -8h25v-19z" />
    <glyph glyph-name="ch74:1014+9038+1830" unicode="J" horiz-adv-x="1240" 
d="M526 0h-226v19q27 0 31 12q6 16 -18 46l-142 180v-152q0 -56 11 -69q14 -17 63 -17v-19h-238v19q50 0 63.5 14.5t13.5 68.5v423q0 78 -2.5 97t-11 26.5t-20.5 7.5q-13 0 -33 -8l-10 18l140 56h24v-454l117 99q48 41 48 56q0 23 -36 26v16h202v-16q-43 -2 -70 -13.5
t-60 -41.5l-122 -109l122 -152q55 -69 72 -85q10 -9 38 -25q7 -4 44 -4v-19zM639 673q0 -118 -132 -162v22q85 50 85 105q0 31 -19 31q-4 0 -17.5 -4t-20.5 -4q-19 0 -35 15t-16 39q0 28 23 45q20 14 44 14q33 0 59 -27q29 -30 29 -74zM1203 747q-32 -5 -47 -36l-112 -241
h-15l-84 179l-97 -179h-13l-108 235q-16 34 -54 42v11h141v-11q-19 -1 -25 -6q-12 -9 0 -36l72 -161l72 131l-19 42q-7 16 -23 25q-9 4 -30 5v11h159v-11q-28 -2 -37 -8q-5 -4 -7 -12q-2 -9 3 -16l76 -160l70 154q8 18 8 26q0 16 -36 16v11h106v-11z" />
    <glyph glyph-name="ch75:1014+9038" unicode="K" horiz-adv-x="730" 
d="M526 0h-226v19q27 0 31 12q6 16 -18 46l-142 180v-152q0 -56 11 -69q14 -17 63 -17v-19h-238v19q50 0 63.5 14.5t13.5 68.5v423q0 78 -2.5 97t-11 26.5t-20.5 7.5q-13 0 -33 -8l-10 18l140 56h24v-454l117 99q48 41 48 56q0 23 -36 26v16h202v-16q-43 -2 -70 -13.5
t-60 -41.5l-122 -109l122 -152q55 -69 72 -85q10 -9 38 -25q7 -4 44 -4v-19zM644 673q0 -118 -132 -162v22q85 50 85 105q0 31 -19 31q-4 0 -17.5 -4t-20.5 -4q-19 0 -35 15t-16 39q0 28 23 45q20 14 44 14q33 0 59 -27q29 -30 29 -74z" />
    <glyph glyph-name="ch76:1015+9038" unicode="L" horiz-adv-x="449" 
d="M267 0h-228v19q41 0 54.5 17t13.5 69v422q0 74 -3 97q-3 17 -11 25q-20 12 -54 -1l-9 18l140 56h22v-617q0 -51 13.5 -68.5t61.5 -17.5v-19zM443 673q0 -118 -132 -162v22q85 50 85 105q0 31 -19 31q-4 0 -17.5 -4t-20.5 -4q-19 0 -35 15t-16 39q0 28 23 45q20 14 44 14
q33 0 59 -27q29 -30 29 -74z" />
    <glyph glyph-name="ch77:1017+9038" unicode="M" horiz-adv-x="969" 
d="M805 0h-230v19q51 0 65 19q10 15 10 67v201q0 112 -77 112q-57 0 -120 -63v-250q0 -53 11 -68q13 -18 64 -18v-19h-236v19q54 0 68 21q8 13 8 65v201q0 113 -79 113q-59 0 -119 -64v-250q0 -57 14 -71.5t61 -14.5v-19h-230v19q44 0 57 15.5t13 70.5v178q0 79 -3 96
q-6 33 -32 33q-13 0 -35 -8l-8 18l141 56h22v-98q53 58 91 80q33 18 70 18q96 0 118 -98q50 57 88 79q34 19 75 19q123 0 123 -172v-201q0 -53 14 -69.5t56 -16.5v-19zM953 643q0 -118 -132 -162v22q85 50 85 105q0 31 -19 31q-4 0 -17.5 -4t-20.5 -4q-19 0 -35 15t-16 39
q0 28 23 45q20 14 44 14q33 0 59 -27q29 -30 29 -74z" />
    <glyph glyph-name="ch78:1018+9038" unicode="N" horiz-adv-x="670" 
d="M518 0h-233v19q51 0 63.5 15.5t12.5 70.5v190q0 64 -16.5 92.5t-56.5 28.5q-60 0 -120 -66v-245q0 -52 10 -66q14 -20 66 -20v-19h-231v19q44 0 57 16t13 70v173q0 114 -15 127q-17 14 -55 -1l-8 18l142 56h21v-97q82 97 156 97q122 0 122 -174v-199q0 -49 10 -65
q14 -21 62 -21v-19zM624 643q0 -118 -132 -162v22q85 50 85 105q0 31 -19 31q-4 0 -17.5 -4t-20.5 -4q-19 0 -35 15t-16 39q0 28 23 45q20 14 44 14q33 0 59 -27q29 -30 29 -74z" />
    <glyph glyph-name="1615" unicode="O" horiz-adv-x="337" 
d="M345 349q-41 -31 -52 -38q-36 -23 -71 -32v-174q0 -51 13.5 -68.5t61.5 -17.5v-19h-228v19q41 0 54.5 17t13.5 69v171q-58 8 -93 36q-38 30 -38 76q0 48 32 72q25 18 59 18q23 0 40 -14v63q0 74 -3 97q-3 17 -11 25q-20 12 -54 -1l-9 18l140 56h22v-412q37 10 109 62z
M137 306v106q-10 36 -46 36q-50 0 -50 -53q0 -75 96 -89z" />
    <glyph glyph-name="ch80:1020+9038" unicode="P" horiz-adv-x="770" 
d="M485 250q0 -112 -59 -187q-60 -78 -154 -78q-64 0 -111 42v-141q0 -57 12 -71q13 -17 67 -19v-19h-246v19q56 2 68.5 17.5t12.5 74.5v440q0 42 -2 53q-3 15 -15 23q-18 13 -55 -2l-6 17l145 58h19v-109q64 110 150 110q76 0 125 -65t49 -163zM404 202q0 107 -40 163
q-35 51 -94 51q-27 0 -54 -22q-15 -12 -55 -56v-174q0 -54 5 -74q7 -30 34.5 -52t69.5 -22q60 0 97 50.5t37 135.5zM674 643q0 -118 -132 -162v22q85 50 85 105q0 31 -19 31q-4 0 -17.5 -4t-20.5 -4q-19 0 -35 15t-16 39q0 28 23 45q20 14 44 14q33 0 59 -27q29 -30 29 -74z
" />
    <glyph glyph-name="ch81:1021+9038" unicode="Q" horiz-adv-x="730" 
d="M522 -223h-237v19q47 0 61.5 14.5t14.5 69.5v201q-80 -96 -153 -96q-68 0 -119 60q-55 64 -55 167q0 116 68.5 191t171.5 75q64 0 96 -32q21 10 58 32h18v-598q0 -53 14 -68.5t62 -15.5v-19zM361 112v219q0 112 -103 112q-60 0 -97 -48q-41 -52 -41 -146q0 -92 42 -144
q39 -48 99 -48q51 0 100 55zM714 663q0 -118 -132 -162v22q85 50 85 105q0 31 -19 31q-4 0 -17.5 -4t-20.5 -4q-19 0 -35 15t-16 39q0 28 23 45q20 14 44 14q33 0 59 -27q29 -30 29 -74z" />
    <glyph glyph-name="ch82:1022+9038" unicode="R" horiz-adv-x="596" 
d="M354 422q0 -18 -13.5 -32.5t-32.5 -14.5q-18 0 -40 18t-32 18q-26 0 -68 -79v-224q0 -46 16 -66q19 -23 66 -23v-19h-241v19q46 0 60 14.5t14 71.5v180q0 102 -15 120q-25 13 -59 -1l-5 18l144 56h20v-104q58 104 120 104q28 0 47 -16t19 -40zM597 633q0 -118 -132 -162
v22q85 50 85 105q0 31 -19 31q-4 0 -17.5 -4t-20.5 -4q-19 0 -35 15t-16 39q0 28 23 45q20 14 44 14q33 0 59 -27q29 -30 29 -74z" />
    <glyph glyph-name="7023" unicode="S" horiz-adv-x="405" 
d="M369 703l-130 -174h-65l-131 174h36l127 -107l127 107h36zM368 117q0 -53 -46.5 -92.5t-108.5 -39.5q-29 0 -70 14q-46 16 -55 17q-8 0 -18 -23h-17v166h17q13 -68 54 -107q38 -36 89 -36q36 0 57.5 20t22.5 49q1 36 -22 61t-95.5 62.5t-98.5 69.5t-26 76q0 54 40 89
t111 35q24 0 60 -9t41 -9q14 0 23 18h17v-158h-17q-31 129 -126 129q-88 0 -90 -61t76 -97l75 -35q107 -50 107 -139z" />
    <glyph glyph-name="ch84:1026+9038" unicode="T" horiz-adv-x="499" 
d="M290 85q-15 -48 -51 -76q-31 -24 -65 -24q-92 0 -92 123v322h-74v16q40 15 86 69q27 32 58 103h15v-153h109v-35h-109v-310q0 -75 46 -77q38 -1 57 42h20zM488 643q0 -118 -132 -162v22q85 50 85 105q0 31 -19 31q-4 0 -17.5 -4t-20.5 -4q-19 0 -35 15t-16 39q0 28 23 45
q20 14 44 14q33 0 59 -27q29 -30 29 -74z" />
    <glyph glyph-name="U" unicode="U" horiz-adv-x="751" 
d="M740 670h-26q-39 0 -62 -35q-11 -14 -11 -72v-280q0 -161 -60 -223q-39 -40 -83 -58q-49 -18 -123 -18q-183 0 -241 116q-29 58 -29 197v270q0 53 -11 74q-16 29 -63 29h-16v18h278v-18h-26q-34 0 -51 -27q-13 -20 -13 -76v-301q0 -102 24 -153q40 -86 155 -86
q99 0 165 62q48 45 48 199v279q0 65 -14 81q-19 22 -59 22h-26v18h244v-18z" />
    <glyph glyph-name="ch86:1241+9038+1830" unicode="V" horiz-adv-x="1170" 
d="M403 578q0 -43 -23 -65q-16 -15 -33 -15q-15 0 -28 12t-13 32q0 11 16 41.5t16 45.5q0 25 -24 45q-28 22 -73 22q-54 0 -89 -42q-38 -44 -38 -118q0 -109 64 -164q44 -38 92 -38v-229q0 -52 13.5 -69t54.5 -17v-19h-228v19q49 0 62 17.5t13 68.5v220q-33 0 -88 56
q-67 66 -67 143q0 91 56 147q55 53 139 53t133 -44q45 -41 45 -102zM654 673q0 -118 -132 -162v22q85 50 85 105q0 31 -19 31q-4 0 -17.5 -4t-20.5 -4q-19 0 -35 15t-16 39q0 28 23 45q20 14 44 14q33 0 59 -27q29 -30 29 -74zM1198 747q-32 -5 -47 -36l-112 -241h-15
l-84 179l-97 -179h-13l-108 235q-16 34 -54 42v11h141v-11q-19 -1 -25 -6q-12 -9 0 -36l72 -161l72 131l-19 42q-7 16 -23 25q-9 4 -30 5v11h159v-11q-28 -2 -37 -8q-5 -4 -7 -12q-2 -9 3 -16l76 -160l70 154q8 18 8 26q0 16 -36 16v11h106v-11z" />
    <glyph glyph-name="ch87:1030+9038" unicode="W" horiz-adv-x="991" 
d="M742 446q-46 -6 -66 -59l-155 -402h-21l-116 298l-135 -298h-19l-150 391q-14 37 -27.5 50.5t-46.5 19.5v19h196v-19q-27 -1 -35.5 -9t-8.5 -23t8 -38l100 -267l100 218l-26 69q-11 29 -32 42q-11 7 -42 8v19h222v-19q-39 -2 -51 -11.5t-12 -29.5q0 -10 5 -18l106 -267
l97 256q11 29 11 44q0 26 -49 26v19h147v-19zM974 643q0 -118 -132 -162v22q85 50 85 105q0 31 -19 31q-4 0 -17.5 -4t-20.5 -4q-19 0 -35 15t-16 39q0 28 23 45q20 14 44 14q33 0 59 -27q29 -30 29 -74z" />
    <glyph glyph-name="X" unicode="X" horiz-adv-x="751" 
d="M738 0h-295v19q48 0 61 19q8 11 8 20q0 16 -34 68l-116 177l-145 -185q-31 -40 -31 -60q0 -37 66 -39v-19h-245v19q82 3 170 114l163 206l-136 199q-52 75 -92 104q-37 25 -90 28v18h318v-18q-39 -1 -55 -13.5t-16 -26.5q0 -18 24 -54l106 -158l122 155q32 40 32 60
q0 10 -6 17q-14 19 -69 20v18h245v-18q-52 -3 -86 -30q-23 -19 -75 -84l-138 -174l148 -221q60 -89 90 -114t76 -28v-19z" />
    <glyph glyph-name="ch89:1033+9038" unicode="Y" horiz-adv-x="740" 
d="M514 446q-24 -2 -36 -13q-15 -14 -33 -57l-189 -464q-26 -64 -69 -100.5t-88 -36.5q-30 0 -49.5 17t-19.5 41q0 46 52 46q13 0 41 -9t30 -9q39 0 70 77l33 81l-167 350q-15 32 -27 46q-24 28 -56 31v19h217v-19h-11q-46 0 -46 -34q0 -20 17 -55l113 -234l104 257
q19 37 6 55q-8 11 -43 11v19h151v-19zM719 643q0 -118 -132 -162v22q85 50 85 105q0 31 -19 31q-4 0 -17.5 -4t-20.5 -4q-19 0 -35 15t-16 39q0 28 23 45q20 14 44 14q33 0 59 -27q29 -30 29 -74z" />
    <glyph glyph-name="ch90:1032+6813+1830" unicode="Z" horiz-adv-x="930" 
d="M508 0h-220v19q46 0 46 29q0 9 -5 16l-96 142l-101 -135q-8 -10 -8 -22q0 -28 46 -30v-19h-152v19q20 1 38.5 18t57.5 69l98 130l-88 128q-37 53 -58 68q-17 12 -52 14v19h219v-19q-39 2 -39 -25q0 -7 3 -12l66 -104l69 100q6 8 6 17q0 24 -37 24v19h157v-19
q-31 -1 -53 -19t-59 -69l-63 -86l116 -166q30 -43 61 -74q11 -11 48 -13v-19zM312 -112q0 -67 -67 -67q-31 0 -49.5 18.5t-18.5 48.5q0 31 18.5 49.5t49.5 18.5q67 0 67 -68zM918 747q-32 -5 -47 -36l-112 -241h-15l-84 179l-97 -179h-13l-108 235q-16 34 -54 42v11h141v-11
q-19 -1 -25 -6q-12 -9 0 -36l72 -161l72 131l-19 42q-7 16 -23 25q-9 4 -30 5v11h159v-11q-28 -2 -37 -8q-5 -4 -7 -12q-2 -9 3 -16l76 -160l70 154q8 18 8 26q0 16 -36 16v11h106v-11z" />
    <glyph glyph-name="bracketleft" unicode="[" horiz-adv-x="346" 
d="M308 -206h-224v910h224v-39h-148v-831h148v-40z" />
    <glyph glyph-name="backslash" unicode="\" horiz-adv-x="289" 
d="M293 -15h-42l-250 737h44z" />
    <glyph glyph-name="bracketright" unicode="]" horiz-adv-x="346" 
d="M262 -207h-223v41h147v831h-147v39h223v-911z" />
    <glyph glyph-name="asciicircum" unicode="^" horiz-adv-x="1000" 
d="M761 10h-62l-199 536l-199 -536h-62l230 600h62z" />
    <glyph glyph-name="underscore" unicode="_" horiz-adv-x="500" 
d="M500 -117h-500v37h500v-37zM0 760z" />
    <glyph glyph-name="grave" unicode="`" horiz-adv-x="390" 
d="M237 529h-42l-150 95q-45 28 -45 45q0 39 32 39q27 0 61 -34z" />
    <glyph glyph-name="a" unicode="a" horiz-adv-x="462" 
d="M461 67q-57 -76 -111 -76t-54 76q-64 -50 -86 -62q-27 -14 -62 -14q-50 0 -80.5 32.5t-30.5 86.5q0 57 47 96q57 49 212 102v19q0 65 -21 93t-66 28q-31 0 -49.5 -16t-20.5 -41l1 -30q2 -48 -42 -48q-43 0 -43 49q0 53 52 85q48 31 118 31q94 0 129 -43q27 -33 27 -115
v-159q0 -60 3 -81q4 -25 22 -25q14 0 55 41v-29zM296 100v178q-108 -42 -145 -78q-28 -27 -28 -66q0 -36 20.5 -60t50.5 -25q38 -1 102 51z" />
    <glyph glyph-name="b" unicode="b" 
d="M484 251q0 -113 -71 -189.5t-169 -76.5q-81 0 -169 60v481q0 74 -3 97q-3 18 -13 26q-14 12 -56 -1l-7 18l140 56h24v-337q68 93 146 93q74 0 125 -60q53 -64 53 -167zM396 222q0 85 -38 135t-93 50q-48 0 -105 -54v-279q51 -51 110 -51q49 0 86 50q40 56 40 149z" />
    <glyph glyph-name="c" unicode="c" horiz-adv-x="462" 
d="M427 177q-13 -84 -69 -138t-125 -54q-84 0 -141 68t-57 179q0 108 66 178q63 68 156 68q53 0 102 -28q56 -33 56 -83q0 -43 -48 -43q-51 0 -56 60.5t-71 60.5q-56 0 -89 -47.5t-33 -121.5q0 -87 39 -146q42 -64 112 -64q95 0 144 118z" />
    <glyph glyph-name="7004" unicode="d" horiz-adv-x="462" 
d="M399 703l-130 -174h-65l-131 174h36l127 -107l127 107h36zM427 177q-13 -84 -69 -138t-125 -54q-84 0 -139 67q-58 69 -59 180q-1 108 64 177t158 69q69 0 113.5 -36.5t44.5 -74.5q0 -43 -48 -43q-51 0 -56 60.5t-71 60.5q-56 0 -89 -47.5t-33 -121.5q0 -87 39 -146
q42 -64 112 -64q95 0 144 118z" />
    <glyph glyph-name="e" unicode="e" horiz-adv-x="462" 
d="M432 170q-11 -74 -61 -127q-54 -58 -130 -58q-85 0 -144 67t-59 175q0 117 60 184.5t156 67.5q78 0 128 -51t50 -138h-322q0 -100 51 -162q48 -58 119 -59q93 -1 136 111zM326 319q0 67 -38 100q-27 24 -63 24q-43 0 -76 -33t-39 -91h216z" />
    <glyph glyph-name="1241" unicode="f" horiz-adv-x="440" 
d="M403 578q0 -43 -23 -65q-16 -15 -33 -15q-15 0 -28 12t-13 32q0 11 16 41.5t16 45.5q0 25 -24 45q-28 22 -73 22q-54 0 -89 -42q-38 -44 -38 -118q0 -109 64 -164q44 -38 92 -38v-229q0 -52 13.5 -69t54.5 -17v-19h-228v19q49 0 62 17.5t13 68.5v220q-33 0 -88 56
q-67 66 -67 143q0 91 56 147q55 53 139 53t133 -44q45 -41 45 -102z" />
    <glyph glyph-name="ch103:7033+9038" unicode="g" horiz-adv-x="820" 
d="M595 108q0 -58 -22.5 -90.5t-62.5 -32.5q-59 0 -123 157l-99 241l-186 -383h-87l233 478l-9 23h-129v52h107q-38 78 -100 80q-57 1 -57 -78h-24q-2 11 -2 46q0 57 22.5 89.5t62.5 32.5q38 0 62 -26q32 -35 70 -136l3 -8h150v-52h-128l131 -312q23 -54 37 -74
q27 -37 67 -40q57 -4 57 80h24q3 -24 3 -47zM729 643q0 -118 -132 -162v22q85 50 85 105q0 31 -19 31q-4 0 -17.5 -4t-20.5 -4q-19 0 -35 15t-16 39q0 28 23 45q20 14 44 14q33 0 59 -27q29 -30 29 -74z" />
    <glyph glyph-name="h" unicode="h" 
d="M515 0h-230v19q45 0 60 14.5t15 61.5v174q0 72 -7 97q-15 51 -68 51q-57 0 -115 -67v-255q0 -47 11 -60q14 -16 63 -16v-19h-230v19q45 0 59 18q12 15 12 58v491q0 70 -34 70q-18 0 -37 -8l-8 18l140 56h24v-340q64 96 154 96q78 0 105 -70q16 -43 16 -139v-174
q0 -45 11 -58q13 -18 59 -18v-19z" />
    <glyph glyph-name="i" unicode="i" horiz-adv-x="289" 
d="M204 623q0 -22 -14.5 -37t-36.5 -15t-37 15t-15 37t15.5 36.5t36.5 14.5t36 -15t15 -36zM266 0h-227v19q44 0 57.5 14.5t13.5 61.5v249q0 68 -35 68q-13 0 -36 -8l-7 18l141 56h22v-383q0 -47 13.5 -61.5t57.5 -14.5v-19z" />
    <glyph glyph-name="ch106:1014+1830" unicode="j" horiz-adv-x="920" 
d="M526 0h-226v19q27 0 31 12q6 16 -18 46l-142 180v-152q0 -56 11 -69q14 -17 63 -17v-19h-238v19q50 0 63.5 14.5t13.5 68.5v423q0 78 -2.5 97t-11 26.5t-20.5 7.5q-13 0 -33 -8l-10 18l140 56h24v-454l117 99q48 41 48 56q0 23 -36 26v16h202v-16q-43 -2 -70 -13.5
t-60 -41.5l-122 -109l122 -152q55 -69 72 -85q10 -9 38 -25q7 -4 44 -4v-19zM943 747q-32 -5 -47 -36l-112 -241h-15l-84 179l-97 -179h-13l-108 235q-16 34 -54 42v11h141v-11q-19 -1 -25 -6q-12 -9 0 -36l72 -161l72 131l-19 42q-7 16 -23 25q-9 4 -30 5v11h159v-11
q-28 -2 -37 -8q-5 -4 -7 -12q-2 -9 3 -16l76 -160l70 154q8 18 8 26q0 16 -36 16v11h106v-11z" />
    <glyph glyph-name="k" unicode="k" 
d="M526 0h-226v19q27 0 31 12q6 16 -18 46l-142 180v-152q0 -56 11 -69q14 -17 63 -17v-19h-238v19q50 0 63.5 14.5t13.5 68.5v423q0 78 -2.5 97t-11 26.5t-20.5 7.5q-13 0 -33 -8l-10 18l140 56h24v-454l117 99q48 41 48 56q0 23 -36 26v16h202v-16q-43 -2 -70 -13.5
t-60 -41.5l-122 -109l122 -152q55 -69 72 -85q10 -9 38 -25q7 -4 44 -4v-19z" />
    <glyph glyph-name="l" unicode="l" horiz-adv-x="289" 
d="M267 0h-228v19q41 0 54.5 17t13.5 69v422q0 74 -3 97q-3 17 -11 25q-20 12 -54 -1l-9 18l140 56h22v-617q0 -51 13.5 -68.5t61.5 -17.5v-19z" />
    <glyph glyph-name="m" unicode="m" horiz-adv-x="809" 
d="M805 0h-230v19q51 0 65 19q10 15 10 67v201q0 112 -77 112q-57 0 -120 -63v-250q0 -53 11 -68q13 -18 64 -18v-19h-236v19q54 0 68 21q8 13 8 65v201q0 113 -79 113q-59 0 -119 -64v-250q0 -57 14 -71.5t61 -14.5v-19h-230v19q44 0 57 15.5t13 70.5v178q0 79 -3 96
q-6 33 -32 33q-13 0 -35 -8l-8 18l141 56h22v-98q53 58 91 80q33 18 70 18q96 0 118 -98q50 57 88 79q34 19 75 19q123 0 123 -172v-201q0 -53 14 -69.5t56 -16.5v-19z" />
    <glyph glyph-name="n" unicode="n" 
d="M518 0h-233v19q51 0 63.5 15.5t12.5 70.5v190q0 64 -16.5 92.5t-56.5 28.5q-60 0 -120 -66v-245q0 -52 10 -66q14 -20 66 -20v-19h-231v19q44 0 57 16t13 70v173q0 114 -15 127q-17 14 -55 -1l-8 18l142 56h21v-97q82 97 156 97q122 0 122 -174v-199q0 -49 10 -65
q14 -21 62 -21v-19z" />
    <glyph glyph-name="o" unicode="o" 
d="M484 241q0 -99 -57 -173q-65 -83 -172 -83q-95 0 -157.5 72t-62.5 171t60 172q65 78 165 78q98 0 161 -68t63 -169zM389 202q0 106 -39.5 175t-105.5 69q-47 0 -77 -37q-38 -47 -38 -139q0 -103 40 -174q42 -74 107 -74q113 0 113 180z" />
    <glyph glyph-name="p" unicode="p" 
d="M485 250q0 -112 -59 -187q-60 -78 -154 -78q-64 0 -111 42v-141q0 -57 12 -71q13 -17 67 -19v-19h-246v19q56 2 68.5 17.5t12.5 74.5v440q0 42 -2 53q-3 15 -15 23q-18 13 -55 -2l-6 17l145 58h19v-109q64 110 150 110q76 0 125 -65t49 -163zM404 202q0 107 -40 163
q-35 51 -94 51q-27 0 -54 -22q-15 -12 -55 -56v-174q0 -54 5 -74q7 -30 34.5 -52t69.5 -22q60 0 97 50.5t37 135.5z" />
    <glyph glyph-name="q" unicode="q" 
d="M522 -223h-237v19q47 0 61.5 14.5t14.5 69.5v201q-80 -96 -153 -96q-68 0 -119 60q-55 64 -55 167q0 116 68.5 191t171.5 75q64 0 96 -32q21 10 58 32h18v-598q0 -53 14 -68.5t62 -15.5v-19zM361 112v219q0 112 -103 112q-60 0 -97 -48q-41 -52 -41 -146q0 -92 42 -144
q39 -48 99 -48q51 0 100 55z" />
    <glyph glyph-name="r" unicode="r" horiz-adv-x="356" 
d="M354 422q0 -18 -13.5 -32.5t-32.5 -14.5q-18 0 -40 18t-32 18q-26 0 -68 -79v-224q0 -46 16 -66q19 -23 66 -23v-19h-241v19q46 0 60 14.5t14 71.5v180q0 102 -15 120q-25 13 -59 -1l-5 18l144 56h20v-104q58 104 120 104q28 0 47 -16t19 -40z" />
    <glyph glyph-name="s" unicode="s" horiz-adv-x="405" 
d="M368 117q0 -53 -46.5 -92.5t-108.5 -39.5q-29 0 -70 14q-46 16 -55 17q-8 0 -18 -23h-17v166h17q13 -68 54 -107q38 -36 89 -36q36 0 57.5 20t22.5 49q1 36 -22 61t-95.5 62.5t-98.5 69.5t-26 76q0 54 40 89t111 35q24 0 60 -9t41 -9q14 0 23 18h17v-158h-17
q-31 129 -126 129q-88 0 -90 -61t76 -97l75 -35q107 -50 107 -139z" />
    <glyph glyph-name="t" unicode="t" horiz-adv-x="289" 
d="M290 85q-15 -48 -51 -76q-31 -24 -65 -24q-92 0 -92 123v322h-74v16q40 15 86 69q27 32 58 103h15v-153h109v-35h-109v-310q0 -75 46 -77q38 -1 57 42h20z" />
    <glyph glyph-name="u" unicode="u" 
d="M521 43l-141 -58h-23v99q-56 -59 -89.5 -79t-68.5 -20q-120 0 -120 181v208q0 44 -16.5 58t-62.5 14v19h164v-311q0 -106 77 -106q50 0 116 66v264q0 40 -18 55q-15 12 -57 13v19h160v-342q0 -70 31 -70q22 0 41 8z" />
    <glyph glyph-name="ch118:1241+1830" unicode="v" horiz-adv-x="930" 
d="M403 578q0 -43 -23 -65q-16 -15 -33 -15q-15 0 -28 12t-13 32q0 11 16 41.5t16 45.5q0 25 -24 45q-28 22 -73 22q-54 0 -89 -42q-38 -44 -38 -118q0 -109 64 -164q44 -38 92 -38v-229q0 -52 13.5 -69t54.5 -17v-19h-228v19q49 0 62 17.5t13 68.5v220q-33 0 -88 56
q-67 66 -67 143q0 91 56 147q55 53 139 53t133 -44q45 -41 45 -102zM918 747q-32 -5 -47 -36l-112 -241h-15l-84 179l-97 -179h-13l-108 235q-16 34 -54 42v11h141v-11q-19 -1 -25 -6q-12 -9 0 -36l72 -161l72 131l-19 42q-7 16 -23 25q-9 4 -30 5v11h159v-11q-28 -2 -37 -8
q-5 -4 -7 -12q-2 -9 3 -16l76 -160l70 154q8 18 8 26q0 16 -36 16v11h106v-11z" />
    <glyph glyph-name="w" unicode="w" horiz-adv-x="751" 
d="M742 446q-46 -6 -66 -59l-155 -402h-21l-116 298l-135 -298h-19l-150 391q-14 37 -27.5 50.5t-46.5 19.5v19h196v-19q-27 -1 -35.5 -9t-8.5 -23t8 -38l100 -267l100 218l-26 69q-11 29 -32 42q-11 7 -42 8v19h222v-19q-39 -2 -51 -11.5t-12 -29.5q0 -10 5 -18l106 -267
l97 256q11 29 11 44q0 26 -49 26v19h147v-19z" />
    <glyph glyph-name="ch120:1032+6813" unicode="x" 
d="M508 0h-220v19q46 0 46 29q0 9 -5 16l-96 142l-101 -135q-8 -10 -8 -22q0 -28 46 -30v-19h-152v19q20 1 38.5 18t57.5 69l98 130l-88 128q-37 53 -58 68q-17 12 -52 14v19h219v-19q-39 2 -39 -25q0 -7 3 -12l66 -104l69 100q6 8 6 17q0 24 -37 24v19h157v-19
q-31 -1 -53 -19t-59 -69l-63 -86l116 -166q30 -43 61 -74q11 -11 48 -13v-19zM327 -112q0 -67 -67 -67q-31 0 -49.5 18.5t-18.5 48.5q0 31 18.5 49.5t49.5 18.5q67 0 67 -68z" />
    <glyph glyph-name="y" unicode="y" 
d="M514 446q-24 -2 -36 -13q-15 -14 -33 -57l-189 -464q-26 -64 -69 -100.5t-88 -36.5q-30 0 -49.5 17t-19.5 41q0 46 52 46q13 0 41 -9t30 -9q39 0 70 77l33 81l-167 350q-15 32 -27 46q-24 28 -56 31v19h217v-19h-11q-46 0 -46 -34q0 -20 17 -55l113 -234l104 257
q19 37 6 55q-8 11 -43 11v19h151v-19z" />
    <glyph glyph-name="ch122:1032+1830" unicode="z" horiz-adv-x="930" 
d="M508 0h-220v19q46 0 46 29q0 9 -5 16l-96 142l-101 -135q-8 -10 -8 -22q0 -28 46 -30v-19h-152v19q20 1 38.5 18t57.5 69l98 130l-88 128q-37 53 -58 68q-17 12 -52 14v19h219v-19q-39 2 -39 -25q0 -7 3 -12l66 -104l69 100q6 8 6 17q0 24 -37 24v19h157v-19
q-31 -1 -53 -19t-59 -69l-63 -86l116 -166q30 -43 61 -74q11 -11 48 -13v-19zM918 747q-32 -5 -47 -36l-112 -241h-15l-84 179l-97 -179h-13l-108 235q-16 34 -54 42v11h141v-11q-19 -1 -25 -6q-12 -9 0 -36l72 -161l72 131l-19 42q-7 16 -23 25q-9 4 -30 5v11h159v-11
q-28 -2 -37 -8q-5 -4 -7 -12q-2 -9 3 -16l76 -160l70 154q8 18 8 26q0 16 -36 16v11h106v-11z" />
    <glyph glyph-name="braceleft" unicode="{" horiz-adv-x="497" 
d="M393 -224q-75 8 -132 64.5t-57 130.5q0 28 11.5 80.5t11.5 73.5q0 45 -40 77q-34 29 -76 34v26q42 5 76 33q40 32 40 76q0 22 -11.5 77.5t-11.5 85.5q0 71 59 127q57 53 130 61v-18q-113 -28 -113 -134q0 -24 11 -70.5t11 -70.5q0 -129 -139 -180q139 -51 139 -182
q0 -24 -11 -69.5t-11 -69.5q0 -106 113 -134v-18z" />
    <glyph glyph-name="bar" unicode="|" horiz-adv-x="208" 
d="M125 -225h-43v947h43v-947z" />
    <glyph glyph-name="braceright" unicode="}" horiz-adv-x="497" 
d="M386 236q-42 -5 -76 -34q-40 -32 -40 -77q0 -21 11.5 -73.5t11.5 -80.5q0 -74 -57 -130.5t-132 -64.5v18q113 28 113 134q0 24 -11 69.5t-11 69.5q0 131 139 182q-139 51 -139 180q0 24 11 70.5t11 70.5q0 106 -113 134v18q73 -8 130 -61q59 -56 59 -127
q0 -30 -11.5 -85.5t-11.5 -77.5q0 -44 40 -76q34 -28 76 -33v-26z" />
    <glyph glyph-name="asciitilde" unicode="~" horiz-adv-x="566" 
d="M546 320q-59 -111 -143 -111q-41 0 -124.5 37.5t-119.5 37.5q-37 0 -67 -32q-16 -17 -44 -64l-28 37q31 57 56 82q39 38 88 38q38 0 128 -38.5t116 -38.5q64 0 109 90z" />
    <glyph glyph-name="nonbreakingspace" unicode="&#xa0;" horiz-adv-x="300" 
 />
    <glyph glyph-name="exclamdown" unicode="&#xa1;" horiz-adv-x="346" 
d="M230 437q0 -25 -17.5 -40t-39.5 -15q-21 0 -38.5 15.5t-17.5 39.5t16.5 41t39.5 17q21 0 37 -14q20 -16 20 -44zM231 -153q0 -33 -16.5 -52t-42.5 -19q-22 0 -38 17q-19 21 -19 59q0 16 2 34l46 412h20l44 -412q4 -37 4 -39z" />
    <glyph glyph-name="cent" unicode="&#xa2;" 
d="M456 177q-13 -84 -69 -138t-125 -54q-38 0 -71 15q-19 -53 -69 -192h-36l76 208q-98 68 -98 216q0 108 66 178q63 68 156 68q25 0 42 -4l72 199h36l-75 -208q32 -14 55 -39q28 -29 28 -59q0 -43 -48 -43q-52 0 -56 60q-1 10 -3 16l-113 -311q35 -23 74 -23q95 0 144 118z
M313 434q-17 11 -44 11q-56 0 -89 -47.5t-33 -121.5q0 -102 50 -161q77 206 116 319z" />
    <glyph glyph-name="sterling" unicode="&#xa3;" 
d="M496 154q-8 -66 -43 -112q-40 -54 -103 -54q-43 0 -79 21q-13 7 -86 61q-39 -82 -95 -82q-59 0 -59 65q0 43 31 64q22 15 52 15q25 0 43 -4q5 48 -9 207h-98v48h98q-1 24 -5 63q-2 29 -2 38q0 105 62 166q54 53 127 53q56 0 92 -31.5t36 -72.5q0 -15 -12 -28.5t-27 -13.5
q-40 0 -40 59t-62 59q-92 0 -92 -143q0 -28 11 -149h131v-48h-131q0 -67 -1 -79q-5 -73 -30 -137q126 -42 165 -42q84 0 107 82zM152 87q-20 14 -44 14q-48 0 -48 -44q0 -39 34 -39q40 0 58 69z" />
    <glyph glyph-name="currency" unicode="&#xa4;" horiz-adv-x="600" 
d="M570 196l-36 -36l-103 103q-55 -47 -129 -47q-79 0 -133 47l-103 -103l-36 36l103 103q-44 55 -44 128q0 82 46 132l-105 105l36 36l105 -105q55 44 131 44q73 0 126 -45l106 106l36 -36l-104 -104q45 -56 45 -132t-44 -129zM454 428q0 63 -44.5 108.5t-107.5 45.5
q-65 0 -110.5 -45t-45.5 -110q0 -64 45.5 -109t110.5 -45q63 0 107.5 46t44.5 109z" />
    <glyph glyph-name="yen" unicode="&#xa5;" 
d="M510 179h-207v-55q0 -68 13 -83q17 -20 53 -20h21v-21h-262v21h17q42 0 61 21q10 11 10 82v55h-206v37h206v73l-7 18h-199v37h182l-108 252q-20 46 -36 58.5t-47 15.5v18h225v-18q-34 -3 -48.5 -12t-14.5 -20q0 -4 11 -30l108 -264l108 256q10 24 10 38t-10 21
q-14 9 -46 11v18h176v-18q-30 0 -45 -13q-22 -19 -43 -66l-110 -247h188v-37h-203l-4 -9v-82h207v-37z" />
    <glyph glyph-name="brokenbar" unicode="&#xa6;" horiz-adv-x="315" 
d="M183 336h-51v400h51v-400zM183 -198h-51v400h51v-400z" />
    <glyph glyph-name="section" unicode="&#xa7;" 
d="M441 244q0 -104 -112 -173q62 -67 62 -129q0 -64 -42.5 -104.5t-102.5 -40.5q-48 0 -84 29q-42 33 -42 85q0 21 12 33t27 12q17 0 28 -13t11 -31q0 -7 -4.5 -28t-4.5 -28q0 -18 19 -28.5t42 -10.5q34 0 61.5 26.5t27.5 56.5q0 66 -104 143q-79 58 -114 103
q-42 54 -42 110q0 104 112 172q-63 75 -63 132q0 67 52 109q43 34 92 34q52 0 90.5 -31t38.5 -81q0 -46 -40 -46q-17 0 -28.5 12.5t-11.5 26.5q0 4 3.5 22t3.5 27q0 48 -56 48q-40 0 -64 -26t-24 -62q0 -40 27 -73q17 -21 64 -56q79 -60 108 -92q58 -63 58 -128zM281 353
q-37 29 -73 59q-78 -46 -78 -113q0 -32 20 -65q23 -39 83 -84q69 -53 79 -65q77 49 77 113q0 33 -22 67.5t-86 87.5z" />
    <glyph glyph-name="dieresis" unicode="&#xa8;" horiz-adv-x="311" 
d="M311 623q0 -21 -15.5 -36.5t-36.5 -15.5t-36.5 16t-15.5 36t16.5 36t35.5 16q21 0 36.5 -15.5t15.5 -36.5zM103 623q0 -21 -15.5 -36.5t-36.5 -15.5q-20 0 -35.5 16t-15.5 36t16 36t35 16q21 0 36.5 -15.5t15.5 -36.5z" />
    <glyph glyph-name="copyright" unicode="&#xa9;" horiz-adv-x="790" 
d="M756 344q0 -151 -105.5 -255.5t-255.5 -104.5t-255 103.5t-105 256.5q0 161 113 264q105 96 247 96q152 0 256.5 -104t104.5 -256zM724 344q0 138 -96.5 233.5t-232.5 95.5q-128 0 -224 -88q-104 -96 -104 -241q0 -140 98 -235q95 -93 230 -93q134 0 230 92q99 96 99 236
zM592 218q-72 -103 -195 -103q-97 0 -166 64t-69 162q0 108 77 174q72 61 176 61q38 0 73.5 -11.5t39.5 -11.5q15 0 25 23h20l10 -142h-19q-40 119 -154 119q-77 0 -120.5 -53.5t-43.5 -143.5q0 -103 47 -157q44 -52 122 -52q100 0 158 82z" />
    <glyph glyph-name="ordfeminine" unicode="&#xaa;" horiz-adv-x="331" 
d="M330 449q-40 -45 -79 -45t-39 45q-42 -27 -50 -31q-28 -14 -56 -14q-36 0 -58 19.5t-22 51.5q0 34 33 58q41 29 153 61v11q0 73 -63 73q-46 0 -50 -34l1 -18q2 -29 -30 -29q-31 0 -31 29q0 32 36 51t86 19q68 0 92 -26q20 -20 20 -69v-95q0 -43 2 -49q1 -15 16 -15
q11 0 39 25v-18zM324 332h-294v22h294v-22zM212 469v107q-78 -25 -104 -47q-20 -16 -20 -40q0 -21 15 -35.5t36 -15.5q25 -1 73 31z" />
    <glyph glyph-name="guillemotleft" unicode="&#xab;" 
d="M487 -4h-29l-200 240l200 238h29l-124 -238zM257 -4h-28l-197 240l197 238h28l-124 -238z" />
    <glyph glyph-name="logicalnot" unicode="&#xac;" horiz-adv-x="620" 
d="M580 189h-60v171h-480v60h540v-231z" />
    <glyph glyph-name="minus" unicode="&#xad;" horiz-adv-x="1000" 
d="M800 269h-600v62h600v-62zM0 760z" />
    <glyph glyph-name="registered" unicode="&#xae;" horiz-adv-x="790" 
d="M756 344q0 -151 -105.5 -255.5t-255.5 -104.5t-255 103.5t-105 256.5q0 161 113 264q105 96 247 96q152 0 256.5 -104t104.5 -256zM724 344q0 138 -96.5 233.5t-232.5 95.5q-128 0 -224 -88q-104 -96 -104 -241q0 -140 98 -235q95 -93 230 -93q134 0 230 92q99 96 99 236
zM598 127h-94l-149 205h-39v-157q0 -13 15 -24q10 -7 45 -7v-17h-186v17q34 0 44 13q8 10 8 56v265q0 41 -1 45q-7 24 -45 24v19h196q70 0 112 -34q39 -31 39 -80q0 -85 -112 -113l105 -151q29 -41 62 -44v-17zM462 446q0 40 -27 68q-30 29 -76 29q-21 0 -43 -7v-182
q146 0 146 92z" />
    <glyph glyph-name="macron" unicode="&#xaf;" horiz-adv-x="326" 
d="M326 571h-326v56h326v-56zM0 760z" />
    <glyph glyph-name="degree" unicode="&#xb0;" horiz-adv-x="320" 
d="M270 610q0 -46 -32 -78t-78 -32t-78 32t-32 78t32 78t78 32t78 -32t32 -78zM230 610q0 29 -20.5 49.5t-49.5 20.5t-49.5 -20.5t-20.5 -49.5t20.5 -49.5t49.5 -20.5t49.5 20.5t20.5 49.5z" />
    <glyph glyph-name="plusminus" unicode="&#xb1;" horiz-adv-x="1000" 
d="M800 358h-269v-180h-62v180h-269v62h269v180h62v-180h269v-62zM800 0h-600v62h600v-62z" />
    <glyph glyph-name="twosuperior" unicode="&#xb2;" horiz-adv-x="366" 
d="M339 340l-35 -79h-292v11q70 55 95 76q54 45 87 85q52 63 52 113q0 47 -37 72q-28 18 -61 18q-81 0 -108 -70h-13q18 117 140 117q56 0 99 -30t43 -79q0 -70 -106 -167q-87 -79 -113 -100h130q46 0 59 3q26 5 47 30h13z" />
    <glyph glyph-name="threesuperior" unicode="&#xb3;" horiz-adv-x="366" 
d="M308 401q0 -64 -53 -104t-143 -40q-85 0 -85 33q0 21 29 21q16 0 47 -14t58 -14q35 0 64 23t29 58q0 101 -144 105v9q33 4 63 20q50 28 50 76q0 36 -29 55q-22 15 -53 15q-57 0 -95 -51l-12 5q47 88 134 88q62 0 94 -34q21 -24 21 -50q0 -45 -67 -93q92 -29 92 -108z" />
    <glyph glyph-name="acute" unicode="&#xb4;" horiz-adv-x="356" 
d="M293 675q0 -24 -42 -51l-150 -95h-42l144 145q34 34 63 34q8 0 17.5 -11.5t9.5 -21.5z" />
    <glyph glyph-name="mu" unicode="&#xb5;" horiz-adv-x="589" 
d="M550 105q-8 -120 -101 -120q-67 0 -80 97q-84 -97 -159 -97q-53 0 -79 44v-24q0 -35 12 -95t12 -78q0 -24 -14.5 -40.5t-33.5 -16.5q-18 0 -31 16t-13 39q0 15 16 85t16 182v367h83v-270q0 -72 9 -100q15 -46 63 -46q59 0 119 68v348h85v-330q0 -61 10 -80q6 -12 24 -12
q29 0 42 63h20z" />
    <glyph glyph-name="paragraph" unicode="&#xb6;" horiz-adv-x="471" 
d="M473 660h-67v-885h-38v885h-94v-885h-37v531q-244 6 -244 192q0 101 74 150q59 40 155 40h251v-28z" />
    <glyph glyph-name="cedilla" unicode="&#xb8;" horiz-adv-x="244" 
d="M231 -137q0 -40 -40.5 -63.5t-93.5 -23.5q-38 0 -84 16l15 33q33 -13 64 -13q61 0 61 44q0 37 -38 40q-23 2 -47 -5l-8 6l44 103h37l-27 -68q14 3 30 3q37 0 60 -17q27 -20 27 -55z" />
    <glyph glyph-name="onesuperior" unicode="&#xb9;" horiz-adv-x="366" 
d="M279 261h-187v11q42 0 53 9.5t11 52.5v223q0 44 -2 54q-5 22 -27 22q-14 0 -38 -9l-5 10l120 49h13v-349q0 -44 10 -53t52 -9v-11z" />
    <glyph glyph-name="ordmasculine" unicode="&#xba;" horiz-adv-x="381" 
d="M352 554q0 -60 -41 -104q-47 -50 -123 -50q-69 0 -114 43t-45 103t43 103q47 47 119 47q71 0 116 -41t45 -101zM347 332h-312v22h312v-22zM284 530q0 64 -28.5 105.5t-75.5 41.5q-34 0 -56 -23q-27 -28 -27 -83q0 -62 29 -104q30 -45 77 -45q81 0 81 108z" />
    <glyph glyph-name="guillemotright" unicode="&#xbb;" 
d="M488 235l-197 -239h-28l124 239l-124 239h28zM262 235l-200 -239h-29l124 239l-124 239h29z" />
    <glyph glyph-name="onequarter" unicode="&#xbc;" horiz-adv-x="800" 
d="M701 107h-55v-111h-51v111h-177v38l194 277h34v-272h55v-43zM663 701l-470 -709h-50l473 709h47zM264 266h-158v12q38 0 46 10t8 52v224q0 46 -2 55q-4 23 -22 23q-12 0 -33 -10l-4 11l101 49h11v-352q0 -43 7.5 -52.5t45.5 -9.5v-12zM595 150v207l-147 -207h147z" />
    <glyph glyph-name="onehalf" unicode="&#xbd;" horiz-adv-x="800" 
d="M716 76l-30 -80h-246v12q88 81 124 123q73 88 73 153q0 47 -31 72q-24 19 -51 19q-68 0 -92 -70h-10q5 42 26 72q32 45 92 45q47 0 82 -29q37 -32 37 -81q0 -73 -89 -169q-41 -44 -95 -100h109q40 0 51 3q21 6 38 30h12zM621 701l-437 -709h-50l438 709h49zM249 266h-158
v12q38 0 46 10t8 52v224q0 46 -2 55q-4 23 -22 23q-12 0 -33 -10l-4 11l101 49h11v-352q0 -43 7.5 -52.5t45.5 -9.5v-12z" />
    <glyph glyph-name="threequarters" unicode="&#xbe;" horiz-adv-x="800" 
d="M714 107h-55v-111h-51v111h-177v38l194 277h34v-272h55v-43zM686 701l-470 -709h-50l473 709h47zM323 404q0 -65 -44.5 -105.5t-120.5 -40.5q-72 0 -72 34q0 21 25 21q13 0 39.5 -14t49.5 -14q29 0 53.5 23t24.5 58q0 103 -122 106v10q28 3 54 20q41 28 41 77
q0 36 -24 55q-19 15 -44 15q-48 0 -80 -51l-11 5q20 40 33 54q31 35 80 35q53 0 79 -34q18 -24 18 -51q0 -44 -56 -94q77 -30 77 -109zM608 150v207l-147 -207h147z" />
    <glyph glyph-name="questiondown" unicode="&#xbf;" horiz-adv-x="462" 
d="M293 437q0 -24 -17.5 -40.5t-40.5 -16.5q-22 0 -39 16t-17 41q0 26 17.5 41.5t38.5 15.5q23 0 40.5 -15.5t17.5 -41.5zM412 -78q0 -60 -47 -102q-51 -44 -136 -44q-84 0 -137 43t-53 117q0 79 79 168q63 71 80 102q27 47 30 112h22q-6 -118 -69 -223q-48 -80 -48 -151
q0 -70 39 -108q33 -32 79 -32q45 0 72 22q24 20 24 45q0 15 -16 45.5t-16 41.5q0 20 13 32t28 12q17 0 33 -15q23 -22 23 -65z" />
    <glyph glyph-name="Agrave" unicode="&#xc0;" horiz-adv-x="747" 
d="M442 749h-42l-150 95q-45 28 -45 45q0 39 32 39q27 0 61 -34zM739 0h-271v19q69 1 69 44q0 20 -20 69l-41 99h-267l-47 -110q-17 -40 -17 -57q0 -38 80 -45v-19h-217v19q41 3 67 32q21 24 47 86l242 567h18l239 -572q29 -70 53 -91q20 -19 65 -22v-19zM462 268l-117 279
l-120 -279h237z" />
    <glyph glyph-name="Aacute" unicode="&#xc1;" horiz-adv-x="747" 
d="M528 895q0 -24 -42 -51l-150 -95h-42l144 145q34 34 63 34q8 0 17.5 -11.5t9.5 -21.5zM739 0h-271v19q69 1 69 44q0 20 -20 69l-41 99h-267l-47 -110q-17 -40 -17 -57q0 -38 80 -45v-19h-217v19q41 3 67 32q21 24 47 86l242 567h18l239 -572q29 -70 53 -91q20 -19 65 -22
v-19zM462 268l-117 279l-120 -279h237z" />
    <glyph glyph-name="Acircumflex" unicode="&#xc2;" horiz-adv-x="747" 
d="M534 749h-36l-127 108l-127 -108h-36l131 174h65zM739 0h-271v19q69 1 69 44q0 20 -20 69l-41 99h-267l-47 -110q-17 -40 -17 -57q0 -38 80 -45v-19h-217v19q41 3 67 32q21 24 47 86l242 567h18l239 -572q29 -70 53 -91q20 -19 65 -22v-19zM462 268l-117 279l-120 -279
h237z" />
    <glyph glyph-name="Atilde" unicode="&#xc3;" horiz-adv-x="747" 
d="M538 886q-5 -44 -35 -76q-33 -35 -75 -35q-39 0 -78.5 24t-71.5 24q-21 0 -39 -15t-20 -33h-27q25 106 115 106q27 0 66.5 -23t65.5 -23q60 0 72 51h27zM739 0h-271v19q69 1 69 44q0 20 -20 69l-41 99h-267l-47 -110q-17 -40 -17 -57q0 -38 80 -45v-19h-217v19
q41 3 67 32q21 24 47 86l242 567h18l239 -572q29 -70 53 -91q20 -19 65 -22v-19zM462 268l-117 279l-120 -279h237z" />
    <glyph glyph-name="Adieresis" unicode="&#xc4;" horiz-adv-x="747" 
d="M526 813q0 -21 -15.5 -36.5t-36.5 -15.5t-36.5 16t-15.5 36t16.5 36t35.5 16q21 0 36.5 -15.5t15.5 -36.5zM318 813q0 -21 -15.5 -36.5t-36.5 -15.5q-20 0 -35.5 16t-15.5 36t16 36t35 16q21 0 36.5 -15.5t15.5 -36.5zM739 0h-271v19q69 1 69 44q0 20 -20 69l-41 99h-267
l-47 -110q-17 -40 -17 -57q0 -38 80 -45v-19h-217v19q41 3 67 32q21 24 47 86l242 567h18l239 -572q29 -70 53 -91q20 -19 65 -22v-19zM462 268l-117 279l-120 -279h237z" />
    <glyph glyph-name="Aring" unicode="&#xc5;" horiz-adv-x="747" 
d="M469 846q0 -42 -29 -69.5t-67 -27.5t-68 27.5t-30 69.5t29 69.5t69 27.5q38 0 67 -27t29 -70zM739 0h-271v19q69 1 69 44q0 20 -20 69l-41 99h-267l-47 -110q-17 -40 -17 -57q0 -38 80 -45v-19h-217v19q41 3 67 32q21 24 47 86l242 567h18l239 -572q29 -70 53 -91
q20 -19 65 -22v-19zM434 846q0 27 -18.5 44.5t-42.5 17.5q-26 0 -44.5 -17.5t-18.5 -44.5q0 -28 19 -45t44 -17t43 18.5t18 43.5zM462 268l-117 279l-120 -279h237z" />
    <glyph glyph-name="AE" unicode="&#xc6;" horiz-adv-x="925" 
d="M895 174l-54 -174h-517v19h25q43 0 63 25q12 15 12 78v144h-201l-63 -118q-36 -68 -36 -88q0 -34 80 -41v-19h-216v19q23 0 38 9q33 20 82 111l210 391q39 73 39 98q0 37 -88 42v18h564l8 -150h-17q-16 73 -36 92q-23 21 -98 21h-169v-272h131q58 0 81.5 21.5t28.5 77.5
h18v-238h-18q-8 63 -26 81q-21 20 -84 20h-131v-228q0 -49 4 -55q14 -21 55 -21h92q83 0 128 32q40 29 77 105h18zM424 304v347l-182 -347h182z" />
    <glyph glyph-name="Ccedilla" unicode="&#xc7;" horiz-adv-x="694" 
d="M657 161q-100 -177 -285 -177q-20 0 -40 2l-21 -54q14 3 30 3q37 0 60 -17q27 -20 27 -55q0 -40 -40.5 -63.5t-93.5 -23.5q-38 0 -84 16l15 33q33 -13 64 -13q61 0 61 44q0 37 -38 40q-23 2 -47 -5l-8 6l40 94q-121 24 -192 122q-68 94 -68 221q0 154 96 260
q100 110 255 110q62 0 120 -24l58 -24q30 0 42 48h18l16 -234h-16q-59 198 -230 198q-111 0 -174 -82q-69 -87 -69 -253q0 -145 71 -226q68 -78 187 -78q71 0 119 28q53 32 112 115z" />
    <glyph glyph-name="Egrave" unicode="&#xc8;" horiz-adv-x="635" 
d="M402 749h-42l-150 95q-45 28 -45 45q0 39 32 39q27 0 61 -34zM612 173l-60 -173h-530v19h24q35 0 54.5 16.5t19.5 86.5v447q0 66 -13 80q-19 21 -61 21h-24v18h530l8 -150h-20q-17 66 -26 79q-27 34 -107 34h-190v-272h151q65 0 86 23q15 17 23 76h19v-239h-19
q-8 61 -23 78q-21 24 -86 24h-151v-227q0 -45 5 -55q10 -22 53 -22h116q82 0 118 26q32 22 82 110h21z" />
    <glyph glyph-name="Eacute" unicode="&#xc9;" horiz-adv-x="635" 
d="M478 895q0 -24 -42 -51l-150 -95h-42l144 145q34 34 63 34q8 0 17.5 -11.5t9.5 -21.5zM612 173l-60 -173h-530v19h24q35 0 54.5 16.5t19.5 86.5v447q0 66 -13 80q-19 21 -61 21h-24v18h530l8 -150h-20q-17 66 -26 79q-27 34 -107 34h-190v-272h151q65 0 86 23
q15 17 23 76h19v-239h-19q-8 61 -23 78q-21 24 -86 24h-151v-227q0 -45 5 -55q10 -22 53 -22h116q82 0 118 26q32 22 82 110h21z" />
    <glyph glyph-name="Ecircumflex" unicode="&#xca;" horiz-adv-x="635" 
d="M458 749h-36l-127 108l-127 -108h-36l131 174h65zM612 173l-60 -173h-530v19h24q35 0 54.5 16.5t19.5 86.5v447q0 66 -13 80q-19 21 -61 21h-24v18h530l8 -150h-20q-17 66 -26 79q-27 34 -107 34h-190v-272h151q65 0 86 23q15 17 23 76h19v-239h-19q-8 61 -23 78
q-21 24 -86 24h-151v-227q0 -45 5 -55q10 -22 53 -22h116q82 0 118 26q32 22 82 110h21z" />
    <glyph glyph-name="Edieresis" unicode="&#xcb;" horiz-adv-x="635" 
d="M456 813q0 -21 -15.5 -36.5t-36.5 -15.5t-36.5 16t-15.5 36t16.5 36t35.5 16q21 0 36.5 -15.5t15.5 -36.5zM248 813q0 -21 -15.5 -36.5t-36.5 -15.5q-20 0 -35.5 16t-15.5 36t16 36t35 16q21 0 36.5 -15.5t15.5 -36.5zM612 173l-60 -173h-530v19h24q35 0 54.5 16.5
t19.5 86.5v447q0 66 -13 80q-19 21 -61 21h-24v18h530l8 -150h-20q-17 66 -26 79q-27 34 -107 34h-190v-272h151q65 0 86 23q15 17 23 76h19v-239h-19q-8 61 -23 78q-21 24 -86 24h-151v-227q0 -45 5 -55q10 -22 53 -22h116q82 0 118 26q32 22 82 110h21z" />
    <glyph glyph-name="Igrave" unicode="&#xcc;" horiz-adv-x="346" 
d="M222 749h-42l-150 95q-45 28 -45 45q0 39 32 39q27 0 61 -34zM321 0h-295v19h25q41 0 61 25q12 15 12 78v445q0 64 -11 77q-21 26 -62 26h-25v18h295v-18h-25q-42 0 -61 -25q-13 -17 -13 -78v-445q0 -61 12 -79q6 -8 25 -16t37 -8h25v-19z" />
    <glyph glyph-name="Iacute" unicode="&#xcd;" horiz-adv-x="346" 
d="M358 895q0 -24 -42 -51l-150 -95h-42l144 145q34 34 63 34q8 0 17.5 -11.5t9.5 -21.5zM321 0h-295v19h25q41 0 61 25q12 15 12 78v445q0 64 -11 77q-21 26 -62 26h-25v18h295v-18h-25q-42 0 -61 -25q-13 -17 -13 -78v-445q0 -61 12 -79q6 -8 25 -16t37 -8h25v-19z" />
    <glyph glyph-name="Icircumflex" unicode="&#xce;" horiz-adv-x="346" 
d="M336 749h-36l-127 108l-127 -108h-36l131 174h65zM321 0h-295v19h25q41 0 61 25q12 15 12 78v445q0 64 -11 77q-21 26 -62 26h-25v18h295v-18h-25q-42 0 -61 -25q-13 -17 -13 -78v-445q0 -61 12 -79q6 -8 25 -16t37 -8h25v-19z" />
    <glyph glyph-name="Idieresis" unicode="&#xcf;" horiz-adv-x="346" 
d="M329 813q0 -21 -15.5 -36.5t-36.5 -15.5t-36.5 16t-15.5 36t16.5 36t35.5 16q21 0 36.5 -15.5t15.5 -36.5zM121 813q0 -21 -15.5 -36.5t-36.5 -15.5q-20 0 -35.5 16t-15.5 36t16 36t35 16q21 0 36.5 -15.5t15.5 -36.5zM321 0h-295v19h25q41 0 61 25q12 15 12 78v445
q0 64 -11 77q-21 26 -62 26h-25v18h295v-18h-25q-42 0 -61 -25q-13 -17 -13 -78v-445q0 -61 12 -79q6 -8 25 -16t37 -8h25v-19z" />
    <glyph glyph-name="Eth" unicode="&#xd0;" horiz-adv-x="751" 
d="M710 349q0 -155 -90 -247q-100 -102 -294 -102h-308v19h26q44 0 62 28q10 16 10 75v222h-98v58h98v165q0 64 -13 81q-22 22 -59 22h-26v18h280q161 0 238.5 -36.5t124.5 -114.5q49 -83 49 -188zM596 344q0 141 -77 224t-201 83q-49 0 -104 -15v-234h201v-58h-201v-293
q71 -15 108 -15q120 -1 197 83t77 225z" />
    <glyph glyph-name="Ntilde" unicode="&#xd1;" horiz-adv-x="751" 
d="M558 872q-5 -44 -35 -76q-33 -35 -75 -35q-39 0 -78.5 24t-71.5 24q-21 0 -39 -15t-20 -33h-27q25 106 115 106q27 0 66.5 -23t65.5 -23q60 0 72 51h27zM736 670h-24q-45 0 -62 -26q-11 -17 -11 -75v-580h-18l-455 554v-423q0 -64 14 -80q18 -21 60 -21h24v-19h-240v19
h24q46 0 62 27q12 15 12 74v478l-32 42q-33 30 -84 30v18h168l420 -516v397q0 64 -14 79q-20 22 -60 22h-23v18h239v-18z" />
    <glyph glyph-name="Ograve" unicode="&#xd2;" horiz-adv-x="751" 
d="M449 749h-42l-150 95q-45 28 -45 45q0 39 32 39q27 0 61 -34zM710 348q0 -156 -97 -260t-241 -104q-143 0 -238 100q-98 103 -98 262q0 154 99 256t246 102q137 0 233 -101.5t96 -254.5zM595 335q2 331 -225 333q-103 1 -160 -84.5t-57 -234.5t56 -237q58 -91 162 -92
q102 -1 161 76q62 82 63 239z" />
    <glyph glyph-name="Oacute" unicode="&#xd3;" horiz-adv-x="751" 
d="M538 895q0 -24 -42 -51l-150 -95h-42l144 145q34 34 63 34q8 0 17.5 -11.5t9.5 -21.5zM710 348q0 -156 -97 -260t-241 -104q-143 0 -238 100q-98 103 -98 262q0 154 99 256t246 102q137 0 233 -101.5t96 -254.5zM595 335q2 331 -225 333q-103 1 -160 -84.5t-57 -234.5
t56 -237q58 -91 162 -92q102 -1 161 76q62 82 63 239z" />
    <glyph glyph-name="Ocircumflex" unicode="&#xd4;" horiz-adv-x="751" 
d="M540 749h-36l-127 108l-127 -108h-36l131 174h65zM710 348q0 -156 -97 -260t-241 -104q-143 0 -238 100q-98 103 -98 262q0 154 99 256t246 102q137 0 233 -101.5t96 -254.5zM595 335q2 331 -225 333q-103 1 -160 -84.5t-57 -234.5t56 -237q58 -91 162 -92q102 -1 161 76
q62 82 63 239z" />
    <glyph glyph-name="Otilde" unicode="&#xd5;" horiz-adv-x="751" 
d="M548 886q-5 -44 -35 -76q-33 -35 -75 -35q-39 0 -78.5 24t-71.5 24q-21 0 -39 -15t-20 -33h-27q25 106 115 106q27 0 66.5 -23t65.5 -23q60 0 72 51h27zM710 348q0 -156 -97 -260t-241 -104q-143 0 -238 100q-98 103 -98 262q0 154 99 256t246 102q137 0 233 -101.5
t96 -254.5zM595 335q2 331 -225 333q-103 1 -160 -84.5t-57 -234.5t56 -237q58 -91 162 -92q102 -1 161 76q62 82 63 239z" />
    <glyph glyph-name="Odieresis" unicode="&#xd6;" horiz-adv-x="751" 
d="M528 813q0 -21 -15.5 -36.5t-36.5 -15.5t-36.5 16t-15.5 36t16.5 36t35.5 16q21 0 36.5 -15.5t15.5 -36.5zM320 813q0 -21 -15.5 -36.5t-36.5 -15.5q-20 0 -35.5 16t-15.5 36t16 36t35 16q21 0 36.5 -15.5t15.5 -36.5zM710 348q0 -156 -97 -260t-241 -104
q-143 0 -238 100q-98 103 -98 262q0 154 99 256t246 102q137 0 233 -101.5t96 -254.5zM595 335q2 331 -225 333q-103 1 -160 -84.5t-57 -234.5t56 -237q58 -91 162 -92q102 -1 161 76q62 82 63 239z" />
    <glyph glyph-name="multiply" unicode="&#xd7;" horiz-adv-x="1000" 
d="M770 69l-39 -39l-231 232l-231 -232l-39 39l230 231l-230 231l39 39l231 -232l231 232l39 -39l-230 -231z" />
    <glyph glyph-name="Oslash" unicode="&#xd8;" horiz-adv-x="751" 
d="M711 349q0 -155 -101 -262q-98 -103 -232 -103q-120 0 -211 73l-65 -81l-30 24l67 83q-102 105 -102 269q0 148 98 250t241 102q115 0 206 -76l67 82l30 -22l-69 -84q101 -107 101 -255zM540 576q-59 92 -167 92q-116 0 -174 -103q-46 -82 -46 -211q0 -118 37 -207z
M594 333q0 115 -36 207l-347 -430q62 -89 159 -89q101 0 159 71q65 80 65 241z" />
    <glyph glyph-name="Ugrave" unicode="&#xd9;" horiz-adv-x="751" 
d="M442 749h-42l-150 95q-45 28 -45 45q0 39 32 39q27 0 61 -34zM740 670h-26q-39 0 -62 -35q-11 -14 -11 -72v-280q0 -161 -60 -223q-39 -40 -83 -58q-49 -18 -123 -18q-183 0 -241 116q-29 58 -29 197v270q0 53 -11 74q-16 29 -63 29h-16v18h278v-18h-26q-34 0 -51 -27
q-13 -20 -13 -76v-301q0 -102 24 -153q40 -86 155 -86q99 0 165 62q48 45 48 199v279q0 65 -14 81q-19 22 -59 22h-26v18h244v-18z" />
    <glyph glyph-name="Uacute" unicode="&#xda;" horiz-adv-x="751" 
d="M538 895q0 -24 -42 -51l-150 -95h-42l144 145q34 34 63 34q8 0 17.5 -11.5t9.5 -21.5zM740 670h-26q-39 0 -62 -35q-11 -14 -11 -72v-280q0 -161 -60 -223q-39 -40 -83 -58q-49 -18 -123 -18q-183 0 -241 116q-29 58 -29 197v270q0 53 -11 74q-16 29 -63 29h-16v18h278
v-18h-26q-34 0 -51 -27q-13 -20 -13 -76v-301q0 -102 24 -153q40 -86 155 -86q99 0 165 62q48 45 48 199v279q0 65 -14 81q-19 22 -59 22h-26v18h244v-18z" />
    <glyph glyph-name="Ucircumflex" unicode="&#xdb;" horiz-adv-x="751" 
d="M528 749h-36l-127 108l-127 -108h-36l131 174h65zM740 670h-26q-39 0 -62 -35q-11 -14 -11 -72v-280q0 -161 -60 -223q-39 -40 -83 -58q-49 -18 -123 -18q-183 0 -241 116q-29 58 -29 197v270q0 53 -11 74q-16 29 -63 29h-16v18h278v-18h-26q-34 0 -51 -27
q-13 -20 -13 -76v-301q0 -102 24 -153q40 -86 155 -86q99 0 165 62q48 45 48 199v279q0 65 -14 81q-19 22 -59 22h-26v18h244v-18z" />
    <glyph glyph-name="Udieresis" unicode="&#xdc;" horiz-adv-x="751" 
d="M536 813q0 -21 -15.5 -36.5t-36.5 -15.5t-36.5 16t-15.5 36t16.5 36t35.5 16q21 0 36.5 -15.5t15.5 -36.5zM328 813q0 -21 -15.5 -36.5t-36.5 -15.5q-20 0 -35.5 16t-15.5 36t16 36t35 16q21 0 36.5 -15.5t15.5 -36.5zM740 670h-26q-39 0 -62 -35q-11 -14 -11 -72v-280
q0 -161 -60 -223q-39 -40 -83 -58q-49 -18 -123 -18q-183 0 -241 116q-29 58 -29 197v270q0 53 -11 74q-16 29 -63 29h-16v18h278v-18h-26q-34 0 -51 -27q-13 -20 -13 -76v-301q0 -102 24 -153q40 -86 155 -86q99 0 165 62q48 45 48 199v279q0 65 -14 81q-19 22 -59 22h-26
v18h244v-18z" />
    <glyph glyph-name="Yacute" unicode="&#xdd;" horiz-adv-x="751" 
d="M538 895q0 -24 -42 -51l-150 -95h-42l144 145q34 34 63 34q8 0 17.5 -11.5t9.5 -21.5zM736 670h-13q-44 0 -85 -45q-16 -18 -51 -72l-167 -261v-172q0 -63 15 -80q18 -21 61 -21h22v-19h-292v19h24q42 0 62 27q10 17 10 74v163l-188 288q-21 33 -28 42q-14 19 -27 29
q-36 28 -70 28v18h295v-18h-15q-24 0 -42 -10q-22 -13 -22 -35q0 -19 31 -67l143 -221l136 212q31 49 31 71q0 14 -9 26q-15 24 -61 24v18h240v-18z" />
    <glyph glyph-name="Thorn" unicode="&#xde;" horiz-adv-x="578" 
d="M539 345q0 -74 -55 -129q-32 -32 -70 -44q-54 -17 -165 -17h-36v-31q0 -56 12 -77q16 -28 66 -28h21v-19h-293v19h18q48 0 68 28q10 14 10 75v441q0 58 -6 70q-11 37 -71 37h-19v18h293v-18h-21q-57 0 -69 -37q-9 -28 -9 -67v-34h38q89 0 132 -9q40 -8 73 -30
q83 -56 83 -148zM421 344q0 79 -57 120q-24 18 -39 22q-25 7 -88 7h-24v-303h23q185 0 185 154z" />
    <glyph glyph-name="germandbls" unicode="&#xdf;" 
d="M487 214q0 -91 -46 -153q-48 -67 -125 -67q-42 0 -69.5 23t-28.5 59q-1 44 41 44q40 0 42 -40q0 -5 -3 -18.5t-3 -15.5q0 -21 29 -24q76 0 76 137q0 222 -149 234v29q109 0 109 138q0 128 -98 128q-45 0 -66 -30q-26 -38 -26 -132v-526h-152v19q40 1 53.5 19t13.5 76v377
q0 231 181 231q81 0 130 -45.5t49 -119.5q0 -100 -97 -140q139 -39 139 -203z" />
    <glyph glyph-name="agrave" unicode="&#xe0;" horiz-adv-x="462" 
d="M302 529h-42l-150 95q-45 28 -45 45q0 39 32 39q27 0 61 -34zM461 67q-57 -76 -111 -76t-54 76q-64 -50 -86 -62q-27 -14 -62 -14q-50 0 -80.5 32.5t-30.5 86.5q0 57 47 96q57 49 212 102v19q0 65 -21 93t-66 28q-31 0 -49.5 -16t-20.5 -41l1 -30q2 -48 -42 -48
q-43 0 -43 49q0 53 52 85q48 31 118 31q94 0 129 -43q27 -33 27 -115v-159q0 -60 3 -81q4 -25 22 -25q14 0 55 41v-29zM296 100v178q-108 -42 -145 -78q-28 -27 -28 -66q0 -36 20.5 -60t50.5 -25q38 -1 102 51z" />
    <glyph glyph-name="aacute" unicode="&#xe1;" horiz-adv-x="462" 
d="M378 675q0 -24 -42 -51l-150 -95h-42l144 145q34 34 63 34q8 0 17.5 -11.5t9.5 -21.5zM461 67q-57 -76 -111 -76t-54 76q-64 -50 -86 -62q-27 -14 -62 -14q-50 0 -80.5 32.5t-30.5 86.5q0 57 47 96q57 49 212 102v19q0 65 -21 93t-66 28q-31 0 -49.5 -16t-20.5 -41l1 -30
q2 -48 -42 -48q-43 0 -43 49q0 53 52 85q48 31 118 31q94 0 129 -43q27 -33 27 -115v-159q0 -60 3 -81q4 -25 22 -25q14 0 55 41v-29zM296 100v178q-108 -42 -145 -78q-28 -27 -28 -66q0 -36 20.5 -60t50.5 -25q38 -1 102 51z" />
    <glyph glyph-name="acircumflex" unicode="&#xe2;" horiz-adv-x="462" 
d="M393 529h-36l-127 108l-127 -108h-36l131 174h65zM461 67q-57 -76 -111 -76t-54 76q-64 -50 -86 -62q-27 -14 -62 -14q-50 0 -80.5 32.5t-30.5 86.5q0 57 47 96q57 49 212 102v19q0 65 -21 93t-66 28q-31 0 -49.5 -16t-20.5 -41l1 -30q2 -48 -42 -48q-43 0 -43 49
q0 53 52 85q48 31 118 31q94 0 129 -43q27 -33 27 -115v-159q0 -60 3 -81q4 -25 22 -25q14 0 55 41v-29zM296 100v178q-108 -42 -145 -78q-28 -27 -28 -66q0 -36 20.5 -60t50.5 -25q38 -1 102 51z" />
    <glyph glyph-name="atilde" unicode="&#xe3;" horiz-adv-x="462" 
d="M393 682q-5 -44 -35 -76q-33 -35 -75 -35q-39 0 -78.5 24t-71.5 24q-21 0 -39 -15t-20 -33h-27q25 106 115 106q27 0 66.5 -23t65.5 -23q60 0 72 51h27zM461 67q-57 -76 -111 -76t-54 76q-64 -50 -86 -62q-27 -14 -62 -14q-50 0 -80.5 32.5t-30.5 86.5q0 57 47 96
q57 49 212 102v19q0 65 -21 93t-66 28q-31 0 -49.5 -16t-20.5 -41l1 -30q2 -48 -42 -48q-43 0 -43 49q0 53 52 85q48 31 118 31q94 0 129 -43q27 -33 27 -115v-159q0 -60 3 -81q4 -25 22 -25q14 0 55 41v-29zM296 100v178q-108 -42 -145 -78q-28 -27 -28 -66q0 -36 20.5 -60
t50.5 -25q38 -1 102 51z" />
    <glyph glyph-name="adieresis" unicode="&#xe4;" horiz-adv-x="462" 
d="M381 623q0 -21 -15.5 -36.5t-36.5 -15.5t-36.5 16t-15.5 36t16.5 36t35.5 16q21 0 36.5 -15.5t15.5 -36.5zM173 623q0 -21 -15.5 -36.5t-36.5 -15.5q-20 0 -35.5 16t-15.5 36t16 36t35 16q21 0 36.5 -15.5t15.5 -36.5zM461 67q-57 -76 -111 -76t-54 76q-64 -50 -86 -62
q-27 -14 -62 -14q-50 0 -80.5 32.5t-30.5 86.5q0 57 47 96q57 49 212 102v19q0 65 -21 93t-66 28q-31 0 -49.5 -16t-20.5 -41l1 -30q2 -48 -42 -48q-43 0 -43 49q0 53 52 85q48 31 118 31q94 0 129 -43q27 -33 27 -115v-159q0 -60 3 -81q4 -25 22 -25q14 0 55 41v-29z
M296 100v178q-108 -42 -145 -78q-28 -27 -28 -66q0 -36 20.5 -60t50.5 -25q38 -1 102 51z" />
    <glyph glyph-name="aring" unicode="&#xe5;" horiz-adv-x="462" 
d="M334 626q0 -42 -29 -69.5t-67 -27.5t-68 27.5t-30 69.5t29 69.5t69 27.5q38 0 67 -27t29 -70zM461 67q-57 -76 -111 -76t-54 76q-64 -50 -86 -62q-27 -14 -62 -14q-50 0 -80.5 32.5t-30.5 86.5q0 57 47 96q57 49 212 102v19q0 65 -21 93t-66 28q-31 0 -49.5 -16
t-20.5 -41l1 -30q2 -48 -42 -48q-43 0 -43 49q0 53 52 85q48 31 118 31q94 0 129 -43q27 -33 27 -115v-159q0 -60 3 -81q4 -25 22 -25q14 0 55 41v-29zM299 626q0 27 -18.5 44.5t-42.5 17.5q-26 0 -44.5 -17.5t-18.5 -44.5q0 -28 19 -45t44 -17t43 18.5t18 43.5zM296 100
v178q-108 -42 -145 -78q-28 -27 -28 -66q0 -36 20.5 -60t50.5 -25q38 -1 102 51z" />
    <glyph glyph-name="ae" unicode="&#xe6;" horiz-adv-x="694" 
d="M662 162q-48 -177 -188 -177q-43 0 -70 12q-40 18 -80 70q-95 -82 -173 -82q-47 0 -80.5 34t-33.5 83q0 66 57 108q44 33 192 93v46q0 101 -75 101q-32 0 -51.5 -15.5t-20.5 -38.5q-1 -50 -9.5 -64.5t-30.5 -16.5q-46 0 -46 49q0 43 41 76q48 38 130 38q113 0 137 -61
q45 61 136 61q76 0 120 -50t45 -140h-290q0 -123 26 -167q35 -59 104 -59q98 0 144 112zM565 321q-3 122 -94 122q-42 0 -68 -30q-30 -33 -31 -92h193zM310 94q-24 46 -24 131v45q-79 -30 -110 -51q-53 -37 -53 -88q0 -37 23.5 -63.5t57.5 -27.5q36 -1 106 54z" />
    <glyph glyph-name="ccedilla" unicode="&#xe7;" horiz-adv-x="462" 
d="M427 177q-13 -81 -65.5 -134.5t-119.5 -57.5l-21 -53q14 3 30 3q37 0 60 -17q27 -20 27 -55q0 -40 -40.5 -63.5t-93.5 -23.5q-38 0 -84 16l15 33q33 -13 64 -13q61 0 61 44q0 37 -38 40q-23 2 -47 -5l-8 6l38 90q-74 12 -121 76q-49 68 -49 169q0 108 66 178
q63 68 156 68q69 0 113.5 -36.5t44.5 -74.5q0 -43 -48 -43q-51 0 -56 60.5t-71 60.5q-56 0 -89 -47.5t-33 -121.5q0 -87 39 -146q42 -64 112 -64q95 0 144 118z" />
    <glyph glyph-name="egrave" unicode="&#xe8;" horiz-adv-x="462" 
d="M322 529h-42l-150 95q-45 28 -45 45q0 39 32 39q27 0 61 -34zM432 170q-11 -74 -61 -127q-54 -58 -130 -58q-85 0 -144 67t-59 175q0 117 60 184.5t156 67.5q78 0 128 -51t50 -138h-322q0 -100 51 -162q48 -58 119 -59q93 -1 136 111zM326 319q0 67 -38 100
q-27 24 -63 24q-43 0 -76 -33t-39 -91h216z" />
    <glyph glyph-name="eacute" unicode="&#xe9;" horiz-adv-x="462" 
d="M418 675q0 -24 -42 -51l-150 -95h-42l144 145q34 34 63 34q8 0 17.5 -11.5t9.5 -21.5zM432 170q-11 -74 -61 -127q-54 -58 -130 -58q-85 0 -144 67t-59 175q0 117 60 184.5t156 67.5q78 0 128 -51t50 -138h-322q0 -100 51 -162q48 -58 119 -59q93 -1 136 111zM326 319
q0 67 -38 100q-27 24 -63 24q-43 0 -76 -33t-39 -91h216z" />
    <glyph glyph-name="ecircumflex" unicode="&#xea;" horiz-adv-x="462" 
d="M398 529h-36l-127 108l-127 -108h-36l131 174h65zM432 170q-11 -74 -61 -127q-54 -58 -130 -58q-85 0 -144 67t-59 175q0 117 60 184.5t156 67.5q78 0 128 -51t50 -138h-322q0 -100 51 -162q48 -58 119 -59q93 -1 136 111zM326 319q0 67 -38 100q-27 24 -63 24
q-43 0 -76 -33t-39 -91h216z" />
    <glyph glyph-name="edieresis" unicode="&#xeb;" horiz-adv-x="462" 
d="M396 623q0 -21 -15.5 -36.5t-36.5 -15.5t-36.5 16t-15.5 36t16.5 36t35.5 16q21 0 36.5 -15.5t15.5 -36.5zM188 623q0 -21 -15.5 -36.5t-36.5 -15.5q-20 0 -35.5 16t-15.5 36t16 36t35 16q21 0 36.5 -15.5t15.5 -36.5zM432 170q-11 -74 -61 -127q-54 -58 -130 -58
q-85 0 -144 67t-59 175q0 117 60 184.5t156 67.5q78 0 128 -51t50 -138h-322q0 -100 51 -162q48 -58 119 -59q93 -1 136 111zM326 319q0 67 -38 100q-27 24 -63 24q-43 0 -76 -33t-39 -91h216z" />
    <glyph glyph-name="igrave" unicode="&#xec;" horiz-adv-x="289" 
d="M202 529h-42l-150 95q-45 28 -45 45q0 39 32 39q27 0 61 -34zM264 0h-227v19q45 0 58 17.5t13 68.5v179q0 68 -2 87q-2 24 -12 33q-16 14 -57 0l-7 18l141 56h22v-373q0 -55 12 -69q15 -17 59 -17v-19z" />
    <glyph glyph-name="iacute" unicode="&#xed;" horiz-adv-x="289" 
d="M278 675q0 -24 -42 -51l-150 -95h-42l144 145q34 34 63 34q8 0 17.5 -11.5t9.5 -21.5zM264 0h-227v19q45 0 58 17.5t13 68.5v179q0 68 -2 87q-2 24 -12 33q-16 14 -57 0l-7 18l141 56h22v-373q0 -55 12 -69q15 -17 59 -17v-19z" />
    <glyph glyph-name="icircumflex" unicode="&#xee;" horiz-adv-x="289" 
d="M309 529h-36l-127 108l-127 -108h-36l131 174h65zM264 0h-227v19q45 0 58 17.5t13 68.5v179q0 68 -2 87q-2 24 -12 33q-16 14 -57 0l-7 18l141 56h22v-373q0 -55 12 -69q15 -17 59 -17v-19z" />
    <glyph glyph-name="idieresis" unicode="&#xef;" horiz-adv-x="289" 
d="M296 623q0 -21 -15.5 -36.5t-36.5 -15.5t-36.5 16t-15.5 36t16.5 36t35.5 16q21 0 36.5 -15.5t15.5 -36.5zM88 623q0 -21 -15.5 -36.5t-36.5 -15.5q-20 0 -35.5 16t-15.5 36t16 36t35 16q21 0 36.5 -15.5t15.5 -36.5zM264 0h-227v19q45 0 58 17.5t13 68.5v179q0 68 -2 87
q-2 24 -12 33q-16 14 -57 0l-7 18l141 56h22v-373q0 -55 12 -69q15 -17 59 -17v-19z" />
    <glyph glyph-name="eth" unicode="&#xf0;" 
d="M482 240q0 -102 -60 -175q-65 -80 -168 -80q-93 0 -156.5 68.5t-63.5 170.5q0 100 61.5 175t152.5 75q46 0 86 -29q-43 88 -96 149l-126 -69l-14 28l118 67q-43 43 -95 80l13 22q57 -28 126 -78l126 70l18 -28l-117 -66q93 -83 144 -183t51 -197zM388 191q0 115 -40 184
t-105 69q-114 0 -115 -181q-1 -102 41 -171.5t109 -69.5q110 0 110 169z" />
    <glyph glyph-name="ntilde" unicode="&#xf1;" 
d="M438 682q-5 -44 -35 -76q-33 -35 -75 -35q-39 0 -78.5 24t-71.5 24q-21 0 -39 -15t-20 -33h-27q25 106 115 106q27 0 66.5 -23t65.5 -23q60 0 72 51h27zM518 0h-233v19q51 0 63.5 15.5t12.5 70.5v190q0 64 -16.5 92.5t-56.5 28.5q-60 0 -120 -66v-245q0 -52 10 -66
q14 -20 66 -20v-19h-231v19q44 0 57 16t13 70v173q0 114 -15 127q-17 14 -55 -1l-8 18l142 56h21v-97q82 97 156 97q122 0 122 -174v-199q0 -49 10 -65q14 -21 62 -21v-19z" />
    <glyph glyph-name="ograve" unicode="&#xf2;" 
d="M322 529h-42l-150 95q-45 28 -45 45q0 39 32 39q27 0 61 -34zM484 241q0 -99 -57 -173q-65 -83 -172 -83q-95 0 -157.5 72t-62.5 171t60 172q65 78 165 78q98 0 161 -68t63 -169zM389 202q0 106 -39.5 175t-105.5 69q-47 0 -77 -37q-38 -47 -38 -139q0 -103 40 -174
q42 -74 107 -74q113 0 113 180z" />
    <glyph glyph-name="oacute" unicode="&#xf3;" 
d="M428 675q0 -24 -42 -51l-150 -95h-42l144 145q34 34 63 34q8 0 17.5 -11.5t9.5 -21.5zM484 241q0 -99 -57 -173q-65 -83 -172 -83q-95 0 -157.5 72t-62.5 171t60 172q65 78 165 78q98 0 161 -68t63 -169zM389 202q0 106 -39.5 175t-105.5 69q-47 0 -77 -37
q-38 -47 -38 -139q0 -103 40 -174q42 -74 107 -74q113 0 113 180z" />
    <glyph glyph-name="ocircumflex" unicode="&#xf4;" 
d="M423 529h-36l-127 108l-127 -108h-36l131 174h65zM484 241q0 -99 -57 -173q-65 -83 -172 -83q-95 0 -157.5 72t-62.5 171t60 172q65 78 165 78q98 0 161 -68t63 -169zM389 202q0 106 -39.5 175t-105.5 69q-47 0 -77 -37q-38 -47 -38 -139q0 -103 40 -174q42 -74 107 -74
q113 0 113 180z" />
    <glyph glyph-name="otilde" unicode="&#xf5;" 
d="M431 682q-5 -44 -35 -76q-33 -35 -75 -35q-39 0 -78.5 24t-71.5 24q-21 0 -39 -15t-20 -33h-27q25 106 115 106q27 0 66.5 -23t65.5 -23q60 0 72 51h27zM484 241q0 -99 -57 -173q-65 -83 -172 -83q-95 0 -157.5 72t-62.5 171t60 172q65 78 165 78q98 0 161 -68t63 -169z
M389 202q0 106 -39.5 175t-105.5 69q-47 0 -77 -37q-38 -47 -38 -139q0 -103 40 -174q42 -74 107 -74q113 0 113 180z" />
    <glyph glyph-name="odieresis" unicode="&#xf6;" 
d="M410 623q0 -21 -15.5 -36.5t-36.5 -15.5t-36.5 16t-15.5 36t16.5 36t35.5 16q21 0 36.5 -15.5t15.5 -36.5zM202 623q0 -21 -15.5 -36.5t-36.5 -15.5q-20 0 -35.5 16t-15.5 36t16 36t35 16q21 0 36.5 -15.5t15.5 -36.5zM484 241q0 -99 -57 -173q-65 -83 -172 -83
q-95 0 -157.5 72t-62.5 171t60 172q65 78 165 78q98 0 161 -68t63 -169zM389 202q0 106 -39.5 175t-105.5 69q-47 0 -77 -37q-38 -47 -38 -139q0 -103 40 -174q42 -74 107 -74q113 0 113 180z" />
    <glyph glyph-name="divide" unicode="&#xf7;" horiz-adv-x="1000" 
d="M560 461q0 -25 -17.5 -42.5t-42.5 -17.5t-42.5 17.5t-17.5 42.5t17.5 42.5t42.5 17.5t42.5 -17.5t17.5 -42.5zM800 269h-600v62h600v-62zM560 139q0 -25 -17.5 -42t-42.5 -17t-42.5 17t-17.5 42t17.5 42.5t42.5 17.5t42.5 -17.5t17.5 -42.5z" />
    <glyph glyph-name="oslash" unicode="&#xf8;" 
d="M500 475l-68 -77q53 -69 54 -158q1 -96 -57 -170q-65 -85 -172 -85q-75 0 -145 59l-68 -78l-24 22l72 81q-54 64 -55 162q-1 93 59 166q66 81 168 81q80 0 146 -56l67 75zM358 365q-48 80 -110 80q-116 0 -116 -175q0 -66 20 -133zM392 204q0 59 -20 128l-206 -228
q27 -47 51 -64.5t61 -17.5q114 0 114 182z" />
    <glyph glyph-name="ugrave" unicode="&#xf9;" 
d="M342 529h-42l-150 95q-45 28 -45 45q0 39 32 39q27 0 61 -34zM521 43l-141 -58h-23v99q-56 -59 -89.5 -79t-68.5 -20q-120 0 -120 181v208q0 44 -16.5 58t-62.5 14v19h164v-311q0 -106 77 -106q50 0 116 66v264q0 40 -18 55q-15 12 -57 13v19h160v-342q0 -70 31 -70
q22 0 41 8z" />
    <glyph glyph-name="uacute" unicode="&#xfa;" 
d="M418 675q0 -24 -42 -51l-150 -95h-42l144 145q34 34 63 34q8 0 17.5 -11.5t9.5 -21.5zM521 43l-141 -58h-23v99q-56 -59 -89.5 -79t-68.5 -20q-120 0 -120 181v208q0 44 -16.5 58t-62.5 14v19h164v-311q0 -106 77 -106q50 0 116 66v264q0 40 -18 55q-15 12 -57 13v19h160
v-342q0 -70 31 -70q22 0 41 8z" />
    <glyph glyph-name="ucircumflex" unicode="&#xfb;" 
d="M421 529h-36l-127 108l-127 -108h-36l131 174h65zM521 43l-141 -58h-23v99q-56 -59 -89.5 -79t-68.5 -20q-120 0 -120 181v208q0 44 -16.5 58t-62.5 14v19h164v-311q0 -106 77 -106q50 0 116 66v264q0 40 -18 55q-15 12 -57 13v19h160v-342q0 -70 31 -70q22 0 41 8z" />
    <glyph glyph-name="udieresis" unicode="&#xfc;" 
d="M416 623q0 -21 -15.5 -36.5t-36.5 -15.5t-36.5 16t-15.5 36t16.5 36t35.5 16q21 0 36.5 -15.5t15.5 -36.5zM208 623q0 -21 -15.5 -36.5t-36.5 -15.5q-20 0 -35.5 16t-15.5 36t16 36t35 16q21 0 36.5 -15.5t15.5 -36.5zM521 43l-141 -58h-23v99q-56 -59 -89.5 -79
t-68.5 -20q-120 0 -120 181v208q0 44 -16.5 58t-62.5 14v19h164v-311q0 -106 77 -106q50 0 116 66v264q0 40 -18 55q-15 12 -57 13v19h160v-342q0 -70 31 -70q22 0 41 8z" />
    <glyph glyph-name="yacute" unicode="&#xfd;" 
d="M428 675q0 -24 -42 -51l-150 -95h-42l144 145q34 34 63 34q8 0 17.5 -11.5t9.5 -21.5zM514 446q-24 -2 -36 -13q-15 -14 -33 -57l-189 -464q-26 -64 -69 -100.5t-88 -36.5q-30 0 -49.5 17t-19.5 41q0 46 52 46q13 0 41 -9t30 -9q39 0 70 77l33 81l-167 350q-15 32 -27 46
q-24 28 -56 31v19h217v-19h-11q-46 0 -46 -34q0 -20 17 -55l113 -234l104 257q19 37 6 55q-8 11 -43 11v19h151v-19z" />
    <glyph glyph-name="thorn" unicode="&#xfe;" 
d="M485 250q0 -112 -59 -188t-154 -77q-34 0 -54 6q-26 9 -57 36v-141q0 -56 12.5 -71t66.5 -18v-19h-244v19q58 3 71 20q10 13 10 71v685v41q-3 27 -17 35q-19 13 -55 -1l-6 17l143 57h19v-354q64 110 150 110q76 0 125 -65t49 -163zM394 202q0 90 -34 147t-90 57
q-25 0 -41 -9q-23 -13 -68 -59v-174q0 -54 5 -74q7 -30 33 -50q29 -23 71 -24q57 -1 90.5 49.5t33.5 136.5z" />
    <glyph glyph-name="ydieresis" unicode="&#xff;" 
d="M416 598q0 -21 -15.5 -36.5t-36.5 -15.5t-36.5 16t-15.5 36t16.5 36t35.5 16q21 0 36.5 -15.5t15.5 -36.5zM208 598q0 -21 -15.5 -36.5t-36.5 -15.5q-20 0 -35.5 16t-15.5 36t16 36t35 16q21 0 36.5 -15.5t15.5 -36.5zM514 446q-24 -2 -36 -13q-15 -14 -33 -57l-189 -464
q-26 -64 -69 -100.5t-88 -36.5q-30 0 -49.5 17t-19.5 41q0 46 52 46q13 0 41 -9t30 -9q39 0 70 77l33 81l-167 350q-15 32 -27 46q-24 28 -56 31v19h217v-19h-11q-46 0 -46 -34q0 -20 17 -55l113 -234l104 257q19 37 6 55q-8 11 -43 11v19h151v-19z" />
    <glyph glyph-name="OE" unicode="&#x152;" horiz-adv-x="925" 
d="M895 173l-55 -173h-332q-1 0 -71 -4t-88 -4q-136 0 -223.5 101t-87.5 250q0 151 85 249q88 103 237 103q-6 0 99 -4q79 -3 135 -3h240l6 -150h-16q-5 24 -9 48q-5 20 -12 28q-20 21 -23 23q-26 14 -89 14h-130v-271h92q60 0 83 24q24 21 24 74h20v-239h-20
q-4 62 -25.5 82t-81.5 20h-92v-227q0 -46 7 -57q10 -19 53 -19h54q51 0 77 6q33 8 57 31q40 38 66 98h20zM463 173v356q0 64 -10 87q-20 46 -91 46q-101 0 -155 -88q-52 -84 -52 -235q0 -130 46 -213q53 -98 159 -98q76 0 94 49q9 25 9 96z" />
    <glyph glyph-name="oe" unicode="&#x153;" horiz-adv-x="751" 
d="M717 172q-36 -185 -173 -187q-46 -1 -82.5 23t-53.5 60q-63 -82 -163 -83q-90 -1 -150.5 65.5t-60.5 174.5q0 114 62 185q60 68 153 68q103 0 159 -80q52 81 143 81q78 0 123 -50.5t43 -137.5h-278q-5 -101 34 -161t105 -60q83 0 122 110zM617 324q0 49 -19 81
q-24 40 -71 40q-33 0 -58 -29q-29 -34 -30 -92h178zM363 192q0 118 -32 186q-35 72 -101 72q-101 0 -101 -176q0 -109 35 -179q36 -73 95 -73q104 0 104 170z" />
    <glyph glyph-name="Scaron" unicode="&#x160;" horiz-adv-x="578" 
d="M432 923l-130 -174h-65l-131 174h36l127 -107l127 107h36zM523 176q0 -80 -61.5 -136t-155.5 -56q-55 0 -115.5 20t-69.5 20q-25 0 -31 -40h-18v236h18q12 -100 72 -151q53 -45 133 -45q61 0 100 34q37 31 37 78q0 48 -38 83q-29 26 -128 82q-121 68 -161 114
q-39 43 -39 108q0 75 55 128t145 53q47 0 99 -19.5t60 -19.5q23 0 33 39h19v-238h-19q-9 94 -62.5 146t-128.5 52q-50 0 -85.5 -31.5t-35.5 -74.5q0 -40 34 -72t137 -87q91 -49 132 -80q74 -56 74 -143z" />
    <glyph glyph-name="scaron" unicode="&#x161;" horiz-adv-x="405" 
d="M363 703l-130 -174h-65l-131 174h36l127 -107l127 107h36zM368 117q0 -53 -46.5 -92.5t-108.5 -39.5q-29 0 -70 14q-46 16 -55 17q-8 0 -18 -23h-17v166h17q13 -68 54 -107q38 -36 89 -36q36 0 57.5 20t22.5 49q1 36 -22 61t-95.5 62.5t-98.5 69.5t-26 76q0 54 40 89
t111 35q24 0 60 -9t41 -9q14 0 23 18h17v-158h-17q-31 129 -126 129q-88 0 -90 -61t76 -97l75 -35q107 -50 107 -139z" />
    <glyph glyph-name="Ydieresis" unicode="&#x178;" horiz-adv-x="751" 
d="M526 818q0 -21 -15.5 -36.5t-36.5 -15.5t-36.5 16t-15.5 36t16.5 36t35.5 16q21 0 36.5 -15.5t15.5 -36.5zM318 818q0 -21 -15.5 -36.5t-36.5 -15.5q-20 0 -35.5 16t-15.5 36t16 36t35 16q21 0 36.5 -15.5t15.5 -36.5zM736 670h-13q-44 0 -85 -45q-16 -18 -51 -72
l-167 -261v-172q0 -63 15 -80q18 -21 61 -21h22v-19h-292v19h24q42 0 62 27q10 17 10 74v163l-188 288q-21 33 -28 42q-14 19 -27 29q-36 28 -70 28v18h295v-18h-15q-24 0 -42 -10q-22 -13 -22 -35q0 -19 31 -67l143 -221l136 212q31 49 31 71q0 14 -9 26q-15 24 -61 24v18
h240v-18z" />
    <glyph glyph-name="florin" unicode="&#x192;" 
d="M508 648q0 -40 -35 -40q-32 0 -32 28q0 7 5.5 18t5.5 14q0 13 -17 13q-38 0 -56 -64q-8 -28 -30 -173h89l-8 -33h-88q-20 -114 -87 -360q-39 -145 -88 -209q-45 -60 -105 -60q-28 0 -44.5 15t-16.5 38q0 44 39 44q14 0 23.5 -8.5t9.5 -19.5q0 -9 -6 -17t-6 -12
q0 -10 13 -10q48 0 79 126q9 37 44 211q14 70 62 262h-88l7 33q62 4 79 17q14 13 35 75q33 99 70 137q30 31 76 31q30 0 50 -16t20 -40z" />
    <glyph glyph-name="circumflex" unicode="&#x2c6;" horiz-adv-x="326" 
d="M326 529h-36l-127 108l-127 -108h-36l131 174h65z" />
    <glyph glyph-name="tilde" unicode="&#x2dc;" horiz-adv-x="346" 
d="M346 682q-5 -44 -35 -76q-33 -35 -75 -35q-39 0 -78.5 24t-71.5 24q-21 0 -39 -15t-20 -33h-27q25 106 115 106q27 0 66.5 -23t65.5 -23q60 0 72 51h27z" />
    <glyph glyph-name="endash" unicode="&#x2013;" horiz-adv-x="500" 
d="M515 229h-537v39h537v-39zM0 760z" />
    <glyph glyph-name="emdash" unicode="&#x2014;" horiz-adv-x="1000" 
d="M1000 229h-1000v39h1000v-39zM0 760z" />
    <glyph glyph-name="quoteleft" unicode="&#x2018;" horiz-adv-x="346" 
d="M249 500q0 -28 -21.5 -43.5t-45.5 -15.5q-33 0 -59 27q-29 30 -29 74q0 118 132 162v-22q-85 -50 -85 -105q0 -31 19 -31q4 0 17.5 4t20.5 4q19 0 35 -15t16 -39z" />
    <glyph glyph-name="quoteright" unicode="&#x2019;" horiz-adv-x="346" 
d="M252 603q0 -118 -132 -162v22q85 50 85 105q0 31 -19 31q-4 0 -17.5 -4t-20.5 -4q-19 0 -35 15t-16 39q0 28 23 45q20 14 44 14q33 0 59 -27q29 -30 29 -74z" />
    <glyph glyph-name="quotesinglbase" unicode="&#x201a;" horiz-adv-x="346" 
d="M253 0q0 -118 -132 -162v22q85 50 85 105q0 31 -19 31q-4 0 -17.5 -4t-20.5 -4q-19 0 -35 15t-16 39q0 28 23 45q20 14 44 14q33 0 59 -27q29 -30 29 -74z" />
    <glyph glyph-name="quotedblleft" unicode="&#x201c;" horiz-adv-x="529" 
d="M432 501q0 -28 -21.5 -43.5t-45.5 -15.5q-33 0 -59 27q-29 30 -29 74q0 118 132 162v-22q-85 -50 -85 -105q0 -31 19 -31q4 0 17.5 4t20.5 4q19 0 35 -15t16 -39zM189 502q0 -28 -21.5 -43.5t-45.5 -15.5q-33 0 -59 27q-29 30 -29 74q0 118 132 162v-22q-85 -50 -85 -105
q0 -31 19 -31q4 0 17.5 4t20.5 4q19 0 35 -15t16 -39z" />
    <glyph glyph-name="quotedblright" unicode="&#x201d;" horiz-adv-x="529" 
d="M495 602q0 -118 -132 -162v22q85 50 85 105q0 31 -19 31q-4 0 -17.5 -4t-20.5 -4q-19 0 -35 15t-16 39q0 28 23 45q20 14 44 14q33 0 59 -27q29 -30 29 -74zM252 603q0 -118 -132 -162v22q85 50 85 105q0 31 -19 31q-4 0 -17.5 -4t-20.5 -4q-19 0 -35 15t-16 39
q0 28 23 45q20 14 44 14q33 0 59 -27q29 -30 29 -74z" />
    <glyph glyph-name="quotedblbase" unicode="&#x201e;" horiz-adv-x="461" 
d="M432 -1q0 -118 -132 -162v22q85 50 85 105q0 31 -19 31q-4 0 -17.5 -4t-20.5 -4q-19 0 -35 15t-16 39q0 28 23 45q20 14 44 14q33 0 59 -27q29 -30 29 -74zM189 0q0 -118 -132 -162v22q85 50 85 105q0 31 -19 31q-4 0 -17.5 -4t-20.5 -4q-19 0 -35 15t-16 39q0 28 23 45
q20 14 44 14q33 0 59 -27q29 -30 29 -74z" />
    <glyph glyph-name="dagger" unicode="&#x2020;" 
d="M469 463q0 -25 -19 -38q-15 -10 -34 -10q-35 0 -83 24q-24 12 -67 15q3 -79 51 -119q-30 -118 -41 -272q-4 -64 -10 -276h-18q-3 227 -17 355q-11 101 -35 193q26 22 37 47q9 20 15 72q-32 -1 -68 -17q-51 -22 -77 -22q-52 0 -52 48q0 22 16 36.5t37 14.5q16 0 76 -26
q31 -14 68 -15q0 35 -19 75q-27 56 -27 99q0 31 16 48t40 17q25 0 40 -20.5t15 -44.5q0 -27 -27 -95q-19 -47 -20 -79q31 1 67 15q65 25 82 25q22 0 38 -14t16 -36z" />
    <glyph glyph-name="daggerdbl" unicode="&#x2021;" 
d="M449 -7q0 -47 -47 -47q-18 0 -64 19q-17 7 -28 10q-19 5 -41 6q0 -28 18 -69q25 -57 25 -83q0 -24 -15.5 -39t-36.5 -15q-18 0 -34.5 15.5t-16.5 39.5q0 18 24 84q12 32 16 67q-34 0 -73 -17.5t-58 -17.5q-46 0 -46 45q0 46 49 46q20 0 58.5 -16.5t69.5 -16.5
q-6 29 -14 47q-9 15 -35 35q50 70 50 166q0 102 -50 158q26 18 33 34q7 11 16 52q-30 -2 -78 -23q-27 -11 -56 -11q-44 0 -44 44t43 44q24 0 67 -18q35 -14 68 -17q0 28 -19 76q-22 56 -22 75q0 22 14 39t38 17q49 0 49 -58q0 -19 -22 -72q-15 -36 -18 -77q38 3 68 17
q38 18 67 18q45 0 45 -45q0 -44 -48 -44q-29 0 -63 16q-30 14 -69 19q3 -31 14 -50q7 -15 34 -36q-48 -71 -48 -165q0 -93 48 -159q-25 -20 -34.5 -38t-13.5 -45q34 1 65 17q45 17 68 17q19 0 33 -12t14 -32z" />
    <glyph glyph-name="bullet" unicode="&#x2022;" horiz-adv-x="300" 
d="M265 340q0 -48 -33.5 -81.5t-81.5 -33.5t-81.5 33.5t-33.5 81.5t33.5 81.5t81.5 33.5t81.5 -33.5t33.5 -81.5z" />
    <glyph glyph-name="ellipsis" unicode="&#x2026;" horiz-adv-x="1042" 
d="M924 43q0 -24 -16 -41t-40 -17q-25 0 -40.5 17t-15.5 41t16 40t40 16q23 0 39.5 -16t16.5 -40zM576 43q0 -24 -16 -41t-40 -17q-25 0 -40.5 17t-15.5 41t16 40t40 16q23 0 39.5 -16t16.5 -40zM230 43q0 -24 -16 -41t-40 -17q-25 0 -40.5 17t-15.5 41t16 40t40 16
q23 0 39.5 -16t16.5 -40z" />
    <glyph glyph-name="perthousand" unicode="&#x2030;" horiz-adv-x="1098" 
d="M1080 258q0 -116 -69 -198q-63 -75 -136 -75q-132 0 -132 143q0 87 70 166t156 79q50 0 82 -37q29 -33 29 -78zM706 258q0 -116 -69 -198q-63 -75 -136 -75q-132 0 -132 143q0 87 70 166t156 79q50 0 82 -37q29 -33 29 -78zM590 707l-430 -723h-49l402 675
q-53 -48 -123 -48q-35 0 -75 12q4 -24 4 -39q0 -84 -46 -164q-54 -95 -136 -95q-62 0 -93 47q-26 40 -26 102q0 97 67 167q62 65 135 65q19 0 74 -35t102 -35t78 21q6 4 54 50h62zM1053 252q0 34 -18 59q-21 28 -54 28q-61 0 -112 -89q-47 -82 -47 -163q0 -30 17.5 -50
t47.5 -20q68 0 120 86q46 76 46 149zM679 252q0 34 -18 59q-21 28 -54 28q-61 0 -112 -91q-47 -84 -47 -161q0 -30 17.5 -50t47.5 -20q68 0 120 86q46 76 46 149zM292 583q0 35 -7 49q-36 18 -63 45q-54 -12 -92 -95q-33 -72 -33 -135q0 -90 52 -90q54 0 98.5 72t44.5 154z
" />
    <glyph glyph-name="guilsinglleft" unicode="&#x2039;" horiz-adv-x="346" 
d="M284 -4h-27l-197 240l197 238h27l-124 -238z" />
    <glyph glyph-name="guilsinglright" unicode="&#x203a;" horiz-adv-x="346" 
d="M286 234l-197 -238h-27l124 238l-124 240h27z" />
    <glyph glyph-name="trademark" unicode="&#x2122;" horiz-adv-x="1019" 
d="M1002 279h-202v18q38 0 49 12.5t11 53.5v251l-156 -335h-16l-157 329v-244q0 -43 10.5 -55t55.5 -12v-18h-155v18q39 0 49 15q8 11 8 52v236q0 44 -7 55q-11 15 -50 15v18h145l139 -290l134 290h142v-18q-39 2 -50 -18q-7 -12 -7 -51v-237q0 -39 9 -51q10 -16 48 -16v-18
zM407 587h-18q-6 71 -98 71h-38v-294q0 -41 8 -52q10 -14 46 -15v-18h-191v18q38 6 45 18q6 9 6 49v294h-38q-46 0 -66.5 -14.5t-30.5 -56.5h-16l7 101h376z" />
    <glyph glyph-name="periodcentered" unicode="&#x2219;" horiz-adv-x="188" 
d="M153 340q0 -25 -17 -42t-42 -17t-42 17t-17 42t17 42t42 17t42 -17t17 -42z" />
    <glyph glyph-name="9910" horiz-adv-x="178" 
d="M128 248q0 -17 -11 -28.5t-28 -11.5q-39 0 -39 40q0 38 39 38q16 0 27.5 -11t11.5 -27z" />
    <glyph glyph-name="1830" horiz-adv-x="549" 
d="M538 677q-32 -5 -47 -36l-112 -241h-15l-84 179l-97 -179h-13l-108 235q-16 34 -54 42v11h141v-11q-19 -1 -25 -6q-12 -9 0 -36l72 -161l72 131l-19 42q-7 16 -23 25q-9 4 -30 5v11h159v-11q-28 -2 -37 -8q-5 -4 -7 -12q-2 -9 3 -16l76 -160l70 154q8 18 8 26
q0 16 -36 16v11h106v-11z" />
    <glyph glyph-name="x" 
d="M508 0h-220v19q46 0 46 29q0 9 -5 16l-96 142l-101 -135q-8 -10 -8 -22q0 -28 46 -30v-19h-152v19q20 1 38.5 18t57.5 69l98 130l-88 128q-37 53 -58 68q-17 12 -52 14v19h219v-19q-39 2 -39 -25q0 -7 3 -12l66 -104l69 100q6 8 6 17q0 24 -37 24v19h157v-19
q-31 -1 -53 -19t-59 -69l-63 -86l116 -166q30 -43 61 -74q11 -11 48 -13v-19z" />
    <glyph glyph-name="6813" horiz-adv-x="135" 
d="M135 -162q0 -67 -67 -67q-31 0 -49.5 18.5t-18.5 48.5q0 31 18.5 49.5t49.5 18.5q67 0 67 -68z" />
    <glyph glyph-name="7033" horiz-adv-x="620" 
d="M595 108q0 -58 -22.5 -90.5t-62.5 -32.5q-59 0 -123 157l-99 241l-186 -383h-87l233 478l-9 23h-129v52h107q-38 78 -100 80q-57 1 -57 -78h-24q-2 11 -2 46q0 57 22.5 89.5t62.5 32.5q38 0 62 -26q32 -35 70 -136l3 -8h150v-52h-128l131 -312q23 -54 37 -74
q27 -37 67 -40q57 -4 57 80h24q3 -24 3 -47z" />
  </font>
</defs>
</svg>
