<?xml version="1.0" standalone="no"?>
<!DOCTYPE svg PUBLIC "-//W3C//DTD SVG 1.1//EN" "http://www.w3.org/Graphics/SVG/1.1/DTD/svg11.dtd" >
<svg>
<metadata>
Created by FontForge 20110222 at Fri Mar 20 15:39:52 2015
 By deploy user
Version 3.0 (c) (c) Copyright 1994-1997 Summer Institute of Linguistics, 7500 W. Camp Wisdom Rd., Dallas, TX 75236 USA (972) 708-7495 RWE
</metadata>
<defs>
<font id="Salish2Salish2SILDoulosBold" horiz-adv-x="520" >
  <font-face 
    font-family="Salish2 Salish2 SILDoulos"
    font-weight="700"
    font-stretch="normal"
    units-per-em="1000"
    panose-1="0 0 7 0 0 0 0 0 0 0"
    ascent="800"
    descent="-200"
    x-height="474"
    cap-height="688"
    bbox="-35 -298 1247 963"
    underline-thickness="20"
    underline-position="-123"
    unicode-range="U+0020-2219"
  />
<missing-glyph horiz-adv-x="500" 
d="M63 0v760h375v-760h-375zM125 63h250v635h-250v-635z" />
    <glyph glyph-name=".notdef" horiz-adv-x="500" 
d="M63 0v760h375v-760h-375zM125 63h250v635h-250v-635z" />
    <glyph glyph-name="glyph1" horiz-adv-x="0" 
 />
    <glyph glyph-name="space" unicode=" " horiz-adv-x="300" 
 />
    <glyph glyph-name="exclam" unicode="!" horiz-adv-x="346" 
d="M257 619q0 -57 -35.5 -205t-35.5 -191h-26q0 43 -35.5 191t-35.5 205q0 34 25 59t59 25t59 -25t25 -59zM256 68q0 -34 -24.5 -58.5t-58.5 -24.5t-58.5 24.5t-24.5 58.5t24.5 58.5t58.5 24.5t58.5 -24.5t24.5 -58.5z" />
    <glyph glyph-name="quotedbl" unicode="&#x22;" horiz-adv-x="574" 
d="M485 628q0 -27 -64 -262h-24q-63 235 -63 262q0 31 22 53t53 22t53.5 -22t22.5 -53zM240 628q0 -27 -64 -262h-24q-63 235 -63 262q0 31 22 53t53 22t53.5 -22t22.5 -53z" />
    <glyph glyph-name="numbersign" unicode="#" horiz-adv-x="519" 
d="M499 201h-126l-43 -216h-72l44 216h-142l-45 -216h-70l43 216h-68v70h83l27 143h-110v71h125l44 218h71l-44 -218h143l43 218h72l-45 -218h70v-71h-84l-28 -143h112v-70zM345 414h-142l-28 -143h141z" />
    <glyph glyph-name="dollar" unicode="$" horiz-adv-x="530" 
d="M488 183q0 -75 -45 -125q-53 -59 -155 -68v-60h-44v54q-103 3 -191 39v164h22q24 -153 169 -164v252q-117 75 -151 108q-52 52 -52 119q0 77 59 126q55 46 144 55v24h44v-24q89 -5 175 -53v-146h-21q-16 67 -57.5 110t-96.5 54v-224q115 -75 147 -108q53 -55 53 -133z
M244 452v197q-35 0 -65 -25t-30 -61q0 -50 95 -111zM373 118q0 63 -85 125v-220q85 22 85 95z" />
    <glyph glyph-name="percent" unicode="%" horiz-adv-x="879" 
d="M835 253q0 -96 -63 -177q-72 -92 -179 -92q-76 0 -108 40q-29 35 -29 110q0 89 75 171q78 87 173 87q131 0 131 -139zM706 706l-424 -721h-96l381 646q-65 -29 -97 -29q-25 0 -56 10q8 -24 8 -59q0 -96 -66 -179q-71 -90 -168 -90q-79 0 -113 36q-31 33 -31 106
q0 103 78 184.5t177 81.5q45 0 86.5 -27t80.5 -27q93 1 146 68h94zM796 242q0 110 -66 110q-47 0 -106 -82q-64 -89 -64 -180q0 -29 20 -46.5t53 -17.5q50 0 106.5 74.5t56.5 141.5zM385 542q0 110 -62 110q-54 0 -113 -82q-62 -87 -62 -180q0 -29 20 -46.5t54 -17.5
q53 0 109 79q54 76 54 137z" />
    <glyph glyph-name="ampersand" unicode="&#x26;" horiz-adv-x="864" 
d="M822 127q-36 -64 -59 -89q-49 -53 -112 -53q-48 0 -90 23q-29 17 -73 58q-113 -81 -234 -81q-97 0 -154.5 49t-57.5 127q0 85 70 147q48 42 142 81q-26 64 -26 128q0 80 56.5 133t143.5 53q71 0 114.5 -34t43.5 -85q0 -105 -178 -172q62 -105 167 -218q75 79 75 142
q0 47 -58 56v20h211v-20q-50 -5 -86 -61q-79 -124 -114 -165q89 -78 131 -78q34 0 67 49zM480 540q0 47 -22 84t-57 37q-58 0 -58 -71q0 -54 47 -148q41 16 56 28q34 27 34 70zM456 97q-118 114 -188 260q-81 -32 -81 -102q0 -72 55.5 -132.5t115.5 -60.5q41 0 98 35z" />
    <glyph glyph-name="quotesingle" unicode="'" horiz-adv-x="237" 
d="M194 628q0 -27 -64 -262h-24q-63 235 -63 262q0 31 22 53t53 22t53.5 -22t22.5 -53z" />
    <glyph glyph-name="parenleft" unicode="(" horiz-adv-x="356" 
d="M332 -208q-126 44 -209 171t-83 284t83 284.5t209 171.5v-22q-88 -49 -124 -164q-31 -98 -31 -270t31 -268q36 -112 124 -162v-25z" />
    <glyph glyph-name="parenright" unicode=")" horiz-adv-x="356" 
d="M332 247q0 -157 -83 -284t-209 -171v25q88 50 124 162q31 96 31 268t-31 270q-36 115 -124 164v22q126 -44 209 -171.5t83 -284.5z" />
    <glyph glyph-name="asterisk" unicode="*" horiz-adv-x="527" 
d="M469 539q0 -24 -19.5 -40t-43.5 -16q-10 0 -35.5 4.5t-41.5 4.5q-25 0 -50 -8q23 -30 85 -63q44 -23 44 -61q0 -52 -50 -52q-35 0 -51 32q-6 13 -18 69q-10 45 -27 64q-16 -18 -26 -64q-11 -56 -18 -69q-15 -32 -50 -32q-22 0 -36.5 14.5t-14.5 36.5q0 38 47 63
q62 33 83 63q-25 8 -45 8q-17 0 -44 -4.5t-37 -4.5q-25 0 -44 17t-19 42q0 21 17.5 35t39.5 14q25 0 63 -38q43 -42 76 -50q0 39 -22 81.5t-22 58.5q0 22 15.5 40.5t37.5 18.5q23 0 38.5 -17.5t15.5 -41.5q0 -16 -21.5 -58.5t-21.5 -82.5q36 10 76 52q35 36 63 36
q24 0 40 -14.5t16 -37.5z" />
    <glyph glyph-name="plus" unicode="+" horiz-adv-x="1000" 
d="M800 269h-269v-269h-62v269h-269v62h269v269h62v-269h269v-62z" />
    <glyph glyph-name="comma" unicode="," horiz-adv-x="270" 
d="M233 29q0 -77 -47 -132.5t-127 -78.5v22q59 24 89 73q23 37 23 74q0 18 -11 18q-2 0 -13 -6t-23 -6q-35 0 -59.5 22.5t-24.5 56.5q0 35 24.5 59.5t59.5 24.5q47 0 78 -33t31 -94z" />
    <glyph glyph-name="hyphen" unicode="-" horiz-adv-x="356" 
d="M336 188h-316v101h316v-101zM0 760z" />
    <glyph glyph-name="period" unicode="." horiz-adv-x="270" 
d="M219 72q0 -35 -24.5 -59.5t-59.5 -24.5t-59.5 24.5t-24.5 59.5t24.5 59.5t59.5 24.5t59.5 -24.5t24.5 -59.5z" />
    <glyph glyph-name="1039" unicode="/" horiz-adv-x="477" 
d="M438 542q0 -60 -50 -116q-53 -52 -105 -105q-60 -69 -60 -146h-27q0 81 12 129q10 42 41 98q35 64 35 140q0 59 -24.5 93.5t-66.5 34.5q-19 0 -38.5 -11.5t-19.5 -27.5q0 -8 15.5 -39.5t15.5 -51.5q0 -24 -15.5 -41t-39.5 -17q-34 0 -53 19.5t-19 50.5q0 60 47 103
q54 48 150 48q86 0 141 -39q61 -43 61 -122z" />
    <glyph glyph-name="zero" unicode="0" horiz-adv-x="530" 
d="M487 344q0 -143 -50 -241q-60 -118 -172 -118t-172 118q-50 98 -50 241t50 241q60 118 172 118t172 -118q50 -98 50 -241zM331 344q0 322 -66 322q-69 0 -69 -322t69 -322q66 0 66 322z" />
    <glyph glyph-name="one" unicode="1" horiz-adv-x="530" 
d="M446 0h-362v19q64 0 88 18.5t24 70.5v382q0 45 -3 57q-9 38 -47 38q-25 0 -62 -17l-9 19l253 116h17v-595q0 -54 19.5 -71.5t81.5 -17.5v-19z" />
    <glyph glyph-name="two" unicode="2" horiz-adv-x="530" 
d="M481 199l-38 -199h-406v13q166 196 213 273q53 86 53 173q0 53 -31 88.5t-85 35.5q-76 0 -119 -79l-20 8q24 86 77 136q57 55 137 55q77 0 132 -51.5t55 -122.5q0 -94 -92 -214q-49 -65 -169 -182h172q48 0 64.5 10.5t37.5 55.5h19z" />
    <glyph glyph-name="three" unicode="3" horiz-adv-x="530" 
d="M475 241q0 -111 -80 -183.5t-202 -72.5q-65 0 -107 16q-54 20 -54 63q0 25 15 42t42 17q25 0 79.5 -46t101.5 -46q39 0 64.5 30.5t25.5 72.5q0 80 -58 140q-53 55 -133 71v18q67 20 98 48q37 33 37 87q0 43 -32 73t-76 30q-65 0 -120 -75l-18 6q27 71 82 118
q61 53 137 53q67 0 115 -40q50 -43 50 -108q0 -81 -89 -135q122 -53 122 -179z" />
    <glyph glyph-name="four" unicode="4" horiz-adv-x="530" 
d="M482 155h-62v-155h-139v155h-250v105l328 443h61v-443h62v-105zM281 260v271l-201 -271h201z" />
    <glyph glyph-name="five" unicode="5" horiz-adv-x="530" 
d="M487 688l-52 -131h-271l-27 -68q138 -2 236 -63q112 -71 112 -190q0 -113 -89 -184q-82 -67 -198 -67q-58 0 -104 22q-52 24 -52 63q0 20 16.5 37t36.5 17q37 0 100 -43.5t102 -43.5t69 31t30 70q0 104 -108 159q-86 44 -200 44h-48l124 347h323z" />
    <glyph glyph-name="six" unicode="6" horiz-adv-x="530" 
d="M492 688q-135 -34 -202 -105q-57 -60 -84 -174q45 30 104 30q83 0 133 -62q46 -57 46 -140q0 -107 -54 -175q-60 -77 -172 -77q-99 0 -164 91q-59 82 -59 189q0 181 123 306q128 132 329 132v-15zM345 160q0 224 -91 224q-22 0 -54 -16q-6 -87 -5 -109q9 -240 92 -240
q58 0 58 141z" />
    <glyph glyph-name="seven" unicode="7" horiz-adv-x="530" 
d="M490 688l-231 -703h-80l188 569h-148q-73 0 -108 -15q-40 -18 -61 -64h-20l50 213h410z" />
    <glyph glyph-name="eight" unicode="8" horiz-adv-x="530" 
d="M489 182q0 -86 -66 -141.5t-167 -55.5q-95 0 -155 47t-60 127q0 110 140 173q-69 55 -92 85q-36 47 -36 108q0 76 61 125.5t151 49.5q98 0 155 -43t57 -114q0 -53 -33 -92q-26 -31 -84 -63q62 -46 92 -87q37 -54 37 -119zM359 546q0 52 -23.5 87.5t-65.5 35.5
q-34 0 -57.5 -26t-23.5 -61q0 -92 132 -167q38 56 38 131zM351 115q0 61 -39 111q-26 32 -93 82q-49 -41 -49 -149q0 -64 23 -100q25 -40 72 -40q38 0 62 28t24 68z" />
    <glyph glyph-name="nine" unicode="9" horiz-adv-x="530" 
d="M490 423q0 -181 -122 -306q-129 -132 -330 -132v15q135 34 202 105q57 60 84 174q-45 -30 -104 -30q-83 0 -133 62q-46 57 -46 140q0 107 54 175q60 77 172 77q99 0 164 -90q59 -83 59 -190zM335 429q-9 240 -92 240q-58 0 -58 -141q0 -224 91 -224q22 0 54 16
q6 87 5 109z" />
    <glyph glyph-name="colon" unicode=":" horiz-adv-x="270" 
d="M219 404q0 -35 -24.5 -59.5t-59.5 -24.5t-59.5 24.5t-24.5 59.5t24.5 59.5t59.5 24.5t59.5 -24.5t24.5 -59.5zM219 72q0 -35 -24.5 -59.5t-59.5 -24.5t-59.5 24.5t-24.5 59.5t24.5 59.5t59.5 24.5t59.5 -24.5t24.5 -59.5z" />
    <glyph glyph-name="semicolon" unicode=";" horiz-adv-x="270" 
d="M220 404q0 -35 -24.5 -59.5t-59.5 -24.5t-59.5 24.5t-24.5 59.5t24.5 59.5t59.5 24.5t59.5 -24.5t24.5 -59.5zM233 29q0 -77 -47 -132.5t-127 -78.5v22q59 24 89 73q23 37 23 74q0 18 -11 18q-2 0 -13 -6t-23 -6q-35 0 -59.5 22.5t-24.5 56.5q0 35 24.5 59.5t59.5 24.5
q47 0 78 -33t31 -94z" />
    <glyph glyph-name="less" unicode="&#x3c;" horiz-adv-x="1000" 
d="M800 39l-600 230v62l600 230v-62l-536 -199l536 -199v-62z" />
    <glyph glyph-name="equal" unicode="=" horiz-adv-x="1000" 
d="M800 360h-600v62h600v-62zM800 178h-600v62h600v-62z" />
    <glyph glyph-name="ch62:9910+9910" unicode="&#x3e;" horiz-adv-x="224" 
d="M181 268q0 -24 -20 -41t-49 -17t-49 17t-20 41t20 41t49 17t49 -17t20 -41zM181 268q0 -24 -20 -41t-49 -17t-49 17t-20 41t20 41t49 17t49 -17t20 -41z" />
    <glyph glyph-name="question" unicode="?" 
d="M462 542q0 -60 -50 -116q-20 -22 -69 -54t-67 -55q-29 -37 -29 -92h-22q0 63 9 93q7 25 39 84q35 64 35 140q0 59 -24.5 93.5t-66.5 34.5q-19 0 -38.5 -11.5t-19.5 -27.5q0 -8 15.5 -39.5t15.5 -51.5q0 -24 -15.5 -41t-39.5 -17q-34 0 -53 19.5t-19 50.5q0 60 47 103
q54 48 150 48q86 0 141 -39q61 -43 61 -122zM325 69q0 -35 -24.5 -59.5t-59.5 -24.5t-59.5 24.5t-24.5 59.5t24.5 59.5t59.5 24.5t59.5 -24.5t24.5 -59.5z" />
    <glyph glyph-name="at" unicode="@" horiz-adv-x="967" 
d="M944 84q-55 -142 -172 -225q-120 -84 -277 -84q-190 0 -316 121q-132 125 -132 324q0 206 131 342q136 141 357 141q175 0 274 -99q94 -93 94 -247q0 -144 -85 -249q-88 -108 -220 -108q-103 0 -103 92q0 27 13 68q-51 -82 -77 -109q-48 -51 -102 -51q-41 0 -64 36
q-19 32 -19 78q0 129 88 252t177 123q56 0 70 -77l19 58l123 4q-44 -144 -87 -289q-22 -76 -22 -108q0 -16 11.5 -28.5t31.5 -12.5q34 0 82 36q57 42 93 107q43 81 42 179q-2 134 -91 223.5t-231 89.5q-202 0 -331 -142q-122 -135 -122 -332q0 -176 118 -287
q114 -106 283 -106q143 0 257 78q110 77 156 202h31zM558 383q0 69 -35 69q-49 0 -100 -128q-45 -115 -45 -185q0 -45 26 -45q43 0 98.5 100t55.5 189z" />
    <glyph glyph-name="ch65:1021+1830+9038" unicode="A" horiz-adv-x="1428" 
d="M557 -223h-274v19q45 1 58 16t13 58v180q-65 -65 -134 -65q-79 0 -127 60q-53 66 -53 192q0 99 67 175.5t164 76.5q85 0 128 -55l79 55h18v-619q0 -41 9 -54q12 -18 52 -20v-19zM354 95v229q0 130 -73 130q-93 0 -93 -227q0 -184 80 -184q41 0 86 52zM1247 723
q-21 -2 -32 -16q-7 -9 -20 -40l-96 -227h-21l-94 209l-91 -209h-19l-101 230q-21 47 -53 53v10h173v-10q-31 -2 -31 -13q0 -5 7 -20l55 -123l48 109q-9 22 -14 30q-12 15 -34 17v10h180v-10q-37 -1 -37 -15q0 -7 10 -29l50 -112l47 110q7 16 7 24q0 20 -35 22v10h101v-10z
M710 616q0 -78 -46.5 -132.5t-129.5 -78.5v24q60 24 90 72q24 37 24 73q0 18 -11 18q-1 0 -14.5 -7t-31.5 -7q-30 0 -52 23.5t-22 57.5q0 35 24.5 59.5t59.5 24.5q47 0 78 -33t31 -94z" />
    <glyph glyph-name="B" unicode="B" horiz-adv-x="694" 
d="M657 188q0 -88 -80 -140q-72 -48 -177 -48h-379v19q61 0 79 17.5t18 71.5v472q0 54 -18 71.5t-79 17.5v19h384q107 0 168 -55q51 -45 51 -106t-27 -94q-36 -43 -136 -68q196 -38 196 -177zM454 514q0 131 -143 135l-33 1v-271l33 1q143 4 143 134zM478 183
q0 150 -167 155l-33 1v-241q0 -35 13 -47.5t43 -12.5q56 0 96 33q48 40 48 112z" />
    <glyph glyph-name="ch67:1004+9038" unicode="C" horiz-adv-x="592" 
d="M439 110q-69 -125 -194 -125q-84 0 -141 63q-64 70 -64 189q0 87 47 158q63 94 179 94q75 0 120 -41q38 -35 38 -79q0 -29 -17.5 -46t-44.5 -17q-48 0 -63 38q-8 35 -15 71q-10 38 -42 38q-31 0 -49 -47q-17 -41 -17 -101q0 -37 7 -68q21 -96 59 -136q32 -34 84 -34
q43 0 96 56zM602 616q0 -78 -46.5 -132.5t-129.5 -78.5v24q60 24 90 72q24 37 24 73q0 18 -11 18q-1 0 -14.5 -7t-31.5 -7q-30 0 -52 23.5t-22 57.5q0 35 24.5 59.5t59.5 24.5q47 0 78 -33t31 -94z" />
    <glyph glyph-name="ch68:7004+9038" unicode="D" horiz-adv-x="652" 
d="M395 729l-109 -191h-110l-109 191h43l121 -101l121 101h43zM439 110q-69 -125 -194 -125q-84 0 -141 63q-64 70 -64 189q0 87 47 158q63 94 179 94q75 0 120 -41q38 -35 38 -79q0 -29 -17.5 -46t-44.5 -17q-48 0 -63 38q-8 35 -15 71q-10 38 -42 38q-31 0 -49 -47
q-17 -41 -17 -101q0 -37 7 -68q21 -96 59 -136q32 -34 84 -34q43 0 96 56zM632 616q0 -78 -46.5 -132.5t-129.5 -78.5v24q60 24 90 72q24 37 24 73q0 18 -11 18q-1 0 -14.5 -7t-31.5 -7q-30 0 -52 23.5t-22 57.5q0 35 24.5 59.5t59.5 24.5q47 0 78 -33t31 -94z" />
    <glyph glyph-name="ch69:1021+1830" unicode="E" horiz-adv-x="1078" 
d="M557 -223h-274v19q45 1 58 16t13 58v180q-65 -65 -134 -65q-79 0 -127 60q-53 66 -53 192q0 99 67 175.5t164 76.5q85 0 128 -55l79 55h18v-619q0 -41 9 -54q12 -18 52 -20v-19zM354 95v229q0 130 -73 130q-93 0 -93 -227q0 -184 80 -184q41 0 86 52zM1072 683
q-21 -2 -32 -16q-7 -9 -20 -40l-96 -227h-21l-94 209l-91 -209h-19l-101 230q-21 47 -53 53v10h173v-10q-31 -2 -31 -13q0 -5 7 -20l55 -123l48 109q-9 22 -14 30q-12 15 -34 17v10h180v-10q-37 -1 -37 -15q0 -7 10 -29l50 -112l47 110q7 16 7 24q0 20 -35 22v10h101v-10z
" />
    <glyph glyph-name="ch70:1241+9038" unicode="F" horiz-adv-x="747" 
d="M438 552q0 -31 -19 -50.5t-53 -19.5q-24 0 -39.5 17t-15.5 41q0 20 15.5 51.5t15.5 39.5q0 16 -19.5 27.5t-38.5 11.5q-41 0 -66 -43.5t-25 -104.5q0 -55 36.5 -104.5t99.5 -72.5v-252q0 -42 9 -55q10 -18 47 -19v-19h-236v19q37 1 49 19q9 14 9 55v230
q-67 7 -117.5 65.5t-50.5 133.5q0 89 61 138q55 43 141 43q96 0 150 -48q47 -43 47 -103zM700 646q0 -78 -46.5 -132.5t-129.5 -78.5v24q60 24 90 72q24 37 24 73q0 18 -11 18q-1 0 -14.5 -7t-31.5 -7q-30 0 -52 23.5t-22 57.5q0 35 24.5 59.5t59.5 24.5q47 0 78 -33t31 -94
z" />
    <glyph glyph-name="G" unicode="G" horiz-adv-x="809" 
d="M795 270q-54 0 -69 -20q-12 -16 -12 -69v-137q-134 -59 -300 -59q-180 0 -283 112q-92 100 -92 247q0 143 100 247q109 112 279 112q84 0 152 -25t81 -25q27 0 44 51h19v-241h-20q-24 88 -98 146q-70 54 -147 54q-228 0 -228 -319q0 -148 43 -225q53 -94 177 -94
q67 0 113 23v133q0 53 -17.5 71t-70.5 18v19h329v-19z" />
    <glyph glyph-name="H" unicode="H" horiz-adv-x="808" 
d="M789 0h-354v19q61 0 79 17.5t18 71.5v223h-255v-223q0 -54 18 -71.5t79 -17.5v-19h-354v19q61 0 79 17.5t18 71.5v472q0 54 -18 71.5t-79 17.5v19h354v-19q-61 0 -79 -17.5t-18 -71.5v-205h255v205q0 54 -18 71.5t-79 17.5v19h354v-19q-61 0 -79 -17.5t-18 -71.5v-472
q0 -54 18 -71.5t79 -17.5v-19z" />
    <glyph glyph-name="I" unicode="I" horiz-adv-x="396" 
d="M375 0h-354v19q61 0 79 17.5t18 71.5v472q0 54 -18 71.5t-79 17.5v19h354v-19q-61 0 -79 -17.5t-18 -71.5v-472q0 -54 18 -71.5t79 -17.5v-19z" />
    <glyph glyph-name="ch74:1014+9038+1830" unicode="J" horiz-adv-x="1298" 
d="M588 0h-245v19q30 0 30 19q0 13 -16 37l-98 143l-32 -31v-104q0 -32 8 -44q11 -17 45 -20v-19h-246v19q34 3 44 19q7 11 7 45v508q0 43 -5 54q-9 19 -46 25v18h193v-453l128 126q34 34 34 58q0 33 -55 36v19h213v-19q-48 0 -91 -42l-103 -100l170 -248q17 -25 27 -33
q14 -11 38 -13v-19zM685 646q0 -78 -46.5 -132.5t-129.5 -78.5v24q60 24 90 72q24 37 24 73q0 18 -11 18q-1 0 -14.5 -7t-31.5 -7q-30 0 -52 23.5t-22 57.5q0 35 24.5 59.5t59.5 24.5q47 0 78 -33t31 -94zM1232 753q-21 -2 -32 -16q-7 -9 -20 -40l-96 -227h-21l-94 209
l-91 -209h-19l-101 230q-21 47 -53 53v10h173v-10q-31 -2 -31 -13q0 -5 7 -20l55 -123l48 109q-9 22 -14 30q-12 15 -34 17v10h180v-10q-37 -1 -37 -15q0 -7 10 -29l50 -112l47 110q7 16 7 24q0 20 -35 22v10h101v-10z" />
    <glyph glyph-name="ch75:1014+9038" unicode="K" horiz-adv-x="788" 
d="M588 0h-245v19q30 0 30 19q0 13 -16 37l-98 143l-32 -31v-104q0 -32 8 -44q11 -17 45 -20v-19h-246v19q34 3 44 19q7 11 7 45v508q0 43 -5 54q-9 19 -46 25v18h193v-453l128 126q34 34 34 58q0 33 -55 36v19h213v-19q-48 0 -91 -42l-103 -100l170 -248q17 -25 27 -33
q14 -11 38 -13v-19zM690 646q0 -78 -46.5 -132.5t-129.5 -78.5v24q60 24 90 72q24 37 24 73q0 18 -11 18q-1 0 -14.5 -7t-31.5 -7q-30 0 -52 23.5t-22 57.5q0 35 24.5 59.5t59.5 24.5q47 0 78 -33t31 -94z" />
    <glyph glyph-name="ch76:1015+9038" unicode="L" horiz-adv-x="449" 
d="M278 0h-256v19q37 1 48 19q8 13 8 55v498q0 48 -9.5 61.5t-46.5 17.5v18h198v-595q0 -41 10 -55q11 -18 48 -19v-19zM461 646q0 -78 -46.5 -132.5t-129.5 -78.5v24q60 24 90 72q24 37 24 73q0 18 -11 18q-1 0 -14.5 -7t-31.5 -7q-30 0 -52 23.5t-22 57.5q0 35 24.5 59.5
t59.5 24.5q47 0 78 -33t31 -94z" />
    <glyph glyph-name="ch77:1017+9038" unicode="M" horiz-adv-x="1026" 
d="M839 0h-240v19q26 5 36.5 20.5t10.5 53.5v261q0 68 -46 68q-49 0 -90 -64v-265q0 -39 7 -51q10 -19 46 -23v-19h-246v19q34 4 44 22q7 14 7 52v261q0 69 -46 69q-44 0 -91 -66v-264q0 -57 26 -68q9 -4 25 -6v-19h-244v19q36 4 46 23q5 11 5 51v284q0 42 -5 54
q-10 20 -46 25v18h193v-63q39 43 69 59q34 19 78 19q91 0 123 -87q73 87 155 87q132 0 132 -165v-231q0 -40 7 -53q10 -17 44 -21v-19zM999 616q0 -78 -46.5 -132.5t-129.5 -78.5v24q60 24 90 72q24 37 24 73q0 18 -11 18q-1 0 -14.5 -7t-31.5 -7q-30 0 -52 23.5t-22 57.5
q0 35 24.5 59.5t59.5 24.5q47 0 78 -33t31 -94z" />
    <glyph glyph-name="ch78:1018+9038" unicode="N" horiz-adv-x="728" 
d="M548 0h-240v19q31 5 40 25q7 13 7 49v261q0 66 -46 66q-43 0 -81 -64v-263q0 -36 7 -50q10 -19 41 -24v-19h-241v19q36 4 46 23q5 11 5 51v284q0 42 -5 54q-10 20 -46 25v18h193v-61q71 76 137 76q132 0 132 -165v-231q0 -40 7 -53q10 -17 44 -21v-19zM670 616
q0 -78 -46.5 -132.5t-129.5 -78.5v24q60 24 90 72q24 37 24 73q0 18 -11 18q-1 0 -14.5 -7t-31.5 -7q-30 0 -52 23.5t-22 57.5q0 35 24.5 59.5t59.5 24.5q47 0 78 -33t31 -94z" />
    <glyph glyph-name="1615" unicode="O" horiz-adv-x="371" 
d="M381 347q-43 -33 -49 -37q-34 -23 -66 -34v-183q0 -41 10 -55q11 -18 48 -19v-19h-256v19q37 1 48 19q8 13 8 55v176q-60 10 -97 41.5t-37 79.5q0 53 36 79q26 20 64 20q17 0 34 -10v112q0 48 -9.5 61.5t-46.5 17.5v18h198v-369q37 17 89 55zM124 310v120q-13 16 -36 16
q-47 0 -47 -51q0 -69 83 -85z" />
    <glyph glyph-name="ch80:1020+9038" unicode="P" horiz-adv-x="829" 
d="M535 237q0 -104 -48 -175q-51 -77 -138 -77q-76 0 -130 63v-178q0 -45 13.5 -59.5t57.5 -14.5v-19h-270v19q37 1 48 19q9 13 9 55v507q0 44 -6 56q-10 18 -51 23v18h199v-62q53 77 134 77q77 0 129.5 -71t52.5 -181zM385 237q0 189 -80 189q-50 0 -86 -71v-256
q51 -62 96 -62q70 0 70 200zM721 616q0 -78 -46.5 -132.5t-129.5 -78.5v24q60 24 90 72q24 37 24 73q0 18 -11 18q-1 0 -14.5 -7t-31.5 -7q-30 0 -52 23.5t-22 57.5q0 35 24.5 59.5t59.5 24.5q47 0 78 -33t31 -94z" />
    <glyph glyph-name="ch81:1021+9038" unicode="Q" horiz-adv-x="788" 
d="M557 -223h-274v19q45 1 58 16t13 58v180q-65 -65 -134 -65q-79 0 -127 60q-53 66 -53 192q0 99 67 175.5t164 76.5q85 0 128 -55l79 55h18v-619q0 -41 9 -54q12 -18 52 -20v-19zM354 95v229q0 130 -73 130q-93 0 -93 -227q0 -184 80 -184q41 0 86 52zM760 636
q0 -78 -46.5 -132.5t-129.5 -78.5v24q60 24 90 72q24 37 24 73q0 18 -11 18q-1 0 -14.5 -7t-31.5 -7q-30 0 -52 23.5t-22 57.5q0 35 24.5 59.5t59.5 24.5q47 0 78 -33t31 -94z" />
    <glyph glyph-name="ch82:1022+9038" unicode="R" horiz-adv-x="702" 
d="M446 420q0 -30 -15.5 -50t-41.5 -20t-49 20t-32 20q-40 0 -61 -68q-15 -48 -15 -96v-133q0 -43 8 -55q11 -18 54 -19v-19h-256v19q34 2 45 23q7 13 7 51v284q0 48 -8.5 61.5t-43.5 17.5v18h194v-107q45 63 64 82q41 40 88 40q62 0 62 -69zM667 606q0 -78 -46.5 -132.5
t-129.5 -78.5v24q60 24 90 72q24 37 24 73q0 18 -11 18q-1 0 -14.5 -7t-31.5 -7q-30 0 -52 23.5t-22 57.5q0 35 24.5 59.5t59.5 24.5q47 0 78 -33t31 -94z" />
    <glyph glyph-name="7023" unicode="S" horiz-adv-x="405" 
d="M366 730l-109 -191h-110l-109 191h43l121 -101l121 101h43zM368 148q0 -71 -44 -117t-111 -46q-26 0 -66 13.5t-47 13.5q-15 0 -27 -24h-17l-8 170h18q13 -53 54 -93.5t84 -40.5q55 0 55 58q0 30 -56 70q-93 66 -105 77q-56 53 -56 114q0 67 41.5 106.5t105.5 39.5
q31 0 60.5 -13t35.5 -13q17 0 33 25h17l8 -162h-17q-51 124 -131 124q-50 0 -50 -45q0 -28 58 -69q95 -68 107 -79q58 -53 58 -109z" />
    <glyph glyph-name="ch84:1026+9038" unicode="T" horiz-adv-x="555" 
d="M335 81q-39 -96 -132 -96q-53 0 -87.5 33t-34.5 90v316h-61v18q119 88 186 206h17v-174h112v-50h-112v-322q0 -59 35 -59q31 0 62 50zM534 616q0 -78 -46.5 -132.5t-129.5 -78.5v24q60 24 90 72q24 37 24 73q0 18 -11 18q-1 0 -14.5 -7t-31.5 -7q-30 0 -52 23.5t-22 57.5
q0 35 24.5 59.5t59.5 24.5q47 0 78 -33t31 -94z" />
    <glyph glyph-name="U" unicode="U" horiz-adv-x="751" 
d="M733 669q-49 0 -71 -18q-26 -20 -26 -71v-330q0 -147 -75 -211q-63 -54 -189 -54q-254 0 -254 234v361q0 56 -16.5 72.5t-76.5 16.5v19h353v-19q-62 0 -81 -17.5t-19 -71.5v-360q0 -93 28 -135q32 -50 114 -50q88 0 131 56t43 178v311q0 51 -23.5 70t-75.5 19v19h238v-19
z" />
    <glyph glyph-name="ch86:1241+9038+1830" unicode="V" horiz-adv-x="1207" 
d="M438 552q0 -31 -19 -50.5t-53 -19.5q-24 0 -39.5 17t-15.5 41q0 20 15.5 51.5t15.5 39.5q0 16 -19.5 27.5t-38.5 11.5q-41 0 -66 -43.5t-25 -104.5q0 -55 36.5 -104.5t99.5 -72.5v-252q0 -42 9 -55q10 -18 47 -19v-19h-236v19q37 1 49 19q9 14 9 55v230
q-67 7 -117.5 65.5t-50.5 133.5q0 89 61 138q55 43 141 43q96 0 150 -48q47 -43 47 -103zM690 646q0 -78 -46.5 -132.5t-129.5 -78.5v24q60 24 90 72q24 37 24 73q0 18 -11 18q-1 0 -14.5 -7t-31.5 -7q-30 0 -52 23.5t-22 57.5q0 35 24.5 59.5t59.5 24.5q47 0 78 -33t31 -94
zM1217 753q-21 -2 -32 -16q-7 -9 -20 -40l-96 -227h-21l-94 209l-91 -209h-19l-101 230q-21 47 -53 53v10h173v-10q-31 -2 -31 -13q0 -5 7 -20l55 -123l48 109q-9 22 -14 30q-12 15 -34 17v10h180v-10q-37 -1 -37 -15q0 -7 10 -29l50 -112l47 110q7 16 7 24q0 20 -35 22v10
h101v-10z" />
    <glyph glyph-name="ch87:1030+9038" unicode="W" horiz-adv-x="991" 
d="M740 456q-29 -3 -44 -26q-10 -15 -28 -67l-133 -378h-30l-130 348l-126 -348h-27l-141 383q-29 78 -73 88v18h241v-18q-43 -3 -43 -21q0 -9 9 -34l76 -205l67 183q-12 36 -20 49q-17 25 -47 28v18h251v-18q-51 -2 -51 -24q0 -13 13 -49l69 -187l65 184q9 27 9 41
q0 32 -47 35v18h140v-18zM992 616q0 -78 -46.5 -132.5t-129.5 -78.5v24q60 24 90 72q24 37 24 73q0 18 -11 18q-1 0 -14.5 -7t-31.5 -7q-30 0 -52 23.5t-22 57.5q0 35 24.5 59.5t59.5 24.5q47 0 78 -33t31 -94z" />
    <glyph glyph-name="X" unicode="X" horiz-adv-x="751" 
d="M744 0h-337v19q65 0 65 31q0 18 -21 49l-119 176l-93 -112q-57 -69 -57 -102q0 -42 89 -42v-19h-264v19q47 7 77 28.5t75 75.5l152 185q-103 154 -204 297q-44 64 -85 64v19h342v-19q-70 0 -70 -30q0 -17 21 -49l102 -154l97 119q31 38 31 66q0 48 -75 48v19h253v-19
q-45 0 -72 -19q-18 -12 -55 -57l-157 -189q117 -176 219 -321q44 -64 86 -64v-19z" />
    <glyph glyph-name="ch89:1033+9038" unicode="Y" horiz-adv-x="740" 
d="M511 456q-28 -2 -46 -29q-12 -16 -30 -64l-168 -434q-29 -76 -53 -107q-36 -47 -89 -47q-40 0 -68 23.5t-28 59.5q0 28 18 48t47 20q36 0 47 -25q4 -9 6 -47q1 -25 16 -25q23 0 44 40q6 13 46 111l-169 389q-33 76 -76 87v18h253v-18q-45 0 -45 -31q0 -16 11 -42l95 -220
l75 197q12 31 12 51q0 43 -57 45v18h159v-18zM736 616q0 -78 -46.5 -132.5t-129.5 -78.5v24q60 24 90 72q24 37 24 73q0 18 -11 18q-1 0 -14.5 -7t-31.5 -7q-30 0 -52 23.5t-22 57.5q0 35 24.5 59.5t59.5 24.5q47 0 78 -33t31 -94z" />
    <glyph glyph-name="ch90:1032+6813+1830" unicode="Z" horiz-adv-x="930" 
d="M503 0h-265v19q47 2 47 24q0 10 -9 27l-50 92l-46 -68q-19 -29 -19 -46q0 -29 48 -29v-19h-185v19q41 0 73 27q22 18 54 64l58 84l-94 174q-24 45 -41 63q-21 22 -50 25v18h263v-18q-45 -1 -45 -21q0 -11 11 -31l44 -82l43 62q18 25 18 42q0 26 -42 29v19h168v-18
q-57 0 -116 -87l-54 -79l100 -185q23 -43 38 -60q23 -26 51 -26v-19zM347 -145q0 -43 -30 -73t-73 -30t-72 30t-29 73t29 72t72 29t73 -29t30 -72zM918 753q-21 -2 -32 -16q-7 -9 -20 -40l-96 -227h-21l-94 209l-91 -209h-19l-101 230q-21 47 -53 53v10h173v-10
q-31 -2 -31 -13q0 -5 7 -20l55 -123l48 109q-9 22 -14 30q-12 15 -34 17v10h180v-10q-37 -1 -37 -15q0 -7 10 -29l50 -112l47 110q7 16 7 24q0 20 -35 22v10h101v-10z" />
    <glyph glyph-name="bracketleft" unicode="[" horiz-adv-x="356" 
d="M318 -190h-235v878h235v-23q-66 0 -90 -13q-31 -16 -31 -66v-674q0 -50 29 -66q23 -13 92 -13v-23z" />
    <glyph glyph-name="backslash" unicode="\" horiz-adv-x="299" 
d="M297 -15h-65l-226 718h65z" />
    <glyph glyph-name="bracketright" unicode="]" horiz-adv-x="356" 
d="M273 -190h-235v23q69 0 92 13q29 16 29 66v674q0 50 -31 66q-24 13 -90 13v23h235v-878z" />
    <glyph glyph-name="asciicircum" unicode="^" horiz-adv-x="1000" 
d="M761 10h-62l-199 536l-199 -536h-62l230 600h62z" />
    <glyph glyph-name="underscore" unicode="_" horiz-adv-x="500" 
d="M500 -147h-500v67h500v-67zM0 760z" />
    <glyph glyph-name="grave" unicode="`" horiz-adv-x="356" 
d="M242 539h-52l-174 108q-16 10 -16 38q0 22 16 38t38 16q25 0 38 -16z" />
    <glyph glyph-name="a" unicode="a" 
d="M503 64q-48 -71 -116 -71q-82 0 -90 76q-90 -75 -151 -75q-44 0 -71.5 25.5t-27.5 65.5q0 60 60 109q54 45 190 106v78q0 71 -66 71q-65 0 -65 -35q0 -13 16.5 -32t16.5 -37q0 -27 -19.5 -43.5t-47.5 -16.5q-27 0 -50 17q-26 20 -26 47q0 63 70 104q63 36 145 36
q168 0 168 -149v-249q0 -33 20 -33q13 0 30 20zM297 108v157q-111 -67 -111 -131q0 -25 15 -40.5t38 -15.5q24 0 58 30z" />
    <glyph glyph-name="b" unicode="b" horiz-adv-x="580" 
d="M536 257q0 -111 -60 -188q-66 -84 -173 -84q-74 0 -126 52l-81 -52h-18v630q0 32 -12.5 42t-43.5 13v18h198v-262q63 63 134 63q74 0 126 -60q56 -65 56 -172zM386 247q0 184 -80 184q-43 0 -86 -50v-261q0 -46 21 -72t56 -26q51 0 71 56q18 50 18 169z" />
    <glyph glyph-name="c" unicode="c" horiz-adv-x="462" 
d="M439 110q-69 -125 -194 -125q-84 0 -141 63q-64 70 -64 189q0 87 47 158q63 94 179 94q75 0 120 -41q38 -35 38 -79q0 -29 -17.5 -46t-44.5 -17q-48 0 -63 38q-8 35 -15 71q-10 38 -42 38q-31 0 -49 -47q-17 -41 -17 -101q0 -37 7 -68q21 -96 59 -136q32 -34 84 -34
q43 0 96 56z" />
    <glyph glyph-name="7004" unicode="d" horiz-adv-x="462" 
d="M395 729l-109 -191h-110l-109 191h43l121 -101l121 101h43zM439 110q-69 -125 -194 -125q-84 0 -141 63q-64 70 -64 189q0 87 47 158q63 94 179 94q75 0 120 -41q38 -35 38 -79q0 -29 -17.5 -46t-44.5 -17q-48 0 -63 38q-8 35 -15 71q-10 38 -42 38q-31 0 -49 -47
q-17 -41 -17 -101q0 -37 7 -68q21 -96 59 -136q32 -34 84 -34q43 0 96 56z" />
    <glyph glyph-name="e" unicode="e" horiz-adv-x="462" 
d="M437 130q-31 -63 -63 -93q-54 -52 -133 -52q-94 0 -147.5 68t-53.5 184q0 117 70 189q62 63 144 63q88 0 139 -75q44 -66 44 -159h-260q1 -70 33 -126q39 -67 102 -67q58 0 108 79zM312 288q0 168 -64 168q-73 0 -73 -168h137z" />
    <glyph glyph-name="1241" unicode="f" horiz-adv-x="477" 
d="M438 552q0 -31 -19 -50.5t-53 -19.5q-24 0 -39.5 17t-15.5 41q0 20 15.5 51.5t15.5 39.5q0 16 -19.5 27.5t-38.5 11.5q-41 0 -66 -43.5t-25 -104.5q0 -55 36.5 -104.5t99.5 -72.5v-252q0 -42 9 -55q10 -18 47 -19v-19h-236v19q37 1 49 19q9 14 9 55v230
q-67 7 -117.5 65.5t-50.5 133.5q0 89 61 138q55 43 141 43q96 0 150 -48q47 -43 47 -103z" />
    <glyph glyph-name="ch103:7033+9038" unicode="g" horiz-adv-x="830" 
d="M617 107q0 -56 -28.5 -89t-76.5 -33q-39 0 -67 28q-37 37 -78 142l-56 143l-149 -298h-149l234 475l-7 14h-137v50h116q-26 64 -96 64q-28 0 -48 -19.5t-20 -38.5h-25v46q0 56 28.5 89t76.5 33q56 0 96 -63q21 -32 50 -111h150v-50h-131l111 -303q33 -91 113 -91
q28 0 48 19.5t20 38.5h25v-46zM751 616q0 -78 -46.5 -132.5t-129.5 -78.5v24q60 24 90 72q24 37 24 73q0 18 -11 18q-1 0 -14.5 -7t-31.5 -7q-30 0 -52 23.5t-22 57.5q0 35 24.5 59.5t59.5 24.5q47 0 78 -33t31 -94z" />
    <glyph glyph-name="h" unicode="h" horiz-adv-x="578" 
d="M548 0h-240v19q31 5 40 25q7 13 7 49v261q0 66 -46 66q-43 0 -81 -64v-263q0 -36 7 -50q10 -19 41 -24v-19h-241v19q36 4 46 23q5 11 5 51v498q0 42 -5 54q-10 20 -46 25v18h193v-275q71 76 137 76q132 0 132 -165v-231q0 -40 7 -53q10 -17 44 -21v-19z" />
    <glyph glyph-name="i" unicode="i" horiz-adv-x="289" 
d="M228 650q0 -33 -23 -56t-56 -23t-55.5 23t-22.5 56t22.5 55.5t55.5 22.5t56 -22.5t23 -55.5zM278 0h-256v19q37 1 48 19q8 13 8 55v284q0 48 -9.5 61.5t-46.5 17.5v18h198v-381q0 -41 10 -55q11 -18 48 -19v-19z" />
    <glyph glyph-name="ch106:1014+1830" unicode="j" horiz-adv-x="978" 
d="M588 0h-245v19q30 0 30 19q0 13 -16 37l-98 143l-32 -31v-104q0 -32 8 -44q11 -17 45 -20v-19h-246v19q34 3 44 19q7 11 7 45v508q0 43 -5 54q-9 19 -46 25v18h193v-453l128 126q34 34 34 58q0 33 -55 36v19h213v-19q-48 0 -91 -42l-103 -100l170 -248q17 -25 27 -33
q14 -11 38 -13v-19zM972 753q-21 -2 -32 -16q-7 -9 -20 -40l-96 -227h-21l-94 209l-91 -209h-19l-101 230q-21 47 -53 53v10h173v-10q-31 -2 -31 -13q0 -5 7 -20l55 -123l48 109q-9 22 -14 30q-12 15 -34 17v10h180v-10q-37 -1 -37 -15q0 -7 10 -29l50 -112l47 110
q7 16 7 24q0 20 -35 22v10h101v-10z" />
    <glyph glyph-name="k" unicode="k" horiz-adv-x="578" 
d="M588 0h-245v19q30 0 30 19q0 13 -16 37l-98 143l-32 -31v-104q0 -32 8 -44q11 -17 45 -20v-19h-246v19q34 3 44 19q7 11 7 45v508q0 43 -5 54q-9 19 -46 25v18h193v-453l128 126q34 34 34 58q0 33 -55 36v19h213v-19q-48 0 -91 -42l-103 -100l170 -248q17 -25 27 -33
q14 -11 38 -13v-19z" />
    <glyph glyph-name="l" unicode="l" horiz-adv-x="289" 
d="M278 0h-256v19q37 1 48 19q8 13 8 55v498q0 48 -9.5 61.5t-46.5 17.5v18h198v-595q0 -41 10 -55q11 -18 48 -19v-19z" />
    <glyph glyph-name="m" unicode="m" horiz-adv-x="866" 
d="M839 0h-240v19q26 5 36.5 20.5t10.5 53.5v261q0 68 -46 68q-49 0 -90 -64v-265q0 -39 7 -51q10 -19 46 -23v-19h-246v19q34 4 44 22q7 14 7 52v261q0 69 -46 69q-44 0 -91 -66v-264q0 -57 26 -68q9 -4 25 -6v-19h-244v19q36 4 46 23q5 11 5 51v284q0 42 -5 54
q-10 20 -46 25v18h193v-63q39 43 69 59q34 19 78 19q91 0 123 -87q73 87 155 87q132 0 132 -165v-231q0 -40 7 -53q10 -17 44 -21v-19z" />
    <glyph glyph-name="n" unicode="n" horiz-adv-x="578" 
d="M548 0h-240v19q31 5 40 25q7 13 7 49v261q0 66 -46 66q-43 0 -81 -64v-263q0 -36 7 -50q10 -19 41 -24v-19h-241v19q36 4 46 23q5 11 5 51v284q0 42 -5 54q-10 20 -46 25v18h193v-61q71 76 137 76q132 0 132 -165v-231q0 -40 7 -53q10 -17 44 -21v-19z" />
    <glyph glyph-name="o" unicode="o" 
d="M483 237q0 -104 -58 -175q-63 -77 -165 -77t-165 77q-58 71 -58 175t58 175q63 77 165 77t165 -77q58 -71 58 -175zM334 237q0 116 -17.5 166t-56.5 50t-56.5 -50t-17.5 -166t17.5 -166t56.5 -50t56.5 50t17.5 166z" />
    <glyph glyph-name="p" unicode="p" horiz-adv-x="579" 
d="M535 237q0 -104 -48 -175q-51 -77 -138 -77q-76 0 -130 63v-178q0 -45 13.5 -59.5t57.5 -14.5v-19h-270v19q37 1 48 19q9 13 9 55v507q0 44 -6 56q-10 18 -51 23v18h199v-62q53 77 134 77q77 0 129.5 -71t52.5 -181zM385 237q0 189 -80 189q-50 0 -86 -71v-256
q51 -62 96 -62q70 0 70 200z" />
    <glyph glyph-name="q" unicode="q" horiz-adv-x="578" 
d="M557 -223h-274v19q45 1 58 16t13 58v180q-65 -65 -134 -65q-79 0 -127 60q-53 66 -53 192q0 99 67 175.5t164 76.5q85 0 128 -55l79 55h18v-619q0 -41 9 -54q12 -18 52 -20v-19zM354 95v229q0 130 -73 130q-93 0 -93 -227q0 -184 80 -184q41 0 86 52z" />
    <glyph glyph-name="r" unicode="r" horiz-adv-x="462" 
d="M446 420q0 -30 -15.5 -50t-41.5 -20t-49 20t-32 20q-40 0 -61 -68q-15 -48 -15 -96v-133q0 -43 8 -55q11 -18 54 -19v-19h-256v19q34 2 45 23q7 13 7 51v284q0 48 -8.5 61.5t-43.5 17.5v18h194v-107q45 63 64 82q41 40 88 40q62 0 62 -69z" />
    <glyph glyph-name="s" unicode="s" horiz-adv-x="405" 
d="M368 148q0 -71 -44 -117t-111 -46q-26 0 -66 13.5t-47 13.5q-15 0 -27 -24h-17l-8 170h18q13 -53 54 -93.5t84 -40.5q55 0 55 58q0 30 -56 70q-93 66 -105 77q-56 53 -56 114q0 67 41.5 106.5t105.5 39.5q31 0 60.5 -13t35.5 -13q17 0 33 25h17l8 -162h-17
q-51 124 -131 124q-50 0 -50 -45q0 -28 58 -69q95 -68 107 -79q58 -53 58 -109z" />
    <glyph glyph-name="t" unicode="t" horiz-adv-x="345" 
d="M335 81q-39 -96 -132 -96q-53 0 -87.5 33t-34.5 90v316h-61v18q119 88 186 206h17v-174h112v-50h-112v-322q0 -59 35 -59q31 0 62 50z" />
    <glyph glyph-name="u" unicode="u" horiz-adv-x="578" 
d="M545 0h-193v61q-71 -76 -137 -76q-132 0 -132 165v231q0 40 -7 53q-10 17 -44 21v19h193v-354q0 -66 46 -66q41 0 81 66v261q0 37 -7 50q-11 19 -45 24v19h194v-377q0 -42 5 -53q10 -20 46 -25v-19z" />
    <glyph glyph-name="ch118:1241+1830" unicode="v" horiz-adv-x="967" 
d="M438 552q0 -31 -19 -50.5t-53 -19.5q-24 0 -39.5 17t-15.5 41q0 20 15.5 51.5t15.5 39.5q0 16 -19.5 27.5t-38.5 11.5q-41 0 -66 -43.5t-25 -104.5q0 -55 36.5 -104.5t99.5 -72.5v-252q0 -42 9 -55q10 -18 47 -19v-19h-236v19q37 1 49 19q9 14 9 55v230
q-67 7 -117.5 65.5t-50.5 133.5q0 89 61 138q55 43 141 43q96 0 150 -48q47 -43 47 -103zM937 753q-21 -2 -32 -16q-7 -9 -20 -40l-96 -227h-21l-94 209l-91 -209h-19l-101 230q-21 47 -53 53v10h173v-10q-31 -2 -31 -13q0 -5 7 -20l55 -123l48 109q-9 22 -14 30
q-12 15 -34 17v10h180v-10q-37 -1 -37 -15q0 -7 10 -29l50 -112l47 110q7 16 7 24q0 20 -35 22v10h101v-10z" />
    <glyph glyph-name="w" unicode="w" horiz-adv-x="751" 
d="M740 456q-29 -3 -44 -26q-10 -15 -28 -67l-133 -378h-30l-130 348l-126 -348h-27l-141 383q-29 78 -73 88v18h241v-18q-43 -3 -43 -21q0 -9 9 -34l76 -205l67 183q-12 36 -20 49q-17 25 -47 28v18h251v-18q-51 -2 -51 -24q0 -13 13 -49l69 -187l65 184q9 27 9 41
q0 32 -47 35v18h140v-18z" />
    <glyph glyph-name="ch120:1032+6813" unicode="x" 
d="M503 0h-265v19q47 2 47 24q0 10 -9 27l-50 92l-46 -68q-19 -29 -19 -46q0 -29 48 -29v-19h-185v19q41 0 73 27q22 18 54 64l58 84l-94 174q-24 45 -41 63q-21 22 -50 25v18h263v-18q-45 -1 -45 -21q0 -11 11 -31l44 -82l43 62q18 25 18 42q0 26 -42 29v19h168v-18
q-57 0 -116 -87l-54 -79l100 -185q23 -43 38 -60q23 -26 51 -26v-19zM362 -145q0 -43 -30 -73t-73 -30t-72 30t-29 73t29 72t72 29t73 -29t30 -72z" />
    <glyph glyph-name="y" unicode="y" 
d="M511 456q-28 -2 -46 -29q-12 -16 -30 -64l-168 -434q-29 -76 -53 -107q-36 -47 -89 -47q-40 0 -68 23.5t-28 59.5q0 28 18 48t47 20q36 0 47 -25q4 -9 6 -47q1 -25 16 -25q23 0 44 40q6 13 46 111l-169 389q-33 76 -76 87v18h253v-18q-45 0 -45 -31q0 -16 11 -42l95 -220
l75 197q12 31 12 51q0 43 -57 45v18h159v-18z" />
    <glyph glyph-name="ch122:1032+1830" unicode="z" horiz-adv-x="930" 
d="M503 0h-265v19q47 2 47 24q0 10 -9 27l-50 92l-46 -68q-19 -29 -19 -46q0 -29 48 -29v-19h-185v19q41 0 73 27q22 18 54 64l58 84l-94 174q-24 45 -41 63q-21 22 -50 25v18h263v-18q-45 -1 -45 -21q0 -11 11 -31l44 -82l43 62q18 25 18 42q0 26 -42 29v19h168v-18
q-57 0 -116 -87l-54 -79l100 -185q23 -43 38 -60q23 -26 51 -26v-19zM918 753q-21 -2 -32 -16q-7 -9 -20 -40l-96 -227h-21l-94 209l-91 -209h-19l-101 230q-21 47 -53 53v10h173v-10q-31 -2 -31 -13q0 -5 7 -20l55 -123l48 109q-9 22 -14 30q-12 15 -34 17v10h180v-10
q-37 -1 -37 -15q0 -7 10 -29l50 -112l47 110q7 16 7 24q0 20 -35 22v10h101v-10z" />
    <glyph glyph-name="braceleft" unicode="{" horiz-adv-x="409" 
d="M365 -209q-73 0 -130 30q-79 41 -79 129q0 34 13.5 86t13.5 87q0 42 -29.5 74.5t-69.5 32.5v32q40 0 69.5 33.5t29.5 75.5q0 35 -13.5 87t-13.5 86q0 89 79 130q56 29 130 29v-24q-35 0 -65 -28q-33 -30 -33 -67q0 -34 12.5 -86.5t12.5 -84.5q0 -63 -47 -111
q-44 -43 -107 -56q64 -13 107 -55q47 -47 47 -110q0 -31 -12.5 -84t-12.5 -87q0 -37 33 -67q30 -28 65 -28v-24z" />
    <glyph glyph-name="bar" unicode="|" horiz-adv-x="229" 
d="M148 -223h-67v926h67v-926z" />
    <glyph glyph-name="braceright" unicode="}" horiz-adv-x="409" 
d="M325 230q-40 0 -69.5 -32.5t-29.5 -74.5q0 -35 13.5 -87t13.5 -86q0 -88 -79 -129q-57 -30 -130 -30v24q35 0 66.5 29t31.5 66q0 34 -12.5 87t-12.5 84q0 63 47 110q43 42 107 55q-63 13 -107 56q-47 48 -47 111q0 32 12.5 84.5t12.5 86.5q0 37 -31.5 66t-66.5 29v24
q74 0 130 -29q79 -41 79 -130q0 -34 -13.5 -86t-13.5 -87q0 -42 29.5 -75.5t69.5 -33.5v-32z" />
    <glyph glyph-name="asciitilde" unicode="~" horiz-adv-x="571" 
d="M562 360q0 -69 -38.5 -116.5t-99.5 -47.5q-44 0 -154 45.5t-144 45.5q-33 0 -57 -22q-25 -25 -31 -68h-29q3 76 38.5 120t95.5 44q47 0 158 -47t142 -47q79 0 90 93h29z" />
    <glyph glyph-name="nonbreakingspace" unicode="&#xa0;" horiz-adv-x="284" 
 />
    <glyph glyph-name="exclamdown" unicode="&#xa1;" horiz-adv-x="346" 
d="M256 412q0 -34 -24.5 -58.5t-58.5 -24.5t-58.5 24.5t-24.5 58.5t24.5 58.5t58.5 24.5t58.5 -24.5t24.5 -58.5zM257 -139q0 -34 -25 -59t-59 -25t-59 25t-25 59q0 57 35.5 205t35.5 191h26q0 -43 35.5 -191t35.5 -205z" />
    <glyph glyph-name="cent" unicode="&#xa2;" horiz-adv-x="530" 
d="M464 110q-69 -125 -194 -125q-40 0 -79 18l-74 -193h-47l83 216q-88 69 -88 211q0 87 47 158q62 94 179 94q19 0 37 -3l76 198h47l-80 -210q38 -16 59 -48q19 -28 19 -57t-17.5 -46t-44.5 -17q-50 0 -65 42l-80 -212q37 -69 109 -69q43 0 96 56zM305 426q-10 27 -38 27
q-31 0 -49 -47q-17 -41 -17 -101q0 -50 17 -108z" />
    <glyph glyph-name="sterling" unicode="&#xa3;" horiz-adv-x="519" 
d="M499 175q0 -86 -42.5 -138t-114.5 -52q-68 0 -128 60q-39 -60 -105 -60q-37 0 -63.5 24.5t-26.5 61.5q0 40 31 65t74 25q28 0 53 -9q0 24 -14.5 72t-29.5 96h-110v77h93q-7 42 -7 83q0 94 51 158q55 69 149 69q58 0 104 -39t46 -89q0 -30 -19 -48.5t-47 -18.5
q-70 0 -70 75q0 14 2 38q3 48 -42 48q-42 0 -42 -60q0 -31 12 -95q16 -85 20 -121h111v-77h-105q1 -23 1 -39q0 -78 -25 -149q45 -12 115 -12q96 0 108 55h21zM171 83q-31 24 -62 24q-20 0 -35 -11t-15 -28q0 -41 44 -41q45 0 68 56z" />
    <glyph glyph-name="currency" unicode="&#xa4;" horiz-adv-x="562" 
d="M551 196l-36 -36l-103 103q-55 -47 -129 -47q-79 0 -133 47l-103 -103l-36 36l103 103q-44 55 -44 128q0 82 46 132l-105 105l36 36l105 -105q55 44 131 44q73 0 126 -45l106 106l36 -36l-104 -104q45 -56 45 -132t-44 -129zM435 428q0 63 -44.5 108.5t-107.5 45.5
q-65 0 -110.5 -45t-45.5 -110q0 -64 45.5 -109t110.5 -45q63 0 107.5 46t44.5 109z" />
    <glyph glyph-name="yen" unicode="&#xa5;" horiz-adv-x="530" 
d="M524 147h-183v-39q0 -55 19 -72t81 -17v-19h-360v19q65 0 88 16.5t23 72.5v39h-187v48h187v48l-8 22h-179v48h166l-90 253q-23 64 -42 85q-12 13 -34 16v21h251v-21q-49 0 -49 -28q0 -12 10 -40l104 -286l86 249q17 49 17 71t-15 29q-10 4 -34 4v22h149v-22
q-33 -13 -46 -32q-15 -22 -43 -105l-74 -216h163v-48h-176l-7 -21v-49h183v-48z" />
    <glyph glyph-name="brokenbar" unicode="&#xa6;" horiz-adv-x="229" 
d="M140 336h-51v400h51v-400zM140 -198h-51v400h51v-400z" />
    <glyph glyph-name="section" unicode="&#xa7;" horiz-adv-x="519" 
d="M473 230q0 -86 -109 -159q44 -49 52 -62q25 -38 25 -85q0 -65 -53 -107t-135 -42q-71 0 -116 33q-49 34 -49 93q0 24 17 41.5t41 17.5q25 0 42 -15.5t17 -37.5q0 -10 -6.5 -29t-6.5 -30q0 -37 64 -37q42 0 67.5 22.5t25.5 60.5q0 42 -78 99l-146 104q-78 68 -78 138
q0 94 107 174q-40 42 -51 59q-24 37 -24 81q0 69 56 113t130 44q65 0 116 -35q54 -38 54 -93q0 -24 -18 -41.5t-42 -16.5q-23 1 -39 15.5t-16 36.5q0 9 3.5 24t3.5 24q0 22 -19.5 37.5t-45.5 15.5q-34 0 -60.5 -24.5t-26.5 -60.5q0 -45 77 -102q142 -105 144 -107
q77 -71 77 -149zM387 178q0 48 -48 92q-17 16 -156 117q-48 -42 -48 -92q0 -41 43 -81q21 -19 160 -122q49 44 49 86z" />
    <glyph glyph-name="dieresis" unicode="&#xa8;" horiz-adv-x="328" 
d="M328 639q0 -28 -20 -48t-48 -20t-48 20t-20 48t20 48t48 20t48 -20t20 -48zM136 639q0 -28 -20 -48t-48 -20t-48 20t-20 48t20 48t48 20t48 -20t20 -48z" />
    <glyph glyph-name="copyright" unicode="&#xa9;" horiz-adv-x="776" 
d="M750 344q0 -149 -105.5 -254.5t-254.5 -105.5t-254.5 105.5t-105.5 254.5t105.5 254.5t254.5 105.5t254.5 -105.5t105.5 -254.5zM705 344q0 130 -92.5 222.5t-222.5 92.5t-222.5 -92.5t-92.5 -222.5t92.5 -222.5t222.5 -92.5t222.5 92.5t92.5 222.5zM561 427h-19
q-9 52 -47 83q-36 28 -83 28q-65 0 -97 -58q-29 -51 -29 -136q0 -182 131 -182q37 0 64.5 15t65.5 55v-34q-64 -66 -163 -66q-103 0 -161 66q-51 58 -51 146t62.5 153.5t158.5 65.5q38 0 81.5 -14l43.5 -14q16 0 25 27h18v-135z" />
    <glyph glyph-name="ordfeminine" unicode="&#xaa;" horiz-adv-x="386" 
d="M368 446q-34 -42 -84 -42q-58 0 -64 45q-64 -45 -109 -45q-31 0 -51 15.5t-20 39.5q0 36 43 65q39 27 137 64v47q0 42 -48 42q-47 0 -47 -21q0 -8 12 -19t12 -22q0 -36 -48 -36q-19 0 -37 11t-18 27q0 38 51 62q45 22 104 22q121 0 121 -89v-149q0 -20 14 -20q10 0 22 12
zM349 322h-304v32h304v-32zM220 473v94q-80 -40 -80 -79q0 -33 38 -33q17 0 42 18z" />
    <glyph glyph-name="guillemotleft" unicode="&#xab;" 
d="M503 4h-41l-213 233l213 233h41l-121 -233zM272 4h-41l-213 233l213 233h41l-121 -233z" />
    <glyph glyph-name="logicalnot" unicode="&#xac;" horiz-adv-x="620" 
d="M580 189h-60v171h-480v60h540v-231z" />
    <glyph glyph-name="minus" unicode="&#xad;" horiz-adv-x="1000" 
d="M800 269h-600v62h600v-62zM0 760z" />
    <glyph glyph-name="registered" unicode="&#xae;" horiz-adv-x="776" 
d="M750 344q0 -149 -105.5 -254.5t-254.5 -105.5t-254.5 105.5t-105.5 254.5t105.5 254.5t254.5 105.5t254.5 -105.5t105.5 -254.5zM705 344q0 130 -92.5 222.5t-222.5 92.5t-222.5 -92.5t-92.5 -222.5t92.5 -222.5t222.5 -92.5t222.5 92.5t92.5 222.5zM593 142h-123
l-104 188h-24v-120q0 -28 14 -38t48 -12v-18h-216v18q31 3 40 10q13 10 13 43v271q0 49 -44 52v17h207q77 0 117 -30t40 -82q0 -79 -91 -104l78 -141q17 -31 45 -36v-18zM451 441q0 90 -84 90h-25v-175q10 -2 22 -2q35 0 58 19q29 23 29 68z" />
    <glyph glyph-name="macron" unicode="&#xaf;" horiz-adv-x="328" 
d="M328 571h-328v90h328v-90zM0 760z" />
    <glyph glyph-name="degree" unicode="&#xb0;" horiz-adv-x="320" 
d="M270 610q0 -46 -32 -78t-78 -32t-78 32t-32 78t32 78t78 32t78 -32t32 -78zM230 610q0 29 -20.5 49.5t-49.5 20.5t-49.5 -20.5t-20.5 -49.5t20.5 -49.5t49.5 -20.5t49.5 20.5t20.5 49.5z" />
    <glyph glyph-name="plusminus" unicode="&#xb1;" horiz-adv-x="1000" 
d="M800 358h-269v-180h-62v180h-269v62h269v180h62v-180h269v-62zM800 0h-600v62h600v-62z" />
    <glyph glyph-name="twosuperior" unicode="&#xb2;" horiz-adv-x="347" 
d="M333 400l-28 -119h-292v8q117 115 152 164.5t35 102.5q0 72 -79 72q-48 0 -79 -48l-21 8q38 115 154 115q55 0 95 -31t40 -74q0 -92 -178 -237h109q35 0 46.5 6.5t26.5 32.5h19z" />
    <glyph glyph-name="threesuperior" unicode="&#xb3;" horiz-adv-x="347" 
d="M333 426q0 -66 -58 -110t-145 -44q-116 0 -116 48q0 35 41 35q18 0 57 -25t73 -25q28 0 46.5 17t18.5 42q0 47 -42 81q-38 30 -96 40v17q49 12 70 27q27 19 27 51q0 26 -22.5 44t-54.5 18q-42 0 -82 -46l-18 4q20 43 59 71q44 32 99 32q48 0 83.5 -25t35.5 -64
q0 -48 -64 -81q88 -32 88 -107z" />
    <glyph glyph-name="acute" unicode="&#xb4;" horiz-adv-x="356" 
d="M356 685q0 -28 -16 -38l-174 -108h-52l150 184q13 16 38 16q22 0 38 -16t16 -38z" />
    <glyph glyph-name="mu" unicode="&#xb5;" horiz-adv-x="598" 
d="M581 136q0 -55 -26 -96q-35 -55 -104 -55q-41 0 -69 26q-26 22 -33 55q-76 -81 -141 -81q-51 0 -82 30q0 -53 14.5 -98t14.5 -74q0 -66 -59 -66q-56 0 -56 60q0 17 18 92t18 121v424h142v-354q0 -65 46 -65q44 0 81 62v357h142v-337q0 -75 34 -75q32 0 39 74h21z" />
    <glyph glyph-name="paragraph" unicode="&#xb6;" horiz-adv-x="572" 
d="M568 668q-63 0 -81 -20q-15 -16 -15 -74v-797h-51l1 873h-93v-873h-50v441q-274 0 -274 235t274 235h289v-20z" />
    <glyph glyph-name="cedilla" unicode="&#xb8;" horiz-adv-x="250" 
d="M247 -135q0 -42 -50 -70q-44 -24 -99 -24q-41 0 -98 18l24 41q42 -15 69 -15q46 0 46 41q0 29 -35 30q-12 0 -32 -5l-18 12l49 107h44l-29 -66h24q105 0 105 -69z" />
    <glyph glyph-name="onesuperior" unicode="&#xb9;" horiz-adv-x="347" 
d="M309 281h-261v17q44 0 60.5 11t16.5 42v219q0 56 -42 56q-16 0 -39 -9l-6 16l177 70h17v-352q0 -31 16 -42t61 -11v-17z" />
    <glyph glyph-name="ordmasculine" unicode="&#xba;" horiz-adv-x="386" 
d="M354 550q0 -62 -42 -105q-45 -46 -119 -46t-119 46q-42 43 -42 105t43.5 106.5t117.5 44.5t119 -46q42 -43 42 -105zM349 322h-312v32h312v-32zM246 550q0 62 -6 85q-11 45 -47 45t-47 -44q-6 -24 -6 -86q0 -61 6 -85q11 -44 47 -44t47 44q6 25 6 85z" />
    <glyph glyph-name="guillemotright" unicode="&#xbb;" 
d="M502 237l-213 -233h-41l121 233l-121 233h41zM271 237l-213 -233h-41l121 233l-121 233h41z" />
    <glyph glyph-name="onequarter" unicode="&#xbc;" horiz-adv-x="830" 
d="M798 93h-45v-93h-100v93h-180v63l236 266h44v-266h45v-63zM715 703l-479 -718h-69l479 718h69zM303 281h-261v17q44 0 60.5 11t16.5 42v219q0 56 -42 56q-16 0 -39 -9l-6 16l177 70h17v-352q0 -31 16 -42t61 -11v-17zM653 156v154l-135 -154h135z" />
    <glyph glyph-name="onehalf" unicode="&#xbd;" horiz-adv-x="830" 
d="M810 119l-28 -119h-292v8q117 115 152 164.5t35 102.5q0 72 -79 72q-48 0 -79 -48l-21 8q38 115 154 115q55 0 95 -31t40 -74q0 -92 -178 -237h109q35 0 46.5 6.5t26.5 32.5h19zM693 703l-479 -718h-69l479 718h69zM281 281h-251v17q44 0 60.5 11t16.5 42v219
q0 56 -42 56q-16 0 -39 -9l-6 16l177 70h17v-352q0 -33 11.5 -43t55.5 -10v-17z" />
    <glyph glyph-name="threequarters" unicode="&#xbe;" horiz-adv-x="830" 
d="M798 93h-45v-93h-100v93h-180v63l236 266h44v-266h45v-63zM725 703l-479 -718h-69l479 718h69zM351 426q0 -66 -58 -110t-145 -44q-116 0 -116 48q0 35 41 35q18 0 57 -25t73 -25q28 0 46.5 17t18.5 42q0 47 -42 81q-38 30 -96 40v17q49 12 70 27q27 19 27 51
q0 26 -22.5 44t-54.5 18q-42 0 -82 -46l-18 4q20 43 59 71q44 32 99 32q48 0 83.5 -25t35.5 -64q0 -48 -64 -81q88 -32 88 -107zM653 156v154l-135 -154h135z" />
    <glyph glyph-name="questiondown" unicode="&#xbf;" 
d="M363 411q0 -35 -24.5 -59.5t-59.5 -24.5t-59.5 24.5t-24.5 59.5t24.5 59.5t59.5 24.5t59.5 -24.5t24.5 -59.5zM457 -72q0 -60 -47 -103q-54 -48 -150 -48q-86 0 -141 39q-61 43 -61 122q0 60 50 116q20 22 69 54t67 55q29 37 29 92h22q0 -63 -9 -93q-7 -25 -39 -84
q-35 -64 -35 -140q0 -59 24.5 -93.5t66.5 -34.5q19 0 38.5 11.5t19.5 27.5q0 8 -15.5 39.5t-15.5 51.5q0 24 15.5 41t39.5 17q34 0 53 -19.5t19 -50.5z" />
    <glyph glyph-name="Agrave" unicode="&#xc0;" horiz-adv-x="751" 
d="M439 749h-52l-174 108q-16 10 -16 38q0 22 16 38t38 16q25 0 38 -16zM739 0h-332v19q81 0 81 32q0 13 -11 39l-44 106h-244l-29 -68q-14 -33 -14 -54q0 -49 91 -55v-19h-229v19q37 7 57 25q23 22 49 79l260 580h10l255 -581q26 -59 50 -82q21 -20 50 -21v-19zM415 233
l-102 238l-106 -238h208z" />
    <glyph glyph-name="Aacute" unicode="&#xc1;" horiz-adv-x="751" 
d="M573 895q0 -28 -16 -38l-174 -108h-52l150 184q13 16 38 16q22 0 38 -16t16 -38zM739 0h-332v19q81 0 81 32q0 13 -11 39l-44 106h-244l-29 -68q-14 -33 -14 -54q0 -49 91 -55v-19h-229v19q37 7 57 25q23 22 49 79l260 580h10l255 -581q26 -59 50 -82q21 -20 50 -21v-19z
M415 233l-102 238l-106 -238h208z" />
    <glyph glyph-name="Acircumflex" unicode="&#xc2;" horiz-adv-x="751" 
d="M549 749h-43l-121 101l-121 -101h-43l109 191h110zM739 0h-332v19q81 0 81 32q0 13 -11 39l-44 106h-244l-29 -68q-14 -33 -14 -54q0 -49 91 -55v-19h-229v19q37 7 57 25q23 22 49 79l260 580h10l255 -581q26 -59 50 -82q21 -20 50 -21v-19zM415 233l-102 238l-106 -238
h208z" />
    <glyph glyph-name="Atilde" unicode="&#xc3;" horiz-adv-x="751" 
d="M553 907q-8 -65 -39 -105.5t-77 -40.5q-26 0 -65 23t-58 23q-36 0 -51 -51h-38q8 65 39 105.5t77 40.5q27 0 65.5 -23t57.5 -23q38 0 51 51h38zM739 0h-332v19q81 0 81 32q0 13 -11 39l-44 106h-244l-29 -68q-14 -33 -14 -54q0 -49 91 -55v-19h-229v19q37 7 57 25
q23 22 49 79l260 580h10l255 -581q26 -59 50 -82q21 -20 50 -21v-19zM415 233l-102 238l-106 -238h208z" />
    <glyph glyph-name="Adieresis" unicode="&#xc4;" horiz-adv-x="751" 
d="M548 829q0 -28 -20 -48t-48 -20t-48 20t-20 48t20 48t48 20t48 -20t20 -48zM356 829q0 -28 -20 -48t-48 -20t-48 20t-20 48t20 48t48 20t48 -20t20 -48zM739 0h-332v19q81 0 81 32q0 13 -11 39l-44 106h-244l-29 -68q-14 -33 -14 -54q0 -49 91 -55v-19h-229v19
q37 7 57 25q23 22 49 79l260 580h10l255 -581q26 -59 50 -82q21 -20 50 -21v-19zM415 233l-102 238l-106 -238h208z" />
    <glyph glyph-name="Aring" unicode="&#xc5;" horiz-adv-x="751" 
d="M486 856q0 -44 -31.5 -75.5t-75.5 -31.5t-75.5 31.5t-31.5 75.5t31.5 75.5t75.5 31.5t75.5 -31.5t31.5 -75.5zM739 0h-332v19q81 0 81 32q0 13 -11 39l-44 106h-244l-29 -68q-14 -33 -14 -54q0 -49 91 -55v-19h-229v19q37 7 57 25q23 22 49 79l260 580h10l255 -581
q26 -59 50 -82q21 -20 50 -21v-19zM439 856q0 25 -17.5 42.5t-42.5 17.5t-42.5 -17.5t-17.5 -42.5t17.5 -42.5t42.5 -17.5t42.5 17.5t17.5 42.5zM415 233l-102 238l-106 -238h208z" />
    <glyph glyph-name="AE" unicode="&#xc6;" horiz-adv-x="1042" 
d="M995 218l-31 -218h-604v19q82 0 101 13q23 15 23 76v188l-223 1l-119 -190q-11 -18 -11 -35q0 -53 83 -53v-19h-223v19q31 2 52 20t48 60l300 475q23 37 23 57q0 38 -92 38v19h624v-203h-19q-18 96 -68 132q-46 33 -146 33h-64v-281h15q66 0 94 47q21 34 31 115h19v-360
h-19q-12 79 -31 111q-29 48 -94 48h-15v-222q0 -49 15.5 -60t81.5 -11q90 0 140 36q56 40 91 145h18zM484 334v313l-200 -313h200z" />
    <glyph glyph-name="Ccedilla" unicode="&#xc7;" horiz-adv-x="751" 
d="M695 466h-20q-22 93 -85 144q-59 48 -137 48q-111 0 -173 -92q-57 -85 -57 -222q0 -140 51 -221q58 -91 171 -91q73 0 126 30q44 25 111 96v-60q-64 -67 -126.5 -91.5t-156.5 -21.5l-28 -62h24q105 0 105 -69q0 -42 -50 -70q-44 -24 -99 -24q-41 0 -98 18l24 41
q42 -15 69 -15q46 0 46 41q0 29 -35 30q-12 0 -32 -5l-18 12l49 106q-159 18 -243 125q-72 94 -72 231q0 140 108 247q112 112 273 112q63 0 135.5 -25t71.5 -25q30 0 47 51h19v-238z" />
    <glyph glyph-name="Egrave" unicode="&#xc8;" horiz-adv-x="683" 
d="M422 749h-52l-174 108q-16 10 -16 38q0 22 16 38t38 16q25 0 38 -16zM646 218l-30 -218h-595v19q61 0 79 17.5t18 71.5v472q0 54 -18 71.5t-79 17.5v19h576v-203h-19q-18 96 -68 132q-46 33 -146 33h-86v-281h22q66 0 97 47q23 36 33 115h19v-360h-19q-12 77 -34 111
q-31 48 -96 48h-22v-222q0 -42 15.5 -56t66.5 -14q115 0 171 35q61 39 97 145h18z" />
    <glyph glyph-name="Eacute" unicode="&#xc9;" horiz-adv-x="683" 
d="M533 895q0 -28 -16 -38l-174 -108h-52l150 184q13 16 38 16q22 0 38 -16t16 -38zM646 218l-30 -218h-595v19q61 0 79 17.5t18 71.5v472q0 54 -18 71.5t-79 17.5v19h576v-203h-19q-18 96 -68 132q-46 33 -146 33h-86v-281h22q66 0 97 47q23 36 33 115h19v-360h-19
q-12 77 -34 111q-31 48 -96 48h-22v-222q0 -42 15.5 -56t66.5 -14q115 0 171 35q61 39 97 145h18z" />
    <glyph glyph-name="Ecircumflex" unicode="&#xca;" horiz-adv-x="683" 
d="M518 749h-43l-121 101l-121 -101h-43l109 191h110zM646 218l-30 -218h-595v19q61 0 79 17.5t18 71.5v472q0 54 -18 71.5t-79 17.5v19h576v-203h-19q-18 96 -68 132q-46 33 -146 33h-86v-281h22q66 0 97 47q23 36 33 115h19v-360h-19q-12 77 -34 111q-31 48 -96 48h-22
v-222q0 -42 15.5 -56t66.5 -14q115 0 171 35q61 39 97 145h18z" />
    <glyph glyph-name="Edieresis" unicode="&#xcb;" horiz-adv-x="683" 
d="M508 829q0 -28 -20 -48t-48 -20t-48 20t-20 48t20 48t48 20t48 -20t20 -48zM316 829q0 -28 -20 -48t-48 -20t-48 20t-20 48t20 48t48 20t48 -20t20 -48zM646 218l-30 -218h-595v19q61 0 79 17.5t18 71.5v472q0 54 -18 71.5t-79 17.5v19h576v-203h-19q-18 96 -68 132
q-46 33 -146 33h-86v-281h22q66 0 97 47q23 36 33 115h19v-360h-19q-12 77 -34 111q-31 48 -96 48h-22v-222q0 -42 15.5 -56t66.5 -14q115 0 171 35q61 39 97 145h18z" />
    <glyph glyph-name="Igrave" unicode="&#xcc;" horiz-adv-x="396" 
d="M252 749h-52l-174 108q-16 10 -16 38q0 22 16 38t38 16q25 0 38 -16zM375 0h-354v19q61 0 79 17.5t18 71.5v472q0 54 -18 71.5t-79 17.5v19h354v-19q-61 0 -79 -17.5t-18 -71.5v-472q0 -54 18 -71.5t79 -17.5v-19z" />
    <glyph glyph-name="Iacute" unicode="&#xcd;" horiz-adv-x="396" 
d="M386 895q0 -28 -16 -38l-174 -108h-52l150 184q13 16 38 16q22 0 38 -16t16 -38zM375 0h-354v19q61 0 79 17.5t18 71.5v472q0 54 -18 71.5t-79 17.5v19h354v-19q-61 0 -79 -17.5t-18 -71.5v-472q0 -54 18 -71.5t79 -17.5v-19z" />
    <glyph glyph-name="Icircumflex" unicode="&#xce;" horiz-adv-x="396" 
d="M367 749h-43l-121 101l-121 -101h-43l109 191h110zM375 0h-354v19q61 0 79 17.5t18 71.5v472q0 54 -18 71.5t-79 17.5v19h354v-19q-61 0 -79 -17.5t-18 -71.5v-472q0 -54 18 -71.5t79 -17.5v-19z" />
    <glyph glyph-name="Idieresis" unicode="&#xcf;" horiz-adv-x="396" 
d="M367 829q0 -28 -20 -48t-48 -20t-48 20t-20 48t20 48t48 20t48 -20t20 -48zM175 829q0 -28 -20 -48t-48 -20t-48 20t-20 48t20 48t48 20t48 -20t20 -48zM375 0h-354v19q61 0 79 17.5t18 71.5v472q0 54 -18 71.5t-79 17.5v19h354v-19q-61 0 -79 -17.5t-18 -71.5v-472
q0 -54 18 -71.5t79 -17.5v-19z" />
    <glyph glyph-name="Eth" unicode="&#xd0;" horiz-adv-x="750" 
d="M714 344q0 -151 -90 -245q-95 -99 -253 -99h-344v19q61 0 79 17.5t18 71.5v221h-110v70h110v181q0 54 -18 71.5t-79 17.5v19h344q157 0 253 -101q90 -96 90 -243zM531 344q0 128 -43 207q-53 99 -164 99h-40v-251h157v-70h-157v-221q0 -42 13 -56.5t52 -14.5q97 0 144 97
q38 80 38 210z" />
    <glyph glyph-name="Ntilde" unicode="&#xd1;" horiz-adv-x="753" 
d="M545 907q-8 -65 -39 -105.5t-77 -40.5q-26 0 -65 23t-58 23q-36 0 -51 -51h-38q8 65 39 105.5t77 40.5q27 0 65.5 -23t57.5 -23q38 0 51 51h38zM730 669q-92 0 -92 -89v-595h-18l-464 572v-449q0 -89 105 -89v-19h-244v19q101 0 101 89v497q-31 41 -50 53t-51 12v18h244
l339 -426v318q0 89 -99 89v19h229v-19z" />
    <glyph glyph-name="Ograve" unicode="&#xd2;" horiz-adv-x="805" 
d="M462 749h-52l-174 108q-16 10 -16 38q0 22 16 38t38 16q25 0 38 -16zM768 344q0 -149 -107.5 -254t-258.5 -105q-150 0 -257.5 105t-107.5 254t107.5 254t257.5 105q151 0 258.5 -105t107.5 -254zM585 344q0 130 -38 215q-47 106 -145 106t-145 -107q-37 -84 -37 -214
q0 -131 37 -214q47 -107 145 -107t146 106q37 84 37 215z" />
    <glyph glyph-name="Oacute" unicode="&#xd3;" horiz-adv-x="805" 
d="M606 895q0 -28 -16 -38l-174 -108h-52l150 184q13 16 38 16q22 0 38 -16t16 -38zM768 344q0 -149 -107.5 -254t-258.5 -105q-150 0 -257.5 105t-107.5 254t107.5 254t257.5 105q151 0 258.5 -105t107.5 -254zM585 344q0 130 -38 215q-47 106 -145 106t-145 -107
q-37 -84 -37 -214q0 -131 37 -214q47 -107 145 -107t146 106q37 84 37 215z" />
    <glyph glyph-name="Ocircumflex" unicode="&#xd4;" horiz-adv-x="805" 
d="M555 749h-43l-121 101l-121 -101h-43l109 191h110zM768 344q0 -149 -107.5 -254t-258.5 -105q-150 0 -257.5 105t-107.5 254t107.5 254t257.5 105q151 0 258.5 -105t107.5 -254zM585 344q0 130 -38 215q-47 106 -145 106t-145 -107q-37 -84 -37 -214q0 -131 37 -214
q47 -107 145 -107t146 106q37 84 37 215z" />
    <glyph glyph-name="Otilde" unicode="&#xd5;" horiz-adv-x="805" 
d="M574 907q-8 -65 -39 -105.5t-77 -40.5q-26 0 -65 23t-58 23q-36 0 -51 -51h-38q8 65 39 105.5t77 40.5q27 0 65.5 -23t57.5 -23q38 0 51 51h38zM768 344q0 -149 -107.5 -254t-258.5 -105q-150 0 -257.5 105t-107.5 254t107.5 254t257.5 105q151 0 258.5 -105t107.5 -254z
M585 344q0 130 -38 215q-47 106 -145 106t-145 -107q-37 -84 -37 -214q0 -131 37 -214q47 -107 145 -107t146 106q37 84 37 215z" />
    <glyph glyph-name="Odieresis" unicode="&#xd6;" horiz-adv-x="805" 
d="M573 829q0 -28 -20 -48t-48 -20t-48 20t-20 48t20 48t48 20t48 -20t20 -48zM381 829q0 -28 -20 -48t-48 -20t-48 20t-20 48t20 48t48 20t48 -20t20 -48zM768 344q0 -149 -107.5 -254t-258.5 -105q-150 0 -257.5 105t-107.5 254t107.5 254t257.5 105q151 0 258.5 -105
t107.5 -254zM585 344q0 130 -38 215q-47 106 -145 106t-145 -107q-37 -84 -37 -214q0 -131 37 -214q47 -107 145 -107t146 106q37 84 37 215z" />
    <glyph glyph-name="multiply" unicode="&#xd7;" horiz-adv-x="1000" 
d="M770 69l-39 -39l-231 232l-231 -232l-39 39l230 231l-230 231l39 39l231 -232l231 232l39 -39l-230 -231z" />
    <glyph glyph-name="Oslash" unicode="&#xd8;" horiz-adv-x="809" 
d="M770 344q0 -149 -107.5 -254t-258.5 -105q-116 0 -212 67l-84 -98l-40 36l83 96q-112 106 -112 258q0 149 107.5 254t257.5 105q122 0 219 -71l82 95l40 -36l-81 -94q106 -104 106 -253zM553 551q-47 114 -149 114q-98 0 -145 -106q-37 -85 -37 -215q0 -88 17 -156z
M587 344q0 81 -15 146l-313 -361q47 -106 145 -106t146 107q37 83 37 214z" />
    <glyph glyph-name="Ugrave" unicode="&#xd9;" horiz-adv-x="751" 
d="M472 749h-52l-174 108q-16 10 -16 38q0 22 16 38t38 16q25 0 38 -16zM733 669q-49 0 -71 -18q-26 -20 -26 -71v-330q0 -147 -75 -211q-63 -54 -189 -54q-254 0 -254 234v361q0 56 -16.5 72.5t-76.5 16.5v19h353v-19q-62 0 -81 -17.5t-19 -71.5v-360q0 -93 28 -135
q32 -50 114 -50q88 0 131 56t43 178v311q0 51 -23.5 70t-75.5 19v19h238v-19z" />
    <glyph glyph-name="Uacute" unicode="&#xda;" horiz-adv-x="751" 
d="M546 895q0 -28 -16 -38l-174 -108h-52l150 184q13 16 38 16q22 0 38 -16t16 -38zM733 669q-49 0 -71 -18q-26 -20 -26 -71v-330q0 -147 -75 -211q-63 -54 -189 -54q-254 0 -254 234v361q0 56 -16.5 72.5t-76.5 16.5v19h353v-19q-62 0 -81 -17.5t-19 -71.5v-360
q0 -93 28 -135q32 -50 114 -50q88 0 131 56t43 178v311q0 51 -23.5 70t-75.5 19v19h238v-19z" />
    <glyph glyph-name="Ucircumflex" unicode="&#xdb;" horiz-adv-x="751" 
d="M568 749h-43l-121 101l-121 -101h-43l109 191h110zM733 669q-49 0 -71 -18q-26 -20 -26 -71v-330q0 -147 -75 -211q-63 -54 -189 -54q-254 0 -254 234v361q0 56 -16.5 72.5t-76.5 16.5v19h353v-19q-62 0 -81 -17.5t-19 -71.5v-360q0 -93 28 -135q32 -50 114 -50
q88 0 131 56t43 178v311q0 51 -23.5 70t-75.5 19v19h238v-19z" />
    <glyph glyph-name="Udieresis" unicode="&#xdc;" horiz-adv-x="751" 
d="M564 829q0 -28 -20 -48t-48 -20t-48 20t-20 48t20 48t48 20t48 -20t20 -48zM372 829q0 -28 -20 -48t-48 -20t-48 20t-20 48t20 48t48 20t48 -20t20 -48zM733 669q-49 0 -71 -18q-26 -20 -26 -71v-330q0 -147 -75 -211q-63 -54 -189 -54q-254 0 -254 234v361
q0 56 -16.5 72.5t-76.5 16.5v19h353v-19q-62 0 -81 -17.5t-19 -71.5v-360q0 -93 28 -135q32 -50 114 -50q88 0 131 56t43 178v311q0 51 -23.5 70t-75.5 19v19h238v-19z" />
    <glyph glyph-name="Yacute" unicode="&#xdd;" horiz-adv-x="751" 
d="M580 898q0 -28 -16 -38l-174 -108h-52l150 184q13 16 38 16q22 0 38 -16t16 -38zM739 669q-34 0 -60 -28t-76 -112l-148 -251v-170q0 -52 24 -70.5t88 -18.5v-19h-386v19q64 0 89 18.5t25 70.5v143l-173 314q-36 65 -57.5 84.5t-55.5 19.5v19h330v-19q-68 0 -68 -28
q0 -14 15 -42l150 -277l142 239q27 45 27 69q0 39 -76 39v19h210v-19z" />
    <glyph glyph-name="Thorn" unicode="&#xde;" horiz-adv-x="635" 
d="M600 348q0 -192 -277 -192h-47v-48q0 -54 18 -71.5t79 -17.5v-19h-354v19q61 0 79 17.5t18 71.5v472q0 54 -18 71.5t-79 17.5v19h354v-19q-61 0 -79 -17.5t-18 -71.5v-44h66q121 0 188 -46q70 -49 70 -142zM431 348q0 148 -131 148h-24v-300h24q73 0 102 35t29 117z" />
    <glyph glyph-name="germandbls" unicode="&#xdf;" horiz-adv-x="597" 
d="M558 208q0 -96 -57 -159.5t-138 -63.5q-40 0 -68 20q-32 21 -32 58q0 61 48 61q19 0 36 -16t17 -35q0 -6 -4 -14.5t-4 -16.5q0 -24 26 -24q21 0 21 34q0 12 5 55.5t5 87.5q0 40 -10 110q-8 87 -88 87v32q40 0 54 24t14 95q0 126 -81 126q-77 0 -77 -106v-563h-205v19
q65 8 65 78v419q0 187 215 187q99 0 161 -39q64 -42 64 -114q0 -117 -123 -136q70 -8 111 -58q45 -55 45 -148z" />
    <glyph glyph-name="agrave" unicode="&#xe0;" 
d="M335 539h-52l-174 108q-16 10 -16 38q0 22 16 38t38 16q25 0 38 -16zM503 64q-48 -71 -116 -71q-82 0 -90 76q-90 -75 -151 -75q-44 0 -71.5 25.5t-27.5 65.5q0 60 60 109q54 45 190 106v78q0 71 -66 71q-65 0 -65 -35q0 -13 16.5 -32t16.5 -37q0 -27 -19.5 -43.5
t-47.5 -16.5q-27 0 -50 17q-26 20 -26 47q0 63 70 104q63 36 145 36q168 0 168 -149v-249q0 -33 20 -33q13 0 30 20zM297 108v157q-111 -67 -111 -131q0 -25 15 -40.5t38 -15.5q24 0 58 30z" />
    <glyph glyph-name="aacute" unicode="&#xe1;" 
d="M459 685q0 -28 -16 -38l-174 -108h-52l150 184q13 16 38 16q22 0 38 -16t16 -38zM503 64q-48 -71 -116 -71q-82 0 -90 76q-90 -75 -151 -75q-44 0 -71.5 25.5t-27.5 65.5q0 60 60 109q54 45 190 106v78q0 71 -66 71q-65 0 -65 -35q0 -13 16.5 -32t16.5 -37
q0 -27 -19.5 -43.5t-47.5 -16.5q-27 0 -50 17q-26 20 -26 47q0 63 70 104q63 36 145 36q168 0 168 -149v-249q0 -33 20 -33q13 0 30 20zM297 108v157q-111 -67 -111 -131q0 -25 15 -40.5t38 -15.5q24 0 58 30z" />
    <glyph glyph-name="acircumflex" unicode="&#xe2;" 
d="M430 539h-43l-121 101l-121 -101h-43l109 191h110zM503 64q-48 -71 -116 -71q-82 0 -90 76q-90 -75 -151 -75q-44 0 -71.5 25.5t-27.5 65.5q0 60 60 109q54 45 190 106v78q0 71 -66 71q-65 0 -65 -35q0 -13 16.5 -32t16.5 -37q0 -27 -19.5 -43.5t-47.5 -16.5
q-27 0 -50 17q-26 20 -26 47q0 63 70 104q63 36 145 36q168 0 168 -149v-249q0 -33 20 -33q13 0 30 20zM297 108v157q-111 -67 -111 -131q0 -25 15 -40.5t38 -15.5q24 0 58 30z" />
    <glyph glyph-name="atilde" unicode="&#xe3;" 
d="M429 717q-8 -65 -39 -105.5t-77 -40.5q-26 0 -65 23t-58 23q-36 0 -51 -51h-38q8 65 39 105.5t77 40.5q27 0 65.5 -23t57.5 -23q38 0 51 51h38zM503 64q-48 -71 -116 -71q-82 0 -90 76q-90 -75 -151 -75q-44 0 -71.5 25.5t-27.5 65.5q0 60 60 109q54 45 190 106v78
q0 71 -66 71q-65 0 -65 -35q0 -13 16.5 -32t16.5 -37q0 -27 -19.5 -43.5t-47.5 -16.5q-27 0 -50 17q-26 20 -26 47q0 63 70 104q63 36 145 36q168 0 168 -149v-249q0 -33 20 -33q13 0 30 20zM297 108v157q-111 -67 -111 -131q0 -25 15 -40.5t38 -15.5q24 0 58 30z" />
    <glyph glyph-name="adieresis" unicode="&#xe4;" 
d="M429 639q0 -28 -20 -48t-48 -20t-48 20t-20 48t20 48t48 20t48 -20t20 -48zM237 639q0 -28 -20 -48t-48 -20t-48 20t-20 48t20 48t48 20t48 -20t20 -48zM503 64q-48 -71 -116 -71q-82 0 -90 76q-90 -75 -151 -75q-44 0 -71.5 25.5t-27.5 65.5q0 60 60 109q54 45 190 106
v78q0 71 -66 71q-65 0 -65 -35q0 -13 16.5 -32t16.5 -37q0 -27 -19.5 -43.5t-47.5 -16.5q-27 0 -50 17q-26 20 -26 47q0 63 70 104q63 36 145 36q168 0 168 -149v-249q0 -33 20 -33q13 0 30 20zM297 108v157q-111 -67 -111 -131q0 -25 15 -40.5t38 -15.5q24 0 58 30z" />
    <glyph glyph-name="aring" unicode="&#xe5;" 
d="M372 646q0 -44 -31.5 -75.5t-75.5 -31.5t-75.5 31.5t-31.5 75.5t31.5 75.5t75.5 31.5t75.5 -31.5t31.5 -75.5zM503 64q-48 -71 -116 -71q-82 0 -90 76q-90 -75 -151 -75q-44 0 -71.5 25.5t-27.5 65.5q0 60 60 109q54 45 190 106v78q0 71 -66 71q-65 0 -65 -35
q0 -13 16.5 -32t16.5 -37q0 -27 -19.5 -43.5t-47.5 -16.5q-27 0 -50 17q-26 20 -26 47q0 63 70 104q63 36 145 36q168 0 168 -149v-249q0 -33 20 -33q13 0 30 20zM325 646q0 25 -17.5 42.5t-42.5 17.5t-42.5 -17.5t-17.5 -42.5t17.5 -42.5t42.5 -17.5t42.5 17.5t17.5 42.5z
M297 108v157q-111 -67 -111 -131q0 -25 15 -40.5t38 -15.5q24 0 58 30z" />
    <glyph glyph-name="ae" unicode="&#xe6;" horiz-adv-x="720" 
d="M690 130q-31 -63 -63 -93q-54 -52 -133 -52q-110 0 -158 84q-36 -28 -92 -54q-63 -30 -99 -30q-43 0 -71 29.5t-28 70.5q0 59 62 110q56 45 191 106q3 5 -3 76.5t-66 71.5q-65 0 -65 -35q0 -13 16.5 -32t16.5 -37q0 -27 -19.5 -43.5t-47.5 -16.5q-27 0 -50 17
q-26 20 -26 47q0 64 65 104q59 36 140 36q84 0 124 -57q53 57 123 57q88 0 139 -75q44 -66 44 -159h-260q1 -70 33 -126q39 -67 102 -67q58 0 108 79zM565 288q0 168 -64 168q-73 0 -73 -168h137zM323 97q-35 86 -29 167q-115 -69 -115 -130q0 -25 18.5 -46t40.5 -21
q26 0 85 30z" />
    <glyph glyph-name="ccedilla" unicode="&#xe7;" horiz-adv-x="462" 
d="M439 110q-66 -120 -184 -125l-27 -61h24q105 0 105 -69q0 -42 -50 -70q-44 -24 -99 -24q-41 0 -98 18l24 41q42 -15 69 -15q46 0 46 41q0 29 -35 30q-12 0 -32 -5l-18 12l48 105q-73 13 -120 74q-52 68 -52 175q0 87 47 158q63 94 179 94q75 0 120 -41q38 -35 38 -79
q0 -29 -17.5 -46t-44.5 -17q-48 0 -63 38q-8 35 -15 71q-10 38 -42 38q-31 0 -49 -47q-17 -41 -17 -101q0 -37 7 -68q21 -96 59 -136q32 -34 84 -34q43 0 96 56z" />
    <glyph glyph-name="egrave" unicode="&#xe8;" horiz-adv-x="462" 
d="M289 539h-52l-174 108q-16 10 -16 38q0 22 16 38t38 16q25 0 38 -16zM437 130q-31 -63 -63 -93q-54 -52 -133 -52q-94 0 -147.5 68t-53.5 184q0 117 70 189q62 63 144 63q88 0 139 -75q44 -66 44 -159h-260q1 -70 33 -126q39 -67 102 -67q58 0 108 79zM312 288
q0 168 -64 168q-73 0 -73 -168h137z" />
    <glyph glyph-name="eacute" unicode="&#xe9;" horiz-adv-x="462" 
d="M433 685q0 -28 -16 -38l-174 -108h-52l150 184q13 16 38 16q22 0 38 -16t16 -38zM437 130q-31 -63 -63 -93q-54 -52 -133 -52q-94 0 -147.5 68t-53.5 184q0 117 70 189q62 63 144 63q88 0 139 -75q44 -66 44 -159h-260q1 -70 33 -126q39 -67 102 -67q58 0 108 79z
M312 288q0 168 -64 168q-73 0 -73 -168h137z" />
    <glyph glyph-name="ecircumflex" unicode="&#xea;" horiz-adv-x="462" 
d="M410 539h-43l-121 101l-121 -101h-43l109 191h110zM437 130q-31 -63 -63 -93q-54 -52 -133 -52q-94 0 -147.5 68t-53.5 184q0 117 70 189q62 63 144 63q88 0 139 -75q44 -66 44 -159h-260q1 -70 33 -126q39 -67 102 -67q58 0 108 79zM312 288q0 168 -64 168
q-73 0 -73 -168h137z" />
    <glyph glyph-name="edieresis" unicode="&#xeb;" horiz-adv-x="462" 
d="M408 639q0 -28 -20 -48t-48 -20t-48 20t-20 48t20 48t48 20t48 -20t20 -48zM216 639q0 -28 -20 -48t-48 -20t-48 20t-20 48t20 48t48 20t48 -20t20 -48zM437 130q-31 -63 -63 -93q-54 -52 -133 -52q-94 0 -147.5 68t-53.5 184q0 117 70 189q62 63 144 63q88 0 139 -75
q44 -66 44 -159h-260q1 -70 33 -126q39 -67 102 -67q58 0 108 79zM312 288q0 168 -64 168q-73 0 -73 -168h137z" />
    <glyph glyph-name="igrave" unicode="&#xec;" horiz-adv-x="289" 
d="M207 539h-52l-174 108q-16 10 -16 38q0 22 16 38t38 16q25 0 38 -16zM278 0h-256v19q37 1 48 19q8 13 8 55v284q0 48 -9.5 61.5t-46.5 17.5v18h198v-381q0 -41 10 -55q11 -18 48 -19v-19z" />
    <glyph glyph-name="iacute" unicode="&#xed;" horiz-adv-x="289" 
d="M298 685q0 -28 -16 -38l-174 -108h-52l150 184q13 16 38 16q22 0 38 -16t16 -38zM278 0h-256v19q37 1 48 19q8 13 8 55v284q0 48 -9.5 61.5t-46.5 17.5v18h198v-381q0 -41 10 -55q11 -18 48 -19v-19z" />
    <glyph glyph-name="icircumflex" unicode="&#xee;" horiz-adv-x="289" 
d="M308 539h-43l-121 101l-121 -101h-43l109 191h110zM273 0h-256v19q37 1 48 19q8 13 8 55v284q0 48 -9.5 61.5t-46.5 17.5v18h198v-381q0 -41 10 -55q11 -18 48 -19v-19z" />
    <glyph glyph-name="idieresis" unicode="&#xef;" horiz-adv-x="289" 
d="M309 639q0 -28 -20 -48t-48 -20t-48 20t-20 48t20 48t48 20t48 -20t20 -48zM117 639q0 -28 -20 -48t-48 -20t-48 20t-20 48t20 48t48 20t48 -20t20 -48zM274 0h-256v19q37 1 48 19q8 13 8 55v284q0 48 -9.5 61.5t-46.5 17.5v18h198v-381q0 -41 10 -55q11 -18 48 -19v-19z
" />
    <glyph glyph-name="eth" unicode="&#xf0;" 
d="M483 259q0 -125 -59 -199.5t-164 -74.5q-103 0 -165 73q-58 68 -58 171q0 106 48 171q54 73 155 73q32 0 65 -15q-18 58 -62 116l-126 -70l-22 39l119 66q-39 42 -91 78l11 17q73 -28 132 -66l122 67l22 -39l-103 -57q176 -137 176 -350zM332 230q0 116 -12 157
q-14 52 -60 52q-54 0 -68 -81q-6 -32 -6 -128q0 -97 6 -128q14 -81 68 -81q46 0 60 52q12 41 12 157z" />
    <glyph glyph-name="ntilde" unicode="&#xf1;" horiz-adv-x="578" 
d="M454 717q-8 -65 -39 -105.5t-77 -40.5q-26 0 -65 23t-58 23q-36 0 -51 -51h-38q8 65 39 105.5t77 40.5q27 0 65.5 -23t57.5 -23q38 0 51 51h38zM548 0h-240v19q31 5 40 25q7 13 7 49v261q0 66 -46 66q-43 0 -81 -64v-263q0 -36 7 -50q10 -19 41 -24v-19h-241v19
q36 4 46 23q5 11 5 51v284q0 42 -5 54q-10 20 -46 25v18h193v-61q71 76 137 76q132 0 132 -165v-231q0 -40 7 -53q10 -17 44 -21v-19z" />
    <glyph glyph-name="ograve" unicode="&#xf2;" 
d="M315 539h-52l-174 108q-16 10 -16 38q0 22 16 38t38 16q25 0 38 -16zM483 237q0 -104 -58 -175q-63 -77 -165 -77t-165 77q-58 71 -58 175t58 175q63 77 165 77t165 -77q58 -71 58 -175zM334 237q0 116 -17.5 166t-56.5 50t-56.5 -50t-17.5 -166t17.5 -166t56.5 -50
t56.5 50t17.5 166z" />
    <glyph glyph-name="oacute" unicode="&#xf3;" 
d="M454 685q0 -28 -16 -38l-174 -108h-52l150 184q13 16 38 16q22 0 38 -16t16 -38zM483 237q0 -104 -58 -175q-63 -77 -165 -77t-165 77q-58 71 -58 175t58 175q63 77 165 77t165 -77q58 -71 58 -175zM334 237q0 116 -17.5 166t-56.5 50t-56.5 -50t-17.5 -166t17.5 -166
t56.5 -50t56.5 50t17.5 166z" />
    <glyph glyph-name="ocircumflex" unicode="&#xf4;" 
d="M427 539h-43l-121 101l-121 -101h-43l109 191h110zM483 237q0 -104 -58 -175q-63 -77 -165 -77t-165 77q-58 71 -58 175t58 175q63 77 165 77t165 -77q58 -71 58 -175zM334 237q0 116 -17.5 166t-56.5 50t-56.5 -50t-17.5 -166t17.5 -166t56.5 -50t56.5 50t17.5 166z" />
    <glyph glyph-name="otilde" unicode="&#xf5;" 
d="M423 717q-8 -65 -39 -105.5t-77 -40.5q-26 0 -65 23t-58 23q-36 0 -51 -51h-38q8 65 39 105.5t77 40.5q27 0 65.5 -23t57.5 -23q38 0 51 51h38zM483 237q0 -104 -58 -175q-63 -77 -165 -77t-165 77q-58 71 -58 175t58 175q63 77 165 77t165 -77q58 -71 58 -175zM334 237
q0 116 -17.5 166t-56.5 50t-56.5 -50t-17.5 -166t17.5 -166t56.5 -50t56.5 50t17.5 166z" />
    <glyph glyph-name="odieresis" unicode="&#xf6;" 
d="M425 639q0 -28 -20 -48t-48 -20t-48 20t-20 48t20 48t48 20t48 -20t20 -48zM233 639q0 -28 -20 -48t-48 -20t-48 20t-20 48t20 48t48 20t48 -20t20 -48zM483 237q0 -104 -58 -175q-63 -77 -165 -77t-165 77q-58 71 -58 175t58 175q63 77 165 77t165 -77q58 -71 58 -175z
M334 237q0 116 -17.5 166t-56.5 50t-56.5 -50t-17.5 -166t17.5 -166t56.5 -50t56.5 50t17.5 166z" />
    <glyph glyph-name="divide" unicode="&#xf7;" horiz-adv-x="1000" 
d="M560 461q0 -25 -17.5 -42.5t-42.5 -17.5t-42.5 17.5t-17.5 42.5t17.5 42.5t42.5 17.5t42.5 -17.5t17.5 -42.5zM800 269h-600v62h600v-62zM560 139q0 -25 -17.5 -42t-42.5 -17t-42.5 17t-17.5 42t17.5 42.5t42.5 17.5t42.5 -17.5t17.5 -42.5z" />
    <glyph glyph-name="oslash" unicode="&#xf8;" 
d="M487 237q0 -104 -58 -175q-63 -77 -165 -77q-87 0 -147 58l-50 -58l-33 28l55 63q-48 69 -48 161q0 104 58 175q63 77 165 77q82 0 139 -50l44 50l34 -27l-48 -55q54 -71 54 -170zM337 362q-10 91 -73 91q-46 0 -61 -59q-14 -52 -14 -202zM339 298l-149 -171
q7 -106 74 -106q60 0 73 111q2 20 2 166z" />
    <glyph glyph-name="ugrave" unicode="&#xf9;" horiz-adv-x="578" 
d="M346 539h-52l-174 108q-16 10 -16 38q0 22 16 38t38 16q25 0 38 -16zM545 0h-193v61q-71 -76 -137 -76q-132 0 -132 165v231q0 40 -7 53q-10 17 -44 21v19h193v-354q0 -66 46 -66q41 0 81 66v261q0 37 -7 50q-11 19 -45 24v19h194v-377q0 -42 5 -53q10 -20 46 -25v-19z
" />
    <glyph glyph-name="uacute" unicode="&#xfa;" horiz-adv-x="578" 
d="M470 685q0 -28 -16 -38l-174 -108h-52l150 184q13 16 38 16q22 0 38 -16t16 -38zM545 0h-193v61q-71 -76 -137 -76q-132 0 -132 165v231q0 40 -7 53q-10 17 -44 21v19h193v-354q0 -66 46 -66q41 0 81 66v261q0 37 -7 50q-11 19 -45 24v19h194v-377q0 -42 5 -53
q10 -20 46 -25v-19z" />
    <glyph glyph-name="ucircumflex" unicode="&#xfb;" horiz-adv-x="578" 
d="M456 539h-43l-121 101l-121 -101h-43l109 191h110zM545 0h-193v61q-71 -76 -137 -76q-132 0 -132 165v231q0 40 -7 53q-10 17 -44 21v19h193v-354q0 -66 46 -66q41 0 81 66v261q0 37 -7 50q-11 19 -45 24v19h194v-377q0 -42 5 -53q10 -20 46 -25v-19z" />
    <glyph glyph-name="udieresis" unicode="&#xfc;" horiz-adv-x="578" 
d="M455 639q0 -28 -20 -48t-48 -20t-48 20t-20 48t20 48t48 20t48 -20t20 -48zM263 639q0 -28 -20 -48t-48 -20t-48 20t-20 48t20 48t48 20t48 -20t20 -48zM545 0h-193v61q-71 -76 -137 -76q-132 0 -132 165v231q0 40 -7 53q-10 17 -44 21v19h193v-354q0 -66 46 -66
q41 0 81 66v261q0 37 -7 50q-11 19 -45 24v19h194v-377q0 -42 5 -53q10 -20 46 -25v-19z" />
    <glyph glyph-name="yacute" unicode="&#xfd;" 
d="M458 684q0 -28 -16 -38l-174 -108h-52l150 184q13 16 38 16q22 0 38 -16t16 -38zM511 456q-28 -2 -46 -29q-12 -16 -30 -64l-168 -434q-29 -76 -53 -107q-36 -47 -89 -47q-40 0 -68 23.5t-28 59.5q0 28 18 48t47 20q36 0 47 -25q4 -9 6 -47q1 -25 16 -25q23 0 44 40
q6 13 46 111l-169 389q-33 76 -76 87v18h253v-18q-45 0 -45 -31q0 -16 11 -42l95 -220l75 197q12 31 12 51q0 43 -57 45v18h159v-18z" />
    <glyph glyph-name="thorn" unicode="&#xfe;" horiz-adv-x="579" 
d="M535 237q0 -104 -48 -175q-51 -77 -138 -77q-76 0 -130 63v-178q0 -45 13.5 -59.5t57.5 -14.5v-19h-270v19q37 1 48 19q9 13 9 55v736q0 44 -6 56q-10 18 -51 23v18h199v-291q53 77 134 77q77 0 129.5 -71t52.5 -181zM385 237q0 189 -80 189q-50 0 -86 -71v-256
q51 -62 96 -62q70 0 70 200z" />
    <glyph glyph-name="ydieresis" unicode="&#xff;" 
d="M449 639q0 -28 -20 -48t-48 -20t-48 20t-20 48t20 48t48 20t48 -20t20 -48zM257 639q0 -28 -20 -48t-48 -20t-48 20t-20 48t20 48t48 20t48 -20t20 -48zM511 456q-28 -2 -46 -29q-12 -16 -30 -64l-168 -434q-29 -76 -53 -107q-36 -47 -89 -47q-40 0 -68 23.5t-28 59.5
q0 28 18 48t47 20q36 0 47 -25q4 -9 6 -47q1 -25 16 -25q23 0 44 40q6 13 46 111l-169 389q-33 76 -76 87v18h253v-18q-45 0 -45 -31q0 -16 11 -42l95 -220l75 197q12 31 12 51q0 43 -57 45v18h159v-18z" />
    <glyph glyph-name="OE" unicode="&#x152;" horiz-adv-x="1021" 
d="M984 218l-30 -218h-447q-39 -10 -120 -10q-151 0 -250.5 102t-99.5 252t99.5 252t250.5 102q83 0 120 -10h428v-203h-19q-18 96 -68 132q-46 33 -146 33h-56v-281h12q65 0 92 47q19 32 29 115h19v-360h-19q-13 82 -29 111q-28 48 -92 48h-12v-222q0 -47 5 -55
q10 -15 58 -15q113 0 167 36.5t90 143.5h18zM486 108v472q0 34 -29.5 55t-66.5 21q-92 0 -136 -105q-34 -82 -34 -207t34 -207q43 -106 132 -106q39 0 69.5 21.5t30.5 55.5z" />
    <glyph glyph-name="oe" unicode="&#x153;" horiz-adv-x="769" 
d="M732 130q-31 -63 -63 -93q-54 -52 -133 -52q-77 0 -132 63q-66 -63 -144 -63q-102 0 -165 77q-58 71 -58 175t58 175q63 77 165 77q84 0 151 -70q57 70 138 70q88 0 139 -75q44 -66 44 -159h-260q1 -70 33 -126q39 -67 102 -67q58 0 108 79zM607 288q0 168 -64 168
q-73 0 -73 -168h137zM338 237q0 216 -78 216q-39 0 -56.5 -50t-17.5 -166t17.5 -166t56.5 -50q78 0 78 216z" />
    <glyph glyph-name="Scaron" unicode="&#x160;" horiz-adv-x="578" 
d="M442 943l-109 -191h-110l-109 191h43l121 -101l121 101h43zM537 195q0 -92 -69 -151t-172 -59q-58 0 -106 20t-66 20q-30 0 -52 -40h-18v259h20q9 -81 67 -148q66 -77 158 -77q47 0 84 29.5t37 72.5q0 65 -95 119l-176 98q-95 69 -95 170q0 86 60.5 140.5t155.5 54.5
q51 0 105.5 -23t66.5 -23q23 0 30 46h17l5 -229h-21q-13 88 -74 142q-56 51 -126 51q-43 0 -76 -25.5t-33 -65.5q0 -59 97 -113q89 -49 179 -99q97 -70 97 -169z" />
    <glyph glyph-name="scaron" unicode="&#x161;" horiz-adv-x="405" 
d="M355 729l-109 -191h-110l-109 191h43l121 -101l121 101h43zM368 148q0 -71 -44 -117t-111 -46q-26 0 -66 13.5t-47 13.5q-15 0 -27 -24h-17l-8 170h18q13 -53 54 -93.5t84 -40.5q55 0 55 58q0 30 -56 70q-93 66 -105 77q-56 53 -56 114q0 67 41.5 106.5t105.5 39.5
q31 0 60.5 -13t35.5 -13q17 0 33 25h17l8 -162h-17q-51 124 -131 124q-50 0 -50 -45q0 -28 58 -69q95 -68 107 -79q58 -53 58 -109z" />
    <glyph glyph-name="Ydieresis" unicode="&#x178;" horiz-adv-x="751" 
d="M579 829q0 -28 -20 -48t-48 -20t-48 20t-20 48t20 48t48 20t48 -20t20 -48zM387 829q0 -28 -20 -48t-48 -20t-48 20t-20 48t20 48t48 20t48 -20t20 -48zM739 669q-34 0 -60 -28t-76 -112l-148 -251v-170q0 -52 24 -70.5t88 -18.5v-19h-386v19q64 0 89 18.5t25 70.5v143
l-173 314q-36 65 -57.5 84.5t-55.5 19.5v19h330v-19q-68 0 -68 -28q0 -14 15 -42l150 -277l142 239q27 45 27 69q0 39 -76 39v19h210v-19z" />
    <glyph glyph-name="florin" unicode="&#x192;" 
d="M520 638q0 -23 -16 -39.5t-39 -16.5q-18 0 -31 11.5t-13 26.5q0 14 8 30.5t8 20.5q0 10 -15 10q-21 0 -34 -22.5t-13 -51.5q0 -17 2.5 -42.5t2.5 -42.5q0 -23 -8 -62h78l-11 -62h-77q-36 -172 -72 -343q-35 -149 -78 -209q-49 -71 -136 -71q-31 0 -53.5 16t-22.5 41
q0 22 14.5 37.5t36.5 15.5q48 0 48 -39q0 -6 -3.5 -16t-3.5 -13q0 -10 13 -10q41 0 41 67q0 27 -2.5 50t-2.5 54q0 81 76 420h-71l12 62q78 0 110 64q23 58 46 117q36 64 124 64q36 0 59 -18t23 -49z" />
    <glyph glyph-name="circumflex" unicode="&#x2c6;" horiz-adv-x="328" 
d="M328 538h-43l-121 101l-121 -101h-43l109 191h110z" />
    <glyph glyph-name="tilde" unicode="&#x2dc;" horiz-adv-x="328" 
d="M328 717q-8 -65 -39 -105.5t-77 -40.5q-26 0 -65 23t-58 23q-36 0 -51 -51h-38q8 65 39 105.5t77 40.5q27 0 65.5 -23t57.5 -23q38 0 51 51h38z" />
    <glyph glyph-name="endash" unicode="&#x2013;" horiz-adv-x="500" 
d="M514 204h-536v72h536v-72zM0 760z" />
    <glyph glyph-name="emdash" unicode="&#x2014;" horiz-adv-x="1000" 
d="M1000 204h-1000v72h1000v-72zM0 760z" />
    <glyph glyph-name="quoteleft" unicode="&#x2018;" horiz-adv-x="347" 
d="M270 449q0 -35 -24.5 -59.5t-59.5 -24.5q-47 0 -78 33t-31 94q0 78 46.5 132.5t129.5 78.5v-24q-60 -24 -90 -72q-24 -37 -24 -73q0 -18 11 -18q1 0 14.5 7t31.5 7q30 0 52 -23.5t22 -57.5z" />
    <glyph glyph-name="quoteright" unicode="&#x2019;" horiz-adv-x="347" 
d="M270 576q0 -78 -46.5 -132.5t-129.5 -78.5v24q60 24 90 72q24 37 24 73q0 18 -11 18q-1 0 -14.5 -7t-31.5 -7q-30 0 -52 23.5t-22 57.5q0 35 24.5 59.5t59.5 24.5q47 0 78 -33t31 -94z" />
    <glyph glyph-name="quotesinglbase" unicode="&#x201a;" horiz-adv-x="347" 
d="M270 29q0 -77 -47 -132.5t-127 -78.5v22q59 24 89 73q23 37 23 74q0 18 -11 18q-2 0 -13 -6t-23 -6q-35 0 -59.5 22.5t-24.5 56.5q0 35 24.5 59.5t59.5 24.5q47 0 78 -33t31 -94z" />
    <glyph glyph-name="quotedblleft" unicode="&#x201c;" horiz-adv-x="521" 
d="M479 449q0 -35 -24.5 -59.5t-59.5 -24.5q-47 0 -78 33t-31 94q0 78 46.5 132.5t129.5 78.5v-24q-60 -24 -90 -72q-24 -37 -24 -73q0 -18 11 -18q1 0 14.5 7t31.5 7q30 0 52 -23.5t22 -57.5zM235 449q0 -35 -24.5 -59.5t-59.5 -24.5q-47 0 -78 33t-31 94q0 78 46.5 132.5
t129.5 78.5v-24q-60 -24 -90 -72q-24 -37 -24 -73q0 -18 11 -18q1 0 14.5 7t31.5 7q30 0 52 -23.5t22 -57.5z" />
    <glyph glyph-name="quotedblright" unicode="&#x201d;" horiz-adv-x="521" 
d="M479 576q0 -78 -46.5 -132.5t-129.5 -78.5v24q60 24 90 72q24 37 24 73q0 18 -11 18q-1 0 -14.5 -7t-31.5 -7q-30 0 -52 23.5t-22 57.5q0 35 24.5 59.5t59.5 24.5q47 0 78 -33t31 -94zM235 576q0 -78 -46.5 -132.5t-129.5 -78.5v24q60 24 90 72q24 37 24 73q0 18 -11 18
q-1 0 -14.5 -7t-31.5 -7q-30 0 -52 23.5t-22 57.5q0 35 24.5 59.5t59.5 24.5q47 0 78 -33t31 -94z" />
    <glyph glyph-name="quotedblbase" unicode="&#x201e;" horiz-adv-x="521" 
d="M479 29q0 -77 -47 -132.5t-127 -78.5v22q59 24 89 73q23 37 23 74q0 18 -11 18q-2 0 -13 -6t-23 -6q-35 0 -59.5 22.5t-24.5 56.5q0 35 24.5 59.5t59.5 24.5q47 0 78 -33t31 -94zM235 29q0 -77 -47 -132.5t-127 -78.5v22q59 24 89 73q23 37 23 74q0 18 -11 18
q-2 0 -13 -6t-23 -6q-35 0 -59.5 22.5t-24.5 56.5q0 35 24.5 59.5t59.5 24.5q47 0 78 -33t31 -94z" />
    <glyph glyph-name="dagger" unicode="&#x2020;" horiz-adv-x="530" 
d="M482 421q0 -30 -23 -49.5t-46 -19.5q-32 0 -66 28.5t-70 28.5q0 -69 65 -125q-58 -135 -65 -488h-24q-2 103 -9 189q-17 207 -56 298q65 57 65 126q-36 0 -70 -28.5t-66 -28.5q-23 0 -46 19.5t-23 49.5t23 51q20 18 46 18q32 0 65.5 -28.5t70.5 -28.5q0 36 -32 90t-32 86
q0 31 22 55t54 24t54 -24t22 -55q0 -32 -32 -85.5t-32 -90.5q37 0 70.5 28.5t65.5 28.5q26 0 46 -18q23 -21 23 -51z" />
    <glyph glyph-name="daggerdbl" unicode="&#x2021;" horiz-adv-x="530" 
d="M482 10q0 -30 -21.5 -49.5t-47.5 -19.5q-32 0 -65.5 28.5t-70.5 28.5q0 -37 28.5 -75t28.5 -70q0 -26 -18 -46q-21 -23 -51 -23t-49.5 23t-19.5 46q0 32 28.5 70.5t28.5 74.5q-37 0 -70.5 -28.5t-65.5 -28.5q-26 0 -46 18q-23 21 -23 51t24 51q22 18 45 18q32 0 66 -28.5
t70 -28.5q0 56 -60 96q57 44 57 118q0 73 -57 117q60 40 60 97q-36 0 -70 -28.5t-66 -28.5q-23 0 -46 19.5t-23 49.5t23 51q20 18 46 18q32 0 65.5 -28.5t70.5 -28.5q0 37 -28.5 75t-28.5 70q0 26 19.5 47.5t49.5 21.5t51 -24q18 -22 18 -45q0 -32 -28.5 -70.5t-28.5 -74.5
q37 0 70.5 28.5t65.5 28.5q26 0 46 -18q23 -21 23 -51t-23 -49.5t-46 -19.5q-32 0 -66 28.5t-70 28.5q0 -57 60 -96q-57 -44 -57 -118q0 -73 57 -117q-60 -42 -60 -97q36 0 70 28.5t66 28.5q23 0 45 -18q24 -21 24 -51z" />
    <glyph glyph-name="bullet" unicode="&#x2022;" horiz-adv-x="300" 
d="M265 340q0 -48 -33.5 -81.5t-81.5 -33.5t-81.5 33.5t-33.5 81.5t33.5 81.5t81.5 33.5t81.5 -33.5t33.5 -81.5z" />
    <glyph glyph-name="ellipsis" unicode="&#x2026;" horiz-adv-x="1040" 
d="M951 72q0 -35 -24.5 -59.5t-59.5 -24.5t-59.5 24.5t-24.5 59.5t24.5 59.5t59.5 24.5t59.5 -24.5t24.5 -59.5zM604 72q0 -35 -24.5 -59.5t-59.5 -24.5t-59.5 24.5t-24.5 59.5t24.5 59.5t59.5 24.5t59.5 -24.5t24.5 -59.5zM257 72q0 -35 -24.5 -59.5t-59.5 -24.5
t-59.5 24.5t-24.5 59.5t24.5 59.5t59.5 24.5t59.5 -24.5t24.5 -59.5z" />
    <glyph glyph-name="perthousand" unicode="&#x2030;" horiz-adv-x="1217" 
d="M1192 254q0 -96 -63 -177q-72 -92 -179 -92q-76 0 -108 40q-29 35 -29 110q0 89 75 171q78 87 173 87q131 0 131 -139zM797 254q1 -96 -63 -177q-72 -92 -179 -92q-76 0 -108 40q-29 35 -29 110q0 89 75 171q78 87 173 87q130 0 131 -139zM673 706l-424 -721h-96l381 646
q-23 -11 -43.5 -20t-39.5 -9q-25 0 -56 10q8 -24 8 -59q0 -96 -66 -179q-71 -90 -168 -90q-79 0 -113 36q-31 33 -31 106q0 103 78 184.5t177 81.5q45 0 86.5 -27t80.5 -27q79 1 132 68h94zM1153 243q0 110 -66 110q-47 0 -106 -82q-64 -89 -64 -180q0 -29 20 -46.5
t53 -17.5q50 0 106.5 74.5t56.5 141.5zM758 243q0 110 -66 110q-47 0 -106 -82q-64 -89 -64 -180q0 -29 20 -46.5t53 -17.5q50 0 106.5 74.5t56.5 141.5zM366 542q0 110 -62 110q-54 0 -113 -82q-62 -87 -62 -180q0 -29 20 -46.5t54 -17.5q53 0 109 79q54 76 54 137z" />
    <glyph glyph-name="guilsinglleft" unicode="&#x2039;" horiz-adv-x="349" 
d="M301 4h-41l-213 233l213 233h41l-111 -233z" />
    <glyph glyph-name="guilsinglright" unicode="&#x203a;" horiz-adv-x="349" 
d="M302 237l-213 -233h-41l111 233l-111 233h41z" />
    <glyph glyph-name="trademark" unicode="&#x2122;" horiz-adv-x="1046" 
d="M1046 279h-234v17q35 0 46.5 10.5t11.5 42.5v270l-162 -340h-12l-161 340v-270q0 -29 12 -41t46 -12v-17h-143v17q32 0 43.5 12t11.5 41v268q0 32 -11 42.5t-44 10.5v18h186l118 -251l116 251h176v-18q-29 0 -40 -11t-11 -42v-268q0 -53 51 -53v-17zM394 574h-18
q0 88 -90 88h-28v-313q0 -30 12.5 -41.5t40.5 -11.5v-17h-231v17q31 0 42 11t11 42v313h-26q-89 0 -89 -88h-18v114h394v-114z" />
    <glyph glyph-name="periodcentered" unicode="&#x2219;" horiz-adv-x="290" 
d="M231 345q0 -35 -25.5 -60.5t-60.5 -25.5t-60.5 25.5t-25.5 60.5t25.5 60.5t60.5 25.5t60.5 -25.5t25.5 -60.5z" />
    <glyph glyph-name="9910" horiz-adv-x="224" 
d="M181 268q0 -24 -20 -41t-49 -17t-49 17t-20 41t20 41t49 17t49 -17t20 -41z" />
    <glyph glyph-name="1830" horiz-adv-x="539" 
d="M533 683q-21 -2 -32 -16q-7 -9 -20 -40l-96 -227h-21l-94 209l-91 -209h-19l-101 230q-21 47 -53 53v10h173v-10q-31 -2 -31 -13q0 -5 7 -20l55 -123l48 109q-9 22 -14 30q-12 15 -34 17v10h180v-10q-37 -1 -37 -15q0 -7 10 -29l50 -112l47 110q7 16 7 24q0 20 -35 22v10
h101v-10z" />
    <glyph glyph-name="x" 
d="M503 0h-265v19q47 2 47 24q0 10 -9 27l-50 92l-46 -68q-19 -29 -19 -46q0 -29 48 -29v-19h-185v19q41 0 73 27q22 18 54 64l58 84l-94 174q-24 45 -41 63q-21 22 -50 25v18h263v-18q-45 -1 -45 -21q0 -11 11 -31l44 -82l43 62q18 25 18 42q0 26 -42 29v19h168v-18
q-57 0 -116 -87l-54 -79l100 -185q23 -43 38 -60q23 -26 51 -26v-19z" />
    <glyph glyph-name="6813" horiz-adv-x="204" 
d="M204 -195q0 -43 -30 -73t-73 -30t-72 30t-29 73t29 72t72 29t73 -29t30 -72z" />
    <glyph glyph-name="7033" horiz-adv-x="630" 
d="M617 107q0 -56 -28.5 -89t-76.5 -33q-39 0 -67 28q-37 37 -78 142l-56 143l-149 -298h-149l234 475l-7 14h-137v50h116q-26 64 -96 64q-28 0 -48 -19.5t-20 -38.5h-25v46q0 56 28.5 89t76.5 33q56 0 96 -63q21 -32 50 -111h150v-50h-131l111 -303q33 -91 113 -91
q28 0 48 19.5t20 38.5h25v-46z" />
  </font>
</defs>
</svg>
